<svg width="51.994263" height="27.281799" viewBox="0 0 51.9943 27.2818" fill="none"
   xmlns="http://www.w3.org/2000/svg" xmlns:xlink="http://www.w3.org/1999/xlink">
   <path id="Vector"
      d="M1.9 18.16L10.28 26.64C10.48 26.84 10.72 27 10.99 27.11C11.25 27.22 11.53 27.28 11.82 27.28C12.11 27.28 12.39 27.22 12.65 27.11C12.92 27 13.16 26.84 13.36 26.64C13.56 26.43 13.72 26.19 13.83 25.93C13.94 25.67 14 25.38 14 25.1C14 24.81 13.94 24.53 13.83 24.26C13.72 24 13.56 23.76 13.36 23.56L5.64 15.8L49.82 15.8C50.4 15.8 50.95 15.57 51.35 15.17C51.76 14.76 51.99 14.21 51.99 13.64C51.99 13.06 51.76 12.51 51.35 12.1C50.95 11.7 50.4 11.47 49.82 11.47L5.51 11.47L13.36 3.63C13.74 3.22 13.96 2.69 13.96 2.13C13.96 1.57 13.74 1.04 13.36 0.64C13.16 0.43 12.92 0.27 12.65 0.16C12.39 0.05 12.11 0 11.82 0C11.53 0 11.25 0.05 10.99 0.16C10.72 0.27 10.48 0.43 10.28 0.64L1.9 8.98C0.68 10.2 0 11.85 0 13.57C0 15.29 0.68 16.95 1.9 18.16Z"
      fill="#052E46" fill-opacity="1.000000" fill-rule="nonzero" />
</svg>