<svg width="24" height="25" viewBox="0 0 24 25" fill="none" xmlns="http://www.w3.org/2000/svg">
   <path fill-rule="evenodd" clip-rule="evenodd" d="M4.5 4.16577C3.67157 4.16577 3 4.83734 3 5.66577V20.6658C3 21.4942 3.67157 22.1658 4.5 22.1658H19.5C20.3284 22.1658 21 21.4942 21 20.6658V5.66577C21 4.83734 20.3284 4.16577 19.5 4.16577H4.5ZM8.52076 8.16849C8.52639 9.12474 7.81061 9.71396 6.96123 9.70974C6.16107 9.70552 5.46357 9.06849 5.46779 8.1699C5.47201 7.32474 6.13998 6.64552 7.00764 6.66521C7.88795 6.6849 8.52639 7.33037 8.52076 8.16849ZM12.2797 10.9275H9.75971H9.7583V19.4874H12.4217V19.2877C12.4217 18.9078 12.4214 18.5278 12.4211 18.1477C12.4203 17.1339 12.4194 16.119 12.4246 15.1055C12.426 14.8594 12.4372 14.6035 12.5005 14.3686C12.7381 13.4911 13.5271 12.9244 14.4074 13.0637C14.9727 13.1522 15.3467 13.4799 15.5042 14.0129C15.6013 14.3461 15.6449 14.7047 15.6491 15.0521C15.6605 16.0997 15.6589 17.1473 15.6573 18.195C15.6567 18.5648 15.6561 18.9348 15.6561 19.3046V19.486H18.328V19.2807C18.328 18.8287 18.3278 18.3768 18.3275 17.9249C18.327 16.7954 18.3264 15.6659 18.3294 14.536C18.3308 14.0255 18.276 13.5221 18.1508 13.0285C17.9638 12.2944 17.5771 11.6869 16.9485 11.2482C16.5027 10.936 16.0133 10.7349 15.4663 10.7124C15.404 10.7098 15.3412 10.7064 15.2781 10.703C14.9984 10.6879 14.7141 10.6725 14.4467 10.7264C13.6817 10.8797 13.0096 11.2299 12.5019 11.8472C12.4429 11.918 12.3852 11.9899 12.2991 12.0972L12.2797 12.1215V10.9275ZM5.68164 19.4902H8.33242V10.9331H5.68164V19.4902Z" fill="white"/>
   </svg>
   