<svg width="24" height="25" viewBox="0 0 24 25" fill="none" xmlns="http://www.w3.org/2000/svg">
   <path
      d="M4.22172 20.7011C4.68559 21.1656 5.23669 21.5339 5.84334 21.7848C6.44999 22.0357 7.10023 22.1642 7.75672 22.1631C8.41335 22.1642 9.06374 22.0356 9.67054 21.7848C10.2774 21.5339 10.8286 21.1656 11.2927 20.7011L14.1207 17.8721L12.7067 16.4581L9.87872 19.2871C9.31519 19.8481 8.55239 20.163 7.75722 20.163C6.96205 20.163 6.19925 19.8481 5.63572 19.2871C5.07422 18.7238 4.75892 17.9609 4.75892 17.1656C4.75892 16.3702 5.07422 15.6073 5.63572 15.0441L8.46472 12.2161L7.05072 10.8021L4.22172 13.6301C3.28552 14.5685 2.75977 15.84 2.75977 17.1656C2.75977 18.4911 3.28552 19.7626 4.22172 20.7011ZM19.7777 12.2161C20.7134 11.2773 21.2388 10.006 21.2388 8.68056C21.2388 7.35514 20.7134 6.08377 19.7777 5.14506C18.8393 4.20886 17.5678 3.68311 16.2422 3.68311C14.9166 3.68311 13.6452 4.20886 12.7067 5.14506L9.87872 7.97406L11.2927 9.38806L14.1207 6.55906C14.6842 5.99805 15.447 5.68309 16.2422 5.68309C17.0374 5.68309 17.8002 5.99805 18.3637 6.55906C18.9252 7.12233 19.2405 7.88523 19.2405 8.68056C19.2405 9.47589 18.9252 10.2388 18.3637 10.8021L15.5347 13.6301L16.9487 15.0441L19.7777 12.2161Z"
      fill="white" />
   <path d="M8.46371 17.8731L7.04871 16.4591L15.5357 7.97314L16.9497 9.38814L8.46371 17.8731Z"
      fill="white" />
</svg>
   