<svg width="48" height="49" viewBox="0 0 48 49" fill="none" xmlns="http://www.w3.org/2000/svg">
   <path fill-rule="evenodd" clip-rule="evenodd" d="M31.0207 0.970004C30.6226 1.1261 30.3178 1.39836 30.1248 1.77026C30.0138 1.98424 30.0126 2.00354 29.9991 3.85039L29.9854 5.71452L30.1096 5.98639C30.2726 6.34332 30.5223 6.59776 30.8767 6.76792C31.753 7.18864 32.8046 6.62392 32.9631 5.6476C32.9899 5.48186 33.012 4.69826 33.012 3.90626C33.012 3.11426 32.9899 2.33066 32.9631 2.16492C32.8432 1.42586 32.216 0.90074 31.4642 0.909908C31.2995 0.911924 31.0999 0.938948 31.0207 0.970004ZM20.6249 5.32351C19.6544 5.48445 19.0908 6.59066 19.5372 7.45826C19.6254 7.62962 20.029 8.06364 20.9487 8.97588C22.4106 10.426 22.4269 10.4369 23.0923 10.4027C23.4961 10.3821 23.7662 10.2617 24.0699 9.96698C24.3595 9.68599 24.487 9.36664 24.487 8.92226C24.487 8.30407 24.4509 8.25314 22.9665 6.77709C21.8874 5.704 21.6232 5.46559 21.4447 5.40376C21.1593 5.30488 20.8938 5.27892 20.6249 5.32351ZM41.8065 5.32912C41.6531 5.35384 41.4534 5.43444 41.3025 5.5324C41.1651 5.62168 40.5297 6.22216 39.8905 6.86676C38.5155 8.25338 38.4591 8.33916 38.4946 8.98716C38.5195 9.43941 38.6245 9.68608 38.9167 9.97826C39.2089 10.2704 39.4555 10.3755 39.9078 10.4003C40.56 10.4361 40.6374 10.3845 42.0733 8.95634C43.4935 7.54375 43.5832 7.41501 43.5807 6.79245C43.579 6.34855 43.4758 6.09189 43.1663 5.76098C42.8179 5.38855 42.3534 5.241 41.8065 5.32912ZM30.5193 8.44936C29.3308 8.57349 27.9605 9.03208 26.9167 9.65517C25.3413 10.5955 24.1884 11.854 23.3887 13.5063C22.7729 14.7786 22.5007 15.9675 22.5007 17.3856C22.5007 19.4793 23.1474 21.354 24.4385 23.0031C24.9897 23.7071 26.0392 24.6447 26.7394 25.0586L26.9565 25.187L26.9726 26.7146L26.9887 28.2423L27.1132 28.5063C27.2637 28.8254 27.5436 29.1138 27.859 29.2749C28.0805 29.388 28.1422 29.3951 29.0407 29.4106L29.9887 29.4269V31.0541C29.9887 32.5343 29.9969 32.7028 30.0796 32.9203C30.3386 33.6021 31.0233 33.9965 31.7473 33.8811C32.2261 33.8047 32.6635 33.4617 32.8784 32.9943C32.9856 32.761 32.9891 32.7076 33.0044 31.0906L33.0202 29.427L33.9404 29.4106C34.8336 29.3947 34.8687 29.3903 35.1324 29.2608C35.4308 29.1143 35.685 28.8622 35.8546 28.5444C35.9613 28.3446 35.9654 28.2898 35.9887 26.7706L36.0127 25.203L36.4447 24.9181C37.5085 24.2167 38.2496 23.4779 38.9855 22.3855C40.7337 19.7902 40.9749 16.4094 39.6158 13.5501C38.5611 11.3313 36.6337 9.62748 34.3087 8.85866C33.1144 8.46372 31.771 8.31861 30.5193 8.44936ZM30.5887 11.4715C29.7388 11.5939 28.614 12.0762 27.8754 12.635C26.5179 13.6618 25.7269 15.091 25.5217 16.8874C25.3333 18.5363 26.0205 20.4188 27.2597 21.6487C27.7238 22.1094 28.2523 22.48 28.9217 22.8141C29.4219 23.0638 29.6777 23.2912 29.8484 23.638C29.9611 23.867 29.9652 23.9131 29.9796 25.1343L29.9945 26.3943H31.4749H32.9552L32.9732 25.1583C32.9897 24.0247 32.9996 23.9039 33.0925 23.7004C33.2653 23.3221 33.5015 23.1109 34.1077 22.7925C35.4207 22.1029 36.2265 21.2937 36.8548 20.0343C37.6542 18.4317 37.68 16.5253 36.9242 14.8933C36.2256 13.3848 34.87 12.1867 33.3247 11.7119C32.4489 11.4429 31.4166 11.3522 30.5887 11.4715ZM3.8767 12.9382C2.00825 13.2321 0.566807 14.5404 0.104135 16.3623C0.0152393 16.7122 0.0126953 17.1168 0.0126953 30.9063C0.0126953 44.7035 0.0151913 45.1001 0.104279 45.4503C0.527879 47.1158 1.77914 48.3671 3.4447 48.7907C3.79586 48.88 4.26429 48.8823 22.5007 48.8823H41.1967L41.5886 48.7776C43.2482 48.3344 44.4985 47.0416 44.8993 45.3543C44.9796 45.0162 44.9858 44.3858 45.0007 34.9863C45.0171 24.7642 45.014 24.5616 44.8379 24.2211C44.6998 23.954 44.3941 23.6738 44.0939 23.5391C43.8309 23.421 43.7578 23.4092 43.4101 23.4283C42.957 23.4532 42.7323 23.55 42.4332 23.849C42.324 23.9582 42.1847 24.149 42.1237 24.2729L42.0127 24.4983L42.0002 30.7023L41.9876 36.9063H38.1007C34.4033 36.9063 34.202 36.9107 33.9746 36.9971C33.1341 37.3165 32.7433 38.3115 33.1495 39.0978C33.2823 39.3549 33.6161 39.6652 33.9007 39.796L34.1407 39.9063L38.0668 39.9201L41.9928 39.934L41.9788 42.3441L41.9647 44.7543L41.8504 45.0072C41.7068 45.3249 41.3058 45.7002 40.9978 45.8052C40.793 45.875 39.8382 45.8823 30.895 45.8823H21.0184L21.0035 43.4703C20.9888 41.0709 20.9881 41.057 20.8784 40.8183C20.6635 40.3508 20.2261 40.0078 19.7473 39.9315C19.0233 39.816 18.3386 40.2104 18.0796 40.8922C17.9948 41.1151 17.9887 41.2924 17.9887 43.5068V45.8823H15.7338H13.4789L13.4658 41.9103C13.4527 37.9391 13.4527 37.9382 13.3486 37.7438C13.206 37.4775 12.8928 37.1746 12.6221 37.0413L12.3967 36.9303L7.7047 36.9176L3.0127 36.9049V34.6496V32.3943H10.5007H17.9887L17.9887 34.0623L17.9888 35.7303L18.127 36.0183C18.3888 36.5635 18.9031 36.9049 19.4642 36.9058C20.2211 36.907 20.8435 36.3846 20.9631 35.6476C21.0307 35.231 21.0283 31.0082 20.9602 30.6401C20.9314 30.4839 20.8761 30.2951 20.8375 30.2203C20.7051 29.9644 20.4126 29.6912 20.1247 29.5548L19.8367 29.4184L11.4247 29.4183L3.0127 29.4183V27.1623V24.9063H5.38817C7.6026 24.9063 7.77986 24.9001 8.00278 24.8154C8.68452 24.5564 9.07894 23.8717 8.9635 23.1477C8.88718 22.6689 8.54417 22.2314 8.0767 22.0166C7.83794 21.9068 7.82412 21.9062 5.42306 21.8914L3.00938 21.8766L3.02306 19.4194C3.0367 16.9625 3.0367 16.9623 3.14666 16.7563C3.28721 16.4932 3.57559 16.2048 3.83873 16.0642L4.0447 15.9543L7.4287 15.9271C9.2899 15.9122 10.8667 15.8814 10.9327 15.8588C11.1643 15.7793 11.5072 15.5381 11.6563 15.3497C12.2708 14.5738 12.0071 13.4798 11.1007 13.0446L10.8127 12.9064L7.4047 12.9128C5.53029 12.9164 3.9427 12.9278 3.8767 12.9382ZM16.2089 15.9289C15.9046 15.983 15.6479 16.1255 15.4139 16.3703C15.1655 16.6302 15.0663 16.8251 15.0117 17.1605C14.8958 17.8723 15.2941 18.5568 15.9746 18.8154C16.1935 18.8986 16.3635 18.9063 17.9887 18.9063C19.6139 18.9063 19.7838 18.8986 20.0028 18.8154C20.6845 18.5564 21.0789 17.8717 20.9635 17.1477C20.8872 16.6689 20.5442 16.2314 20.0767 16.0166C19.8419 15.9087 19.8 15.9061 18.1327 15.8981C17.1955 15.8936 16.3298 15.9075 16.2089 15.9289ZM43.2025 15.9352C42.8945 15.9866 42.5214 16.21 42.321 16.4629C41.7066 17.2387 41.9703 18.3328 42.8767 18.7679L43.1647 18.9062H44.9887H46.8127L47.1007 18.7679C47.646 18.5061 47.9874 17.9918 47.9882 17.4308C47.9894 16.6738 47.467 16.0515 46.73 15.9319C46.3688 15.8733 43.5579 15.8759 43.2025 15.9352ZM3.0127 42.3044C3.0127 44.5939 3.01625 44.6882 3.11282 44.9463C3.24646 45.3035 3.59148 45.6485 3.94865 45.7821C4.20996 45.8799 4.2905 45.8823 7.35852 45.8823H10.5007V42.9063V39.9303H6.7567H3.0127V42.3044Z" fill="#052E46"/>
   </svg>
   