<svg width="48" height="49" viewBox="0 0 48 49" fill="none" xmlns="http://www.w3.org/2000/svg">
   <g clip-path="url(#clip0_238_4230)">
      <path fill-rule="evenodd" clip-rule="evenodd"
         d="M27.552 0.464289C25.2923 0.866769 23.515 2.38357 22.8044 4.51602C22.5113 5.39543 22.5124 5.37344 22.5122 10.6079L22.512 15.3719L17.292 15.3723C13.9139 15.3725 11.9636 15.3902 11.7648 15.4225C11.2414 15.5074 10.8597 15.8032 10.6262 16.3048C10.527 16.5177 10.5129 16.6198 10.5125 17.1275C10.5102 19.9172 11.5259 22.8201 13.3255 25.168C13.7451 25.7155 14.7181 26.7434 15.1616 27.1079L15.4537 27.3479L9.05886 27.3719L2.66401 27.3959L2.40001 27.5218C1.93547 27.7433 1.62779 28.1283 1.5376 28.6009C1.49843 28.806 1.48748 31.4133 1.4978 38.0759L1.51201 47.2679L1.6467 47.5422C1.81192 47.8786 2.13025 48.1679 2.47873 48.2983C2.73961 48.3959 2.74091 48.3959 24 48.3959C45.2591 48.3959 45.2604 48.3959 45.5213 48.2983C45.8698 48.1679 46.1881 47.8786 46.3533 47.5422L46.488 47.2679V37.9079V28.5479L46.3626 28.2839C46.2031 27.9481 45.9358 27.6808 45.6 27.5213L45.336 27.3959L38.9412 27.3719L32.5464 27.3479L32.8384 27.1079C32.999 26.9759 33.3944 26.5944 33.7171 26.2602C36.098 23.7941 37.4902 20.4219 37.4875 17.1275C37.4871 16.6198 37.473 16.5177 37.3739 16.3048C37.1403 15.8032 36.7586 15.5074 36.2353 15.4225C36.0364 15.3902 34.0855 15.3725 30.706 15.3723L25.4841 15.3719L25.5004 10.6319C25.5156 6.24781 25.5232 5.87024 25.6026 5.60389C25.9092 4.57477 26.7564 3.74787 27.7661 3.49232C28.129 3.40045 28.8311 3.40035 29.2202 3.49208C30.1692 3.71581 31.0552 4.5453 31.3479 5.48389C31.4013 5.65549 31.4646 6.01659 31.4885 6.28635C31.5442 6.91439 31.6587 7.18688 31.9966 7.49576C32.2979 7.77109 32.5895 7.88389 33 7.88389C33.4106 7.88389 33.7021 7.77109 34.0034 7.49576C34.392 7.14061 34.4884 6.88491 34.4818 6.22789C34.4595 4.03472 33.1375 1.98071 31.1164 0.999009C30.7109 0.802018 30.18 0.619137 29.712 0.515313C29.2286 0.408033 28.0271 0.379665 27.552 0.464289ZM13.6527 18.645C13.7606 19.4584 14.2039 20.7841 14.6722 21.6936C15.4832 23.2686 16.7303 24.6571 18.24 25.6658C19.1523 26.2753 20.5877 26.8862 21.6753 27.1276C23.1419 27.4532 24.8581 27.4532 26.3247 27.1276C27.4123 26.8862 28.8478 26.2753 29.76 25.6658C31.9607 24.1954 33.5408 21.9721 34.1685 19.4631C34.2459 19.1533 34.3246 18.7865 34.3432 18.6479L34.377 18.3959H23.9983H13.6196L13.6527 18.645ZM4.51201 37.8839V45.3719H13.512H22.512V37.8839V30.3959H13.512H4.51201V37.8839ZM25.488 37.8839V45.3719H34.488H43.488V37.8839V30.3959H34.488H25.488V37.8839ZM17.7203 33.4268C17.2476 33.5033 16.8514 33.8212 16.6262 34.3048L16.513 34.5479L16.5125 37.1193C16.512 40.0483 16.5019 39.9636 16.9001 40.3993C17.2158 40.7447 17.5224 40.8782 18 40.8782C18.6001 40.8782 19.0695 40.5884 19.352 40.0439L19.464 39.8279L19.4772 37.1948L19.4904 34.5618L19.3764 34.3126C19.2333 34.0002 19.0151 33.7493 18.7526 33.5954C18.5728 33.4901 18.4638 33.4588 18.072 33.3999C18.0192 33.392 17.861 33.4041 17.7203 33.4268ZM29.7203 33.4268C29.2476 33.5033 28.8514 33.8212 28.6262 34.3048L28.513 34.5479L28.5125 37.1193C28.512 40.0483 28.5019 39.9636 28.9001 40.3993C29.2158 40.7447 29.5224 40.8782 30 40.8782C30.4776 40.8782 30.7842 40.7447 31.0999 40.3993C31.4981 39.9636 31.4881 40.0483 31.4875 37.1193L31.4871 34.5479L31.3739 34.3048C31.2303 33.9966 31.0123 33.7477 30.7526 33.5954C30.5728 33.4901 30.4638 33.4588 30.072 33.3999C30.0192 33.392 29.861 33.4041 29.7203 33.4268Z"
         fill="#052E46" />
   </g>
   <defs>
      <clipPath id="clip0_238_4230">
         <rect width="48" height="48" fill="white" transform="translate(0 0.395996)" />
      </clipPath>
   </defs>
</svg>
   