<svg width="48" height="49" viewBox="0 0 48 49" fill="none" xmlns="http://www.w3.org/2000/svg">
   <g clip-path="url(#clip0_238_4221)">
      <path fill-rule="evenodd" clip-rule="evenodd"
         d="M19.3468 1.00125C19.0281 1.1236 18.6586 1.4777 18.5167 1.79675C18.4441 1.95976 18.4149 2.12584 18.4133 2.38403C18.4095 2.96541 18.5215 3.15031 19.4456 4.08962L20.2234 4.88003H16.1135C13.4248 4.88003 11.8328 4.89851 11.5097 4.93341C9.62878 5.13679 7.98747 6.29906 7.14982 8.02087C6.85049 8.63608 6.68734 9.25197 6.62197 10.0134C6.54449 10.9153 6.58112 20.6342 6.66291 20.8748C6.79625 21.2674 7.26685 21.7244 7.64581 21.8294C7.98435 21.9232 8.41342 21.8948 8.71021 21.7589C9.05701 21.6002 9.37582 21.267 9.50086 20.9328C9.59854 20.6718 9.59979 20.6016 9.60061 15.4262C9.60152 9.65426 9.59417 9.80805 9.89749 9.23507C10.2238 8.61861 10.9504 8.07434 11.6103 7.95199C11.7699 7.92237 13.4785 7.90403 16.0738 7.90403H20.2788L19.4531 8.73203C18.4958 9.69203 18.4153 9.82144 18.4153 10.4C18.4153 11.0207 18.7336 11.5119 19.3007 11.7664C19.5562 11.881 19.6402 11.8954 19.9606 11.8792C20.183 11.8679 20.4035 11.8252 20.5198 11.7709C20.7969 11.6416 25.1005 7.34685 25.2541 7.04642C25.3491 6.86056 25.3676 6.75304 25.3669 6.39203C25.3661 6.01763 25.3489 5.92802 25.2384 5.72003C25.1465 5.54709 24.4962 4.86789 22.9113 3.28955C20.8499 1.23655 20.6944 1.09264 20.434 0.997554C20.0801 0.868194 19.6898 0.869538 19.3468 1.00125ZM32.4718 0.948786C31.3871 1.19224 30.5277 1.94085 30.152 2.9693L30.0238 3.32003L30.0109 11.108L29.9981 18.896H29.1128C28.3362 18.896 28.1949 18.9082 27.963 18.995C27.0752 19.3271 26.7149 20.5177 27.2785 21.2566C27.4821 21.5236 27.7934 21.7581 28.0458 21.8347C28.2067 21.8836 30.1373 21.896 37.5358 21.896H46.8238L47.0984 21.7673C48.2774 21.2147 48.2989 19.6411 47.1358 19.0333C46.9371 18.9295 46.8517 18.9192 46.0688 18.9044L45.2178 18.8883L45.2048 11.1521L45.1918 3.41603L45.0799 3.08003C44.8128 2.27752 44.2237 1.57845 43.5238 1.23352C42.8176 0.885426 43.0301 0.897234 37.5598 0.901698C34.8583 0.903906 32.5777 0.924978 32.4718 0.948786ZM33.0238 11.408V18.896H37.6078H42.1918V17.4109V15.9257L39.7798 15.9109L37.3678 15.896L37.0964 15.7688C36.7746 15.6179 36.4998 15.3492 36.3369 15.0262C36.1604 14.6763 36.1656 14.1263 36.3488 13.7532C36.5187 13.4073 36.8217 13.1286 37.1695 12.9985C37.4356 12.899 37.5109 12.896 39.8176 12.896H42.1918V11.4109V9.9257L39.7798 9.91086L37.3678 9.89603L37.0964 9.76879C36.7746 9.61792 36.4998 9.34922 36.3369 9.02618C36.1604 8.67626 36.1656 8.12627 36.3488 7.75322C36.5187 7.40733 36.8217 7.12864 37.1695 6.99851C37.4356 6.89896 37.5109 6.89603 39.8176 6.89603H42.1918V5.40803V3.92003H37.6078H33.0238V11.408ZM43.7752 27.9384C43.458 28.0052 43.2203 28.1446 42.9911 28.3982C42.7663 28.647 42.6913 28.8008 42.6283 29.1418C42.5924 29.3359 42.5758 31.066 42.5758 34.6161C42.5758 40.2877 42.5893 39.9954 42.2996 40.568C42.0137 41.1333 41.2599 41.701 40.6174 41.835C40.4425 41.8715 38.9906 41.888 35.9656 41.888H31.5681L32.3459 41.0976C33.2704 40.1581 33.3839 39.9712 33.382 39.392C33.3805 38.9488 33.2519 38.6296 32.961 38.3473C32.6502 38.0458 32.3885 37.9314 31.9637 37.9116C31.2932 37.8803 31.3758 37.8163 28.8803 40.2994C27.2514 41.9202 26.6486 42.5503 26.5568 42.728C26.378 43.074 26.3546 43.5436 26.4969 43.928C26.5979 44.2009 26.7189 44.3318 28.7936 46.414C31.2138 48.8426 31.2284 48.8546 31.8229 48.8874C32.4259 48.9207 32.9792 48.5918 33.2508 48.0388C33.3631 47.8101 33.3835 47.7083 33.3823 47.384C33.38 46.8146 33.2918 46.671 32.3583 45.7185L31.5728 44.9169L36.1983 44.8992C41.2587 44.8798 41.0073 44.8933 41.9038 44.5915C43.4763 44.0622 44.8262 42.679 45.3305 41.0802C45.6043 40.2124 45.5998 40.3219 45.5998 34.4916C45.5998 29.1882 45.5986 29.1205 45.5009 28.8593C45.25 28.1888 44.4964 27.7866 43.7752 27.9384ZM11.9943 28.1754C11.8988 28.2111 11.7476 28.2921 11.6583 28.3555C11.5689 28.4189 9.91899 29.7887 7.99179 31.3995C6.06459 33.0103 4.40859 34.393 4.31177 34.4722C4.21496 34.5513 3.28947 35.326 2.25512 36.1937C0.968142 37.2734 0.331758 37.8388 0.239166 37.9847C-0.24333 38.7456 0.0427502 39.7482 0.85587 40.146C1.08406 40.2577 1.18861 40.2787 1.51155 40.2783C2.02141 40.2776 2.17793 40.1965 2.99657 39.5087C3.35571 39.2069 3.65993 38.96 3.67265 38.96C3.68537 38.96 3.69579 40.5269 3.69579 42.4421C3.69579 46.3672 3.69488 46.3553 4.04432 47.072C4.30333 47.6033 4.93544 48.2558 5.44779 48.5209C6.18176 48.9007 5.59659 48.8696 12.3118 48.8852C19.0495 48.9009 18.7369 48.9154 19.475 48.5529C20.2182 48.1878 20.8847 47.4229 21.154 46.6264L21.2872 46.232L21.3115 42.5906L21.3358 38.9492L22.0078 39.5132C22.8285 40.202 22.9787 40.2793 23.496 40.279C23.8191 40.2788 23.9239 40.2575 24.1548 40.1445C24.9577 39.7516 25.2431 38.7408 24.7626 37.9919C24.6591 37.8307 24.0815 37.3157 22.7689 36.2145C21.7524 35.3617 20.7929 34.5595 20.6366 34.4318C20.4802 34.304 18.7916 32.893 16.8841 31.2963C14.9765 29.6995 13.3201 28.3363 13.2031 28.2669C13.0266 28.1621 12.9207 28.1382 12.5792 28.1257C12.3161 28.1161 12.1052 28.134 11.9943 28.1754ZM9.60536 33.9798L6.72046 36.392L6.72013 41.0566C6.71984 45.2334 6.72766 45.729 6.7952 45.7966C6.86293 45.8643 7.44637 45.872 12.4998 45.872C17.8922 45.872 18.1323 45.8683 18.2084 45.7842C18.2812 45.7038 18.2876 45.3072 18.2862 41.0442L18.2846 36.392L15.4999 34.064C13.9683 32.7836 12.6646 31.6982 12.6027 31.6518L12.4903 31.5676L9.60536 33.9798Z"
         fill="#052E46" />
   </g>
   <defs>
      <clipPath id="clip0_238_4221">
         <rect width="48" height="48" fill="white" transform="translate(0 0.895996)" />
      </clipPath>
   </defs>
</svg>
   