<svg width="48" height="49" viewBox="0 0 48 49" fill="none" xmlns="http://www.w3.org/2000/svg">
   <g clip-path="url(#clip0_238_4270)">
      <path fill-rule="evenodd" clip-rule="evenodd"
         d="M23.3863 1.64911C22.9373 1.70134 22.2389 1.93409 21.8354 2.16603C21.3894 2.42244 0.519004 17.7357 0.363196 17.9208C0.0905562 18.2448 0.0246042 18.4354 0.0242202 18.9C0.0239322 19.2949 0.0367002 19.3547 0.172876 19.596C0.349564 19.9091 0.73366 20.2399 1.01916 20.3249C1.33683 20.4194 1.81078 20.4007 2.0695 20.2835C2.19137 20.2282 6.99732 16.7318 12.7494 12.5136C18.5014 8.29539 23.3049 4.79955 23.4237 4.74507C23.7231 4.60788 24.2767 4.60788 24.576 4.74507C24.6949 4.79955 29.4983 8.29539 35.2504 12.5136C41.0024 16.7318 45.8084 20.2282 45.9303 20.2835C46.0811 20.3518 46.2516 20.3842 46.4639 20.3848C47.2147 20.3871 47.583 20.1047 48.0086 19.2007C48.0661 19.0787 48.0585 18.5278 47.9999 18.564C47.9735 18.5803 47.9519 18.5592 47.9519 18.5169C47.9519 18.4099 47.7891 18.1021 47.6366 17.9208C47.4808 17.7357 26.6104 2.42244 26.1644 2.16603C25.7368 1.92022 25.0708 1.70575 24.5497 1.64604C24.0653 1.59055 23.8859 1.59103 23.3863 1.64911ZM37.0556 2.45638C36.6504 2.58127 36.2434 2.9659 36.0919 3.36713C36.0124 3.5778 35.9949 3.70951 36.0114 3.97519C36.0381 4.40753 36.181 4.70062 36.5134 5.00436C36.9406 5.39484 36.8855 5.38803 39.6068 5.38803H41.9966L42.0102 7.84803L42.0239 10.308L42.1431 10.5415C42.3051 10.8585 42.7052 11.2155 43.0135 11.3179C43.3783 11.4391 43.8738 11.3972 44.2043 11.2173C44.6369 10.9819 44.8952 10.6099 44.9783 10.1032C45.0426 9.71023 45.0372 3.99127 44.9722 3.63286C44.8853 3.15406 44.6045 2.77913 44.1599 2.5482L43.9439 2.43603L40.5599 2.42767C38.6987 2.42307 37.1217 2.43598 37.0556 2.45638ZM22.7999 15.9539C21.2454 16.1328 19.4823 16.7863 18.1199 17.6884C16.0437 19.0633 14.3964 21.3838 13.8023 23.7707C13.5612 24.7392 13.5135 25.1668 13.5127 26.364C13.5118 27.5962 13.5671 28.0765 13.8248 29.076C14.3502 31.114 15.6723 33.1626 17.3279 34.5039C17.8251 34.9067 18.4651 35.3317 19.0176 35.6261L19.4834 35.8742L19.4976 38.0671C19.5117 40.24 19.5129 40.2623 19.6227 40.5048C19.7526 40.7917 20.0479 41.0943 20.3519 41.252C20.6643 41.414 21.3355 41.414 21.6479 41.252C21.9519 41.0943 22.2472 40.7917 22.3771 40.5048L22.4879 40.26V37.38V34.5L22.361 34.236C22.1511 33.7993 21.8697 33.5643 21.3013 33.351C18.9583 32.4716 17.2334 30.4725 16.6503 27.9606C16.496 27.2956 16.4707 25.8938 16.5994 25.14C16.7298 24.3768 16.8933 23.8686 17.2327 23.172C17.5543 22.512 17.7617 22.1868 18.2278 21.612C19.2311 20.3746 20.837 19.4225 22.5599 19.0434C23.2643 18.8884 25.1717 18.9023 25.4339 19.0643C25.474 19.0891 25.0643 19.5103 24.1827 20.3507C23.4618 21.0379 22.6914 21.7581 22.4707 21.951C21.4761 22.8209 20.9623 23.9219 20.9603 25.188C20.9582 26.501 21.5258 27.6936 22.5421 28.5114C23.2457 29.0777 24.0355 29.3767 24.9474 29.4224C25.8389 29.467 26.5702 29.295 27.3251 28.863C27.7702 28.6084 28.0634 28.3555 28.5419 27.8133C28.7445 27.5838 29.4524 26.8283 30.1151 26.1345L31.3199 24.873L31.3855 25.1745C31.4274 25.3671 31.4526 25.8141 31.4551 26.412C31.4596 27.4729 31.3788 27.9922 31.0711 28.8816C30.7087 29.9287 30.1416 30.8263 29.3268 31.6422C28.5423 32.4277 27.7522 32.9325 26.5563 33.4122C26.105 33.5932 25.8116 33.8484 25.6265 34.2212L25.5119 34.452V37.356V40.26L25.6227 40.5048C25.7526 40.7917 26.0479 41.0943 26.3519 41.252C26.6643 41.414 27.3355 41.414 27.6479 41.252C27.9519 41.0943 28.2472 40.7917 28.3771 40.5048C28.4869 40.2622 28.488 40.24 28.5021 38.067L28.5164 35.8739L28.9699 35.6294C30.4011 34.8579 31.6534 33.7616 32.5735 32.4749C34.8086 29.349 35.1249 25.1363 33.3787 21.7515C33.1119 21.2344 32.9124 20.9998 32.5851 20.8185C32.3534 20.6901 32.2851 20.676 31.8959 20.676C31.5458 20.676 31.4227 20.6963 31.2465 20.7832C30.9576 20.9255 28.5171 23.386 26.609 25.4584C25.7968 26.3406 25.6778 26.4211 25.1862 26.4214C24.2881 26.422 23.7305 25.5512 24.0761 24.6875C24.1321 24.5475 24.2915 24.3672 24.6177 24.0751C25.1587 23.5904 27.6206 21.2347 28.7301 20.14C29.6461 19.2363 29.7321 19.0973 29.7344 18.516C29.7356 18.1914 29.7152 18.09 29.6024 17.8603C29.3862 17.4198 29.1283 17.2305 28.1023 16.7585C27.2774 16.379 26.0942 16.0616 25.0938 15.9514C24.5558 15.8921 23.3251 15.8935 22.7999 15.9539ZM0.0156282 18.9C0.0158682 19.0848 0.0245082 19.1545 0.0349242 19.055C0.0452922 18.9554 0.0451482 18.8042 0.0345402 18.719C0.0239322 18.6337 0.0154362 18.7152 0.0156282 18.9ZM7.0556 20.4546C6.64644 20.5868 6.24233 20.9676 6.09598 21.3588C5.99888 21.6184 5.99854 21.6636 6.01236 32.6437L6.02624 43.668L6.128 44.004C6.35105 44.7405 6.50912 45.0631 6.92076 45.622C7.46945 46.3668 8.31636 46.9432 9.32024 47.2548L9.67188 47.364L23.7839 47.3772C33.6085 47.3864 37.998 47.3748 38.2319 47.3392C39.907 47.0837 41.3159 45.8201 41.8434 44.1L41.9759 43.668V32.58V21.492L41.8649 21.2667C41.7313 20.9955 41.4281 20.6822 41.1623 20.5408C41.0028 20.4559 40.886 20.4371 40.5119 20.4367C40.1268 20.4361 40.0223 20.4535 39.8399 20.5482C39.3953 20.7791 39.1145 21.1541 39.0276 21.6329C38.9917 21.8307 38.9757 25.172 38.9754 32.5769L38.9749 43.236L38.8601 43.4827C38.627 43.9834 38.2401 44.2765 37.6944 44.3659C37.3177 44.4275 10.682 44.4275 10.3053 44.3659C9.75968 44.2765 9.3728 43.9834 9.13971 43.4827L9.02484 43.236L9.02436 32.5769C9.02403 25.172 9.00809 21.8307 8.97219 21.6329C8.88526 21.1541 8.60446 20.7791 8.15988 20.5483C7.99404 20.4621 7.8547 20.4337 7.55988 20.4259C7.34868 20.4203 7.12174 20.4332 7.0556 20.4546Z"
         fill="#052E46" />
   </g>
   <defs>
      <clipPath id="clip0_238_4270">
         <rect width="48" height="48" fill="white" transform="translate(0 0.395996)" />
      </clipPath>
   </defs>
</svg>
   