<svg width="48" height="49" viewBox="0 0 48 49" fill="none" xmlns="http://www.w3.org/2000/svg">
   <g clip-path="url(#clip0_238_4301)">
   <path fill-rule="evenodd" clip-rule="evenodd" d="M14.9421 0.494541C14.7845 0.556653 14.5629 0.712845 14.3421 0.917421C8.91644 5.94417 0.434797 13.8342 0.355693 13.9282C0.297469 13.9974 0.198974 14.1508 0.136909 14.269L0.0239655 14.4839V23.4119V32.3399L0.13403 32.5461C0.30371 32.8638 0.557869 33.1159 0.856237 33.2625L1.12797 33.3959L4.56995 33.4094L8.01198 33.4229L8.02595 35.4014L8.03997 37.3799L8.16803 37.5959C8.34357 37.892 8.61769 38.1459 8.90397 38.2775C9.13984 38.386 9.17704 38.3881 11.0744 38.4024L13.0049 38.4169L13.0184 40.3704C13.0319 42.3106 13.0327 42.3254 13.144 42.5399C13.3017 42.8439 13.6043 43.1392 13.8912 43.2691C14.132 43.3781 14.1676 43.3801 16.068 43.394L18 43.408L18 45.314L18.0001 47.2199L18.1383 47.5079C18.3066 47.8585 18.561 48.11 18.912 48.2726L19.176 48.3949L33 48.3954L46.824 48.3958L47.112 48.2576C47.465 48.0881 47.717 47.8322 47.8739 47.4839L47.9928 47.2199L48.0119 30.8999C48.0224 21.9239 48.024 18.4031 48.0154 23.0758L47.9997 31.5717L47.8615 31.2838C47.6933 30.9333 47.4389 30.6818 47.088 30.5192L46.824 30.3969L44.412 30.3964L42 30.3959V24.9959C42 21.229 42.0153 19.5959 42.0508 19.5959C42.0787 19.5959 42.3582 19.6607 42.672 19.7399C43.4343 19.9324 43.761 19.9317 44.1509 19.7368C44.8555 19.3847 45.1668 18.6119 44.9013 17.8736C44.7972 17.5838 44.4601 17.1953 44.1954 17.0598C44.0961 17.009 40.9158 16.1928 37.1281 15.246L30.2412 13.5246L23.3058 7.08513C18.4166 2.54544 16.3028 0.612573 16.1412 0.533517C15.8201 0.376461 15.2858 0.359085 14.9421 0.494541ZM9.22797 9.77164L3.02397 15.5398V22.9669V30.394L6.46797 30.407L9.91197 30.4199L10.1299 30.5273C10.412 30.6664 10.7208 30.9743 10.8587 31.2541C10.9662 31.4723 10.9682 31.5073 10.9815 33.4294L10.995 35.383L12.9495 35.3974L14.904 35.4119L15.1302 35.5275C15.4058 35.6684 15.7181 35.9694 15.8569 36.2279C15.9568 36.414 15.9604 36.4801 15.974 38.3974L15.9879 40.3749L17.918 40.3894L19.848 40.4039L20.112 40.5293C20.4478 40.6888 20.715 40.9561 20.8745 41.2919L21 41.5559L21.0154 43.4639L21.0308 45.3719H33.0034H44.976V39.3959V33.4199L32.268 33.4195C23.871 33.4193 19.4577 33.4026 19.2586 33.3703C18.4887 33.2453 17.9632 32.5839 18.0077 31.7959C18.0373 31.2712 18.3632 30.7863 18.8552 30.5348L19.08 30.4199L23.532 30.4072L27.984 30.3945L27.9829 22.9672L27.9817 15.5399L21.7632 9.7679C18.3429 6.59328 15.5192 3.99763 15.4883 3.99969C15.4573 4.00176 12.6401 6.59918 9.22797 9.77164ZM0.0239655 23.4119C0.0239655 28.2695 0.0291015 30.2638 0.0359655 27.8437C0.0428295 25.4236 0.0428295 21.4492 0.0359655 19.0117C0.0291015 16.5742 0.0239655 18.5543 0.0239655 23.4119ZM31.008 23.6099V30.3959H34.9922H38.9763L38.9642 24.6029L38.952 18.8099L34.98 17.8168L31.008 16.8238V23.6099Z" fill="#052E46"/>
   </g>
   <defs>
   <clipPath id="clip0_238_4301">
   <rect width="48" height="48" fill="white" transform="translate(0 0.395996)"/>
   </clipPath>
   </defs>
   </svg>
   