<svg width="48" height="49" viewBox="0 0 48 49" fill="none" xmlns="http://www.w3.org/2000/svg">
   <g clip-path="url(#clip0_238_4261)">
      <path fill-rule="evenodd" clip-rule="evenodd"
         d="M7.87724 0.449969C7.48297 0.515825 6.79038 0.762257 6.46724 0.951617C5.27881 1.64815 4.47078 2.76645 4.24993 4.0204C4.20812 4.25781 3.92675 7.00086 3.62468 10.1161C3.32262 13.2313 3.04844 15.9421 3.01532 16.1401C2.9822 16.3381 2.95888 16.5541 2.96348 16.6201C2.97692 16.8137 1.72912 29.4915 1.67848 29.6761C1.65308 29.7685 1.63225 29.9805 1.63211 30.1473C1.63196 30.3141 1.30633 33.7593 0.908508 37.8033C0.118764 45.8316 0.113052 45.9178 0.333468 46.4907C0.488268 46.8929 0.863052 47.4277 1.15936 47.6689C1.52785 47.9688 1.74097 48.0828 2.25563 48.2548C2.63699 48.3824 2.76256 48.4036 3.0244 48.3849C3.61475 48.3426 4.12038 47.9964 4.37502 47.4601C4.52723 47.1394 4.55857 46.7153 4.45552 46.3712C4.3828 46.1285 4.46396 45.4826 4.637 44.9276C5.0679 43.5453 6.17694 42.4341 7.56097 41.9979C8.71168 41.6352 9.83161 41.7197 10.9198 42.2511C12.2139 42.8831 13.1171 44.0619 13.3691 45.4478C13.5084 46.2136 13.5879 46.4937 13.7575 46.8165C14.0919 47.4528 14.7187 47.9901 15.4234 48.2445C15.7371 48.3578 15.8342 48.369 16.5118 48.3704C17.3164 48.3722 17.5448 48.3316 18.0002 48.1056C18.6233 47.7964 19.154 47.2671 19.4234 46.686C19.4861 46.5506 19.602 46.188 19.6808 45.8802C19.9062 45 20.1368 44.52 20.617 43.9321C22.1879 42.0083 25.0506 41.7493 26.9689 43.3573C27.7193 43.9864 28.2059 44.7903 28.4644 45.8281C28.671 46.6576 28.8709 47.0381 29.3469 47.5083C30.0014 48.1548 30.6158 48.3961 31.6078 48.3961C32.5084 48.3961 33.1626 48.1651 33.7457 47.6416C34.3255 47.1209 34.5895 46.597 34.7535 45.6421C34.9254 44.6401 35.3039 43.8687 35.9579 43.1875C36.6721 42.4436 37.4647 42.021 38.4771 41.8445C40.4103 41.5074 42.362 42.4992 43.2463 44.2681C43.625 45.0256 43.8323 45.9992 43.6768 46.2898C43.5624 46.5034 43.5293 46.9524 43.6059 47.2513C43.9583 48.6268 45.7344 48.7968 46.9505 47.5713C47.4959 47.0217 47.7825 46.4304 47.8364 45.7437C47.8566 45.486 47.6757 43.5015 47.1374 38.0761C46.7379 34.0501 46.3928 30.5293 46.3705 30.2521C46.3482 29.9749 46.0383 26.8213 45.6819 23.2441C45.3255 19.6669 45.0324 16.6367 45.0305 16.5102C45.0287 16.3839 45.0166 16.2632 45.0035 16.242C44.9905 16.2209 44.7192 13.5595 44.4006 10.3278C44.0821 7.09614 43.7894 4.26179 43.7502 4.02928C43.4792 2.42248 42.253 1.07843 40.58 0.554225L40.1518 0.420065L24.1438 0.413441C14.8505 0.409553 8.02739 0.424913 7.87724 0.449969ZM8.11206 3.50378C7.82872 3.60376 7.39192 4.04171 7.28027 4.33783C7.21988 4.49795 7.09292 5.61151 6.82331 8.34583C6.61796 10.4283 6.45251 12.1369 6.45568 12.1429C6.45884 12.1488 6.75174 12.0071 7.1066 11.828C8.58928 11.0798 9.83147 10.8397 11.8318 10.9146C12.768 10.9497 13.3623 11.0555 14.2126 11.3386C14.7367 11.5131 15.4643 11.8506 15.9238 12.1324C16.0603 12.2161 16.128 12.2368 16.1283 12.1948C16.1286 12.1603 16.1932 10.2421 16.2718 7.93207C16.3504 5.62207 16.415 3.66184 16.4153 3.57607L16.4158 3.42006L12.3718 3.42386C8.80878 3.42722 8.30214 3.43672 8.11206 3.50378ZM19.4203 4.03206C19.3657 5.13914 19.1444 12.1167 19.1634 12.1357C19.1736 12.1458 19.4506 12.0184 19.7789 11.8524C20.4682 11.5038 21.3479 11.1998 22.1038 11.0489C22.7663 10.9166 24.4825 10.865 25.2549 10.9541C26.2693 11.0712 27.2663 11.3718 28.2138 11.8465C28.5479 12.0138 28.8287 12.1432 28.838 12.1339C28.8557 12.1162 28.6311 5.08019 28.5793 4.03206L28.5491 3.42006H23.9998H19.4505L19.4203 4.03206ZM31.5843 3.57607C31.5846 3.66184 31.6492 5.62207 31.7278 7.93207C31.8064 10.2421 31.871 12.1603 31.8713 12.1948C31.8716 12.2368 31.9393 12.2162 32.0758 12.1324C33.0184 11.5546 34.1916 11.1369 35.3206 10.9771C35.9163 10.8929 37.475 10.8804 38.0882 10.955C39.065 11.0738 40.0508 11.3864 40.9864 11.874C41.2871 12.0306 41.5375 12.1528 41.5429 12.1455C41.5484 12.1381 41.3853 10.4422 41.1805 8.37693C40.9249 5.79933 40.7818 4.54259 40.7243 4.36936C40.6642 4.18864 40.5643 4.04095 40.3721 3.84899C39.9147 3.39208 40.2256 3.42006 35.6073 3.42006H31.5838L31.5843 3.57607ZM10.3226 13.9345C8.63281 14.1463 7.02764 15.1876 6.14886 16.642L5.9859 16.9117L5.5622 21.2179C5.32916 23.5863 5.13788 25.5849 5.13716 25.6593L5.13582 25.7946L5.26782 25.7012C5.53518 25.5121 6.47204 25.0753 7.02539 24.8816C7.33864 24.772 7.86784 24.6236 8.20139 24.5519C8.79049 24.4251 8.85169 24.4214 10.3438 24.4221C11.8385 24.4229 11.8966 24.4265 12.5038 24.5559C13.564 24.7818 14.5392 25.1547 15.3306 25.6369C15.5126 25.7477 15.6658 25.8325 15.6711 25.8252C15.6763 25.818 15.7513 23.6582 15.8376 21.0257L15.9945 16.2395L15.8231 16.006C15.5761 15.6695 14.9591 15.0955 14.5586 14.8296C13.9671 14.4369 13.287 14.1571 12.5518 14.0041C12.0953 13.9091 10.8385 13.8699 10.3226 13.9345ZM23.3278 13.9144C21.9421 14.0456 20.5835 14.6696 19.6317 15.6121C19.4318 15.8101 19.2098 16.0494 19.1384 16.144L19.0086 16.316L18.8658 20.656C18.7873 23.043 18.7155 25.1726 18.7062 25.3883L18.6894 25.7804L19.1726 25.5248C20.094 25.0373 21.0543 24.7096 22.1278 24.5161C22.7334 24.407 24.5656 24.3634 25.305 24.4406C26.4628 24.5615 27.5684 24.8887 28.6347 25.4262L29.3095 25.7664L29.293 25.3812C29.2839 25.1694 29.212 23.0328 29.133 20.6333L28.9895 16.2706L28.7993 16.0434C27.9323 15.0079 26.6543 14.2654 25.2923 14.0059C24.8892 13.9291 23.7383 13.8755 23.3278 13.9144ZM35.9038 13.9346C35.0842 14.037 34.2531 14.3296 33.5624 14.7586C33.1557 15.0112 32.4354 15.6481 32.1527 16.0051L32.0039 16.193L32.1614 21.0025C32.248 23.6478 32.3233 25.818 32.3285 25.8252C32.3338 25.8325 32.487 25.7477 32.669 25.6369C33.4604 25.1547 34.4356 24.7818 35.4958 24.5559C36.103 24.4265 36.1611 24.4229 37.6558 24.4221C39.1479 24.4214 39.2091 24.4251 39.7983 24.5519C40.1318 24.6236 40.661 24.772 40.9743 24.8816C41.5301 25.0761 42.4648 25.5124 42.7346 25.7032C42.8087 25.7556 42.8756 25.7908 42.8833 25.7813C42.891 25.7718 42.7004 23.7754 42.4598 21.3449L42.0222 16.9257L41.8551 16.649C41.057 15.3284 39.7183 14.3771 38.1598 14.0234C37.6783 13.9141 36.4532 13.8659 35.9038 13.9346ZM9.40782 27.423C7.60187 27.5794 5.79347 28.6807 4.78921 30.2356C4.66124 30.4338 4.65692 30.4702 4.15408 35.5957C3.87563 38.434 3.64782 40.792 3.64782 40.8357C3.64782 40.8891 3.77008 40.8103 4.01982 40.5959C5.10832 39.6615 6.41987 39.0627 7.87182 38.8372C8.37798 38.7585 9.54457 38.7605 10.0521 38.8409C11.344 39.0455 12.495 39.5383 13.5348 40.3321C13.9509 40.6497 14.6467 41.3433 14.923 41.716L15.1128 41.9719L15.1379 41.764C15.1517 41.6496 15.2399 39.1153 15.3338 36.1321C15.4277 33.1489 15.5177 30.4884 15.5337 30.2198L15.5628 29.7316L15.0653 29.2319C14.1368 28.2993 13.0495 27.725 11.7813 27.4971C11.3267 27.4155 9.98041 27.3734 9.40782 27.423ZM37.0558 27.4196C36.0602 27.4685 35.511 27.6011 34.6771 27.9935C33.9834 28.3199 33.5013 28.6624 32.9353 29.231L32.4387 29.7297L32.4681 30.2669C32.4842 30.5623 32.5727 33.1693 32.6647 36.0601C32.7567 38.9509 32.8446 41.5143 32.8601 41.7565L32.8883 42.197L33.2381 41.7325C33.8889 40.8686 34.7777 40.1231 35.7598 39.6174C38.1361 38.3938 40.8485 38.4903 43.1628 39.8807C43.5102 40.0894 43.9704 40.4264 44.1958 40.6371L44.3518 40.7829L44.351 40.6415C44.3505 40.5637 44.1268 38.2417 43.8539 35.4815L43.3576 30.4629L43.2199 30.2495C42.6197 29.3194 41.7076 28.5187 40.6798 28.0196C39.5976 27.4941 38.6681 27.3402 37.0558 27.4196ZM22.5838 27.496C21.6557 27.6585 20.5048 28.1505 19.7416 28.7109C19.5249 28.8701 19.1754 29.1724 18.9651 29.3828C18.6303 29.7176 18.5796 29.7909 18.5577 29.9726C18.5439 30.0867 18.4554 32.6209 18.361 35.6041C18.2667 38.5873 18.1778 41.2873 18.1635 41.6041L18.1377 42.1801L18.2399 42.0601C18.7423 41.4701 19.4919 40.8147 20.1231 40.4132C21.418 39.5897 23.1486 39.1742 24.6922 39.3162C25.6946 39.4085 26.3849 39.5933 27.2638 40.0047C28.1178 40.4044 28.7876 40.8815 29.4597 41.5688L29.8556 41.9736L29.8265 41.2609C29.8106 40.8688 29.7179 38.1372 29.6206 35.1906L29.4438 29.8333L29.2414 29.5915C28.7903 29.0527 27.8452 28.3604 27.0915 28.0167C26.621 27.8021 25.9039 27.5785 25.41 27.4924C24.869 27.398 23.1303 27.4002 22.5838 27.496Z"
         fill="#052E46" />
   </g>
   <defs>
      <clipPath id="clip0_238_4261">
         <rect width="48" height="48" fill="white" transform="translate(0 0.395996)" />
      </clipPath>
   </defs>
</svg>
   