<svg width="128.000000" height="102.399902" viewBox="0 0 128 102.4" fill="none"
   xmlns="http://www.w3.org/2000/svg" xmlns:xlink="http://www.w3.org/1999/xlink">
   <defs />
   <rect id="Play Button" rx="0.000000" width="127.000000" height="101.400002"
      transform="translate(0.500000 0.500000)" fill="#FFFFFF" fill-opacity="0" />
   <path id="Vector"
      d="M12.79 0L115.2 0C122.27 0 128 5.73 128 12.8L128 89.6C128 96.66 122.27 102.4 115.2 102.4L12.79 102.4C5.73 102.4 0 96.66 0 89.6L0 12.8C0 5.73 5.73 0 12.79 0ZM58.68 71.8L83.58 55.16C84.92 54.29 85.73 52.8 85.73 51.2C85.73 49.59 84.92 48.1 83.58 47.23L58.68 30.59C57.21 29.59 55.32 29.49 53.75 30.32C52.18 31.15 51.2 32.78 51.2 34.56L51.2 67.84C51.2 69.61 52.18 71.24 53.75 72.07C55.32 72.9 57.21 72.8 58.68 71.8Z"
      fill="#FFFFFF" fill-opacity="1.000000" fill-rule="evenodd" />
</svg>