<svg width="25" height="24" viewBox="0 0 25 24" fill="none" xmlns="http://www.w3.org/2000/svg">
   <g clip-path="url(#clip0_238_3848)">
      <path
         d="M13.667 1.00001C13.667 0.734794 13.7723 0.48044 13.9599 0.292903C14.1474 0.105367 14.4018 1.00539e-05 14.667 1.00539e-05C17.3182 0.00292165 19.8601 1.05743 21.7348 2.93216C23.6096 4.80689 24.6641 7.34874 24.667 10C24.667 10.2652 24.5616 10.5196 24.3741 10.7071C24.1865 10.8947 23.9322 11 23.667 11C23.4018 11 23.1474 10.8947 22.9599 10.7071C22.7723 10.5196 22.667 10.2652 22.667 10C22.6646 7.87901 21.821 5.84556 20.3212 4.34579C18.8214 2.84601 16.788 2.00239 14.667 2.00001C14.4018 2.00001 14.1474 1.89465 13.9599 1.70712C13.7723 1.51958 13.667 1.26523 13.667 1.00001ZM14.667 6.00001C15.7278 6.00001 16.7453 6.42144 17.4954 7.17158C18.2455 7.92173 18.667 8.93915 18.667 10C18.667 10.2652 18.7723 10.5196 18.9599 10.7071C19.1474 10.8947 19.4018 11 19.667 11C19.9322 11 20.1865 10.8947 20.3741 10.7071C20.5616 10.5196 20.667 10.2652 20.667 10C20.6654 8.4092 20.0327 6.884 18.9079 5.75912C17.783 4.63425 16.2578 4.0016 14.667 4.00001C14.4018 4.00001 14.1474 4.10537 13.9599 4.2929C13.7723 4.48044 13.667 4.73479 13.667 5.00001C13.667 5.26523 13.7723 5.51958 13.9599 5.70712C14.1474 5.89465 14.4018 6.00001 14.667 6.00001ZM23.76 16.739C24.3395 17.3201 24.6649 18.1073 24.6649 18.928C24.6649 19.7487 24.3395 20.5359 23.76 21.117L22.85 22.166C14.66 30.007 -5.27002 10.082 2.44998 1.86601L3.59998 0.86601C4.18175 0.302687 4.96191 -0.00894087 5.77168 -0.0014551C6.58145 0.00603066 7.35572 0.332028 7.92698 0.90601C7.95798 0.93701 9.81098 3.34401 9.81098 3.34401C10.3608 3.92164 10.6669 4.68894 10.6656 5.48641C10.6643 6.28389 10.3557 7.05018 9.80398 7.62601L8.64598 9.08201C9.28683 10.6391 10.229 12.0543 11.4185 13.2461C12.6079 14.438 14.0212 15.383 15.577 16.027L17.042 14.862C17.6179 14.3107 18.384 14.0025 19.1813 14.0014C19.9785 14.0003 20.7455 14.3063 21.323 14.856C21.323 14.856 23.729 16.708 23.76 16.739ZM22.384 18.193C22.384 18.193 19.991 16.352 19.96 16.321C19.754 16.1167 19.4756 16.0021 19.1855 16.0021C18.8954 16.0021 18.617 16.1167 18.411 16.321C18.384 16.349 16.367 17.956 16.367 17.956C16.2311 18.0642 16.0693 18.1351 15.8976 18.1618C15.726 18.1884 15.5503 18.1699 15.388 18.108C13.3724 17.3576 11.5417 16.1827 10.0198 14.6631C8.49791 13.1434 7.32038 11.3144 6.56698 9.30001C6.50018 9.13547 6.4784 8.9561 6.50388 8.78035C6.52937 8.6046 6.60119 8.43881 6.71198 8.30001C6.71198 8.30001 8.31898 6.28201 8.34598 6.25601C8.55025 6.05 8.66486 5.77163 8.66486 5.48151C8.66486 5.19139 8.55025 4.91302 8.34598 4.70701C8.31498 4.67701 6.47398 2.28201 6.47398 2.28201C6.26488 2.09452 5.99198 1.99411 5.71123 2.00136C5.43047 2.00861 5.16312 2.12297 4.96398 2.32101L3.81398 3.32101C-1.82802 10.105 15.443 26.418 21.388 20.8L22.299 19.75C22.5125 19.5523 22.6407 19.2793 22.6565 18.9887C22.6724 18.6982 22.5747 18.4128 22.384 18.193Z"
         fill="#052E46" />
   </g>
   <defs>
      <clipPath id="clip0_238_3848">
         <rect width="24" height="24" fill="white" transform="translate(0.666992)" />
      </clipPath>
   </defs>
</svg>
   