<svg width="25" height="24" viewBox="0 0 25 24" fill="none" xmlns="http://www.w3.org/2000/svg">
   <g clip-path="url(#clip0_238_3854)">
      <path
         d="M12.334 6C11.5429 6 10.7695 6.2346 10.1117 6.67412C9.45391 7.11365 8.94122 7.73836 8.63847 8.46927C8.33572 9.20017 8.2565 10.0044 8.41085 10.7804C8.56519 11.5563 8.94615 12.269 9.50556 12.8284C10.065 13.3878 10.7777 13.7688 11.5536 13.9231C12.3295 14.0775 13.1338 13.9983 13.8647 13.6955C14.5956 13.3928 15.2203 12.8801 15.6599 12.2223C16.0994 11.5645 16.334 10.7911 16.334 10C16.334 8.93913 15.9126 7.92172 15.1624 7.17157C14.4123 6.42143 13.3949 6 12.334 6ZM12.334 12C11.9384 12 11.5517 11.8827 11.2228 11.6629C10.8939 11.4432 10.6376 11.1308 10.4862 10.7654C10.3349 10.3999 10.2952 9.99778 10.3724 9.60982C10.4496 9.22186 10.6401 8.86549 10.9198 8.58579C11.1995 8.30608 11.5558 8.1156 11.9438 8.03843C12.3318 7.96126 12.7339 8.00087 13.0994 8.15224C13.4648 8.30362 13.7772 8.55996 13.9969 8.88886C14.2167 9.21776 14.334 9.60444 14.334 10C14.334 10.5304 14.1233 11.0391 13.7482 11.4142C13.3731 11.7893 12.8644 12 12.334 12Z"
         fill="#052E46" />
      <path
         d="M12.3343 24.0001C11.4922 24.0044 10.6614 23.8069 9.91136 23.4241C9.16132 23.0413 8.51389 22.4844 8.0233 21.8C4.2123 16.543 2.2793 12.591 2.2793 10.053C2.2793 7.3863 3.33866 4.82877 5.22434 2.94309C7.11002 1.05741 9.66755 -0.00195312 12.3343 -0.00195312C15.001 -0.00195312 17.5586 1.05741 19.4443 2.94309C21.3299 4.82877 22.3893 7.3863 22.3893 10.053C22.3893 12.591 20.4563 16.543 16.6453 21.8C16.1547 22.4844 15.5073 23.0413 14.7572 23.4241C14.0072 23.8069 13.1764 24.0044 12.3343 24.0001ZM12.3343 2.18105C10.2467 2.18343 8.24531 3.01377 6.76917 4.48992C5.29302 5.96606 4.46268 7.96746 4.4603 10.055C4.4603 12.065 6.3533 15.782 9.7893 20.521C10.081 20.9228 10.4637 21.2498 10.906 21.4753C11.3484 21.7008 11.8378 21.8183 12.3343 21.8183C12.8308 21.8183 13.3202 21.7008 13.7626 21.4753C14.2049 21.2498 14.5876 20.9228 14.8793 20.521C18.3153 15.782 20.2083 12.065 20.2083 10.055C20.2059 7.96746 19.3756 5.96606 17.8994 4.48992C16.4233 3.01377 14.4219 2.18343 12.3343 2.18105Z"
         fill="#052E46" />
   </g>
   <defs>
      <clipPath id="clip0_238_3854">
         <rect width="24" height="24" fill="white" transform="translate(0.333984)" />
      </clipPath>
   </defs>
</svg>
   