<svg width="48" height="49" viewBox="0 0 48 49" fill="none" xmlns="http://www.w3.org/2000/svg">
   <path fill-rule="evenodd" clip-rule="evenodd" d="M31.0197 0.969882C30.6216 1.12598 30.3169 1.39823 30.1238 1.77014C30.0128 1.98412 30.0116 2.00342 29.9981 3.85027L29.9845 5.71439L30.1086 5.98627C30.2716 6.34319 30.5213 6.59764 30.8757 6.7678C31.752 7.18852 32.8036 6.6238 32.9621 5.64748C32.989 5.48174 33.011 4.69814 33.011 3.90614C33.011 3.11414 32.989 2.33054 32.9621 2.16479C32.8422 1.42574 32.215 0.900618 31.4632 0.909786C31.2985 0.911802 31.0989 0.938826 31.0197 0.969882ZM20.6239 5.32339C19.6534 5.48433 19.0898 6.59054 19.5362 7.45814C19.6244 7.6295 20.028 8.06351 20.9477 8.97575C22.4096 10.4258 22.4259 10.4367 23.0914 10.4026C23.4951 10.382 23.7652 10.2615 24.0689 9.96686C24.3585 9.68587 24.486 9.36652 24.486 8.92214C24.486 8.30395 24.4499 8.25302 22.9655 6.77697C21.8864 5.70388 21.6222 5.46547 21.4437 5.40364C21.1584 5.30476 20.8928 5.27879 20.6239 5.32339ZM41.8056 5.329C41.6521 5.35372 41.4524 5.43431 41.3016 5.53228C41.1641 5.62156 40.5287 6.22204 39.8895 6.86663C38.5145 8.25326 38.4581 8.33904 38.4937 8.98703C38.5185 9.43929 38.6235 9.68596 38.9157 9.97814C39.2079 10.2703 39.4546 10.3753 39.9068 10.4002C40.5591 10.436 40.6364 10.3844 42.0723 8.95622C43.4925 7.54363 43.5822 7.41489 43.5797 6.79233C43.578 6.34843 43.4749 6.09177 43.1654 5.76086C42.817 5.38843 42.3524 5.24087 41.8056 5.329ZM30.5183 8.44924C29.3298 8.57337 27.9595 9.03196 26.9157 9.65505C25.3403 10.5954 24.1874 11.8539 23.3877 13.5061C22.7719 14.7785 22.4997 15.9674 22.4997 17.3855C22.4997 19.4792 23.1464 21.3539 24.4375 23.0029C24.9888 23.707 26.0382 24.6445 26.7384 25.0585L26.9555 25.1868L26.9716 26.7145L26.9877 28.2421L27.1122 28.5061C27.2628 28.8252 27.5426 29.1137 27.858 29.2748C28.0795 29.3879 28.1413 29.395 29.0397 29.4105L29.9877 29.4268V31.054C29.9877 32.5342 29.9959 32.7027 30.0786 32.9202C30.3376 33.602 31.0223 33.9964 31.7463 33.8809C32.2251 33.8046 32.6626 33.4616 32.8774 32.9941C32.9846 32.7609 32.9882 32.7074 33.0035 31.0905L33.0193 29.4269L33.9395 29.4105C34.8326 29.3946 34.8677 29.3902 35.1314 29.2607C35.4298 29.1142 35.684 28.8621 35.8537 28.5443C35.9603 28.3445 35.9644 28.2897 35.9877 26.7705L36.0117 25.2029L36.4437 24.918C37.5075 24.2166 38.2487 23.4778 38.9845 22.3854C40.7328 19.7901 40.974 16.4093 39.6148 13.55C38.5601 11.3312 36.6327 9.62735 34.3077 8.85854C33.1134 8.46359 31.7701 8.31849 30.5183 8.44924ZM30.5877 11.4714C29.7378 11.5938 28.613 12.0761 27.8744 12.6349C26.5169 13.6617 25.7259 15.0909 25.5207 16.8873C25.3323 18.5362 26.0195 20.4187 27.2587 21.6486C27.7228 22.1093 28.2514 22.4799 28.9207 22.814C29.4209 23.0637 29.6768 23.2911 29.8474 23.6378C29.9601 23.8668 29.9642 23.913 29.9786 25.1341L29.9935 26.3941H31.4739H32.9543L32.9723 25.1581C32.9887 24.0246 32.9986 23.9038 33.0915 23.7003C33.2643 23.322 33.5005 23.1107 34.1067 22.7924C35.4197 22.1027 36.2256 21.2936 36.8538 20.0341C37.6533 18.4316 37.679 16.5251 36.9232 14.8931C36.2246 13.3847 34.869 12.1866 33.3237 11.7118C32.448 11.4428 31.4157 11.352 30.5877 11.4714ZM3.87572 12.9381C2.00727 13.232 0.565831 14.5403 0.103159 16.3621C0.0142628 16.7121 0.0117188 17.1167 0.0117188 30.9061C0.0117188 44.7034 0.0142147 45.1 0.103303 45.4501C0.526903 47.1157 1.77817 48.367 3.44372 48.7906C3.79489 48.8799 4.26332 48.8821 22.4997 48.8821H41.1957L41.5876 48.7775C43.2472 48.3343 44.4975 47.0414 44.8983 45.3541C44.9786 45.016 44.9848 44.3857 44.9998 34.9861C45.0161 24.7641 45.013 24.5615 44.8369 24.2209C44.6988 23.9539 44.3931 23.6737 44.093 23.539C43.8299 23.4209 43.7568 23.4091 43.4091 23.4282C42.956 23.4531 42.7313 23.5499 42.4322 23.8489C42.323 23.9581 42.1838 24.1488 42.1227 24.2728L42.0117 24.4981L41.9992 30.7021L41.9867 36.9061H38.0997C34.4023 36.9061 34.2011 36.9106 33.9736 36.997C33.1332 37.3163 32.7423 38.3114 33.1485 39.0977C33.2813 39.3548 33.6152 39.6651 33.8997 39.7958L34.1397 39.9061L38.0658 39.92L41.9918 39.9338L41.9778 42.344L41.9637 44.7541L41.8494 45.0071C41.7058 45.3248 41.3048 45.7001 40.9969 45.805C40.792 45.8748 39.8373 45.8821 30.894 45.8821H21.0174L21.0026 43.4701C20.9878 41.0708 20.9871 41.0569 20.8774 40.8181C20.6626 40.3507 20.2251 40.0077 19.7463 39.9313C19.0223 39.8159 18.3376 40.2103 18.0786 40.8921C17.9939 41.115 17.9877 41.2922 17.9877 43.5067V45.8821H15.7328H13.4779L13.4648 41.9101C13.4517 37.939 13.4517 37.9381 13.3476 37.7437C13.205 37.4774 12.8918 37.1745 12.6211 37.0412L12.3957 36.9301L7.70372 36.9175L3.01172 36.9047V34.6495V32.3941H10.4997H17.9877L17.9878 34.0621L17.9878 35.7301L18.1261 36.0181C18.3878 36.5634 18.9022 36.9048 19.4632 36.9057C20.2201 36.9069 20.8425 36.3845 20.9621 35.6475C21.0297 35.2308 21.0273 31.008 20.9593 30.6399C20.9304 30.4838 20.8752 30.295 20.8365 30.2202C20.7041 29.9642 20.4116 29.6911 20.1237 29.5547L19.8357 29.4182L11.4237 29.4182L3.01172 29.4181V27.1621V24.9061H5.38719C7.60162 24.9061 7.77889 24.9 8.0018 24.8153C8.68354 24.5563 9.07796 23.8715 8.96252 23.1476C8.8862 22.6688 8.54319 22.2313 8.07572 22.0164C7.83697 21.9067 7.82314 21.906 5.42209 21.8913L3.00841 21.8765L3.02209 19.4193C3.03572 16.9624 3.03572 16.9621 3.14569 16.7562C3.28623 16.493 3.57462 16.2046 3.83775 16.0641L4.04372 15.9541L7.42772 15.927C9.28892 15.9121 10.8657 15.8813 10.9317 15.8587C11.1633 15.7791 11.5062 15.5379 11.6554 15.3495C12.2699 14.5737 12.0062 13.4796 11.0997 13.0445L10.8117 12.9062L7.40372 12.9127C5.52932 12.9163 3.94172 12.9277 3.87572 12.9381ZM16.2079 15.9288C15.9037 15.9828 15.647 16.1254 15.413 16.3702C15.1645 16.6301 15.0653 16.825 15.0107 17.1603C14.8948 17.8722 15.2931 18.5567 15.9736 18.8153C16.1926 18.8985 16.3625 18.9061 17.9877 18.9061C19.613 18.9061 19.7829 18.8985 20.0018 18.8153C20.6835 18.5563 21.078 17.8715 20.9625 17.1476C20.8862 16.6688 20.5432 16.2313 20.0757 16.0164C19.8409 15.9085 19.799 15.9059 18.1317 15.8979C17.1945 15.8935 16.3288 15.9073 16.2079 15.9288ZM43.2015 15.9351C42.8935 15.9865 42.5204 16.2098 42.3201 16.4627C41.7056 17.2386 41.9693 18.3326 42.8757 18.7678L43.1637 18.906H44.9877H46.8117L47.0997 18.7678C47.645 18.506 47.9864 17.9917 47.9872 17.4307C47.9884 16.6737 47.4661 16.0513 46.7291 15.9318C46.3679 15.8732 43.5569 15.8758 43.2015 15.9351ZM3.01172 42.3043C3.01172 44.5938 3.01527 44.6881 3.11185 44.9462C3.24548 45.3034 3.5905 45.6484 3.94767 45.782C4.20898 45.8798 4.28953 45.8821 7.35754 45.8821H10.4997V42.9061V39.9301H6.75572H3.01172V42.3043Z" fill="#052E46"/>
   </svg>
   