<svg width="46" height="49" viewBox="0 0 46 49" fill="none" xmlns="http://www.w3.org/2000/svg">
   <path fill-rule="evenodd" clip-rule="evenodd" d="M26.5501 0.464289C24.2903 0.866769 22.513 2.38357 21.8025 4.51602C21.5094 5.39543 21.5104 5.37344 21.5103 10.6079L21.5101 15.3719L16.2901 15.3723C12.9119 15.3725 10.9617 15.3902 10.7628 15.4225C10.2395 15.5074 9.85777 15.8032 9.6242 16.3048C9.52503 16.5177 9.51092 16.6198 9.51054 17.1275C9.50828 19.9172 10.5239 22.8201 12.3236 25.168C12.7432 25.7155 13.7162 26.7434 14.1597 27.1079L14.4517 27.3479L8.05691 27.3719L1.66206 27.3959L1.39806 27.5218C0.933514 27.7433 0.625834 28.1283 0.535642 28.6009C0.496474 28.806 0.48553 31.4133 0.49585 38.0759L0.510058 47.2679L0.644746 47.5422C0.809962 47.8786 1.1283 48.1679 1.47678 48.2983C1.73766 48.3959 1.73895 48.3959 22.9981 48.3959C44.2572 48.3959 44.2585 48.3959 44.5193 48.2983C44.8678 48.1679 45.1862 47.8786 45.3514 47.5422L45.4861 47.2679V37.9079V28.5479L45.3606 28.2839C45.2011 27.9481 44.9339 27.6808 44.5981 27.5213L44.3341 27.3959L37.9392 27.3719L31.5444 27.3479L31.8364 27.1079C31.997 26.9759 32.3925 26.5944 32.7151 26.2602C35.096 23.7941 36.4883 20.4219 36.4856 17.1275C36.4852 16.6198 36.4711 16.5177 36.3719 16.3048C36.1383 15.8032 35.7566 15.5074 35.2333 15.4225C35.0344 15.3902 33.0836 15.3725 29.7041 15.3723L24.4821 15.3719L24.4985 10.6319C24.5137 6.24781 24.5213 5.87024 24.6007 5.60389C24.9073 4.57477 25.7544 3.74787 26.7641 3.49232C27.127 3.40045 27.8292 3.40035 28.2183 3.49208C29.1672 3.71581 30.0532 4.5453 30.3459 5.48389C30.3994 5.65549 30.4627 6.01659 30.4866 6.28635C30.5423 6.91439 30.6567 7.18688 30.9947 7.49576C31.296 7.77109 31.5875 7.88389 31.9981 7.88389C32.4086 7.88389 32.7002 7.77109 33.0014 7.49576C33.39 7.14061 33.4865 6.88491 33.4798 6.22789C33.4575 4.03472 32.1356 1.98071 30.1145 0.999009C29.7089 0.802018 29.178 0.619137 28.7101 0.515313C28.2267 0.408033 27.0252 0.379665 26.5501 0.464289ZM12.6507 18.645C12.7587 19.4584 13.202 20.7841 13.6703 21.6936C14.4812 23.2686 15.7284 24.6571 17.2381 25.6658C18.1503 26.2753 19.5858 26.8862 20.6734 27.1276C22.14 27.4532 23.8562 27.4532 25.3227 27.1276C26.4103 26.8862 27.8458 26.2753 28.7581 25.6658C30.9587 24.1954 32.5389 21.9721 33.1665 19.4631C33.244 19.1533 33.3226 18.7865 33.3412 18.6479L33.3751 18.3959H22.9964H12.6177L12.6507 18.645ZM3.51006 37.8839V45.3719H12.5101H21.5101V37.8839V30.3959H12.5101H3.51006V37.8839ZM24.4861 37.8839V45.3719H33.4861H42.4861V37.8839V30.3959H33.4861H24.4861V37.8839ZM16.7184 33.4268C16.2456 33.5033 15.8494 33.8212 15.6242 34.3048L15.511 34.5479L15.5105 37.1193C15.51 40.0483 15.5 39.9636 15.8982 40.3993C16.2139 40.7447 16.5205 40.8782 16.9981 40.8782C17.5981 40.8782 18.0676 40.5884 18.35 40.0439L18.4621 39.8279L18.4753 37.1948L18.4885 34.5618L18.3744 34.3126C18.2314 34.0002 18.0132 33.7493 17.7506 33.5954C17.5709 33.4901 17.4618 33.4588 17.0701 33.3999C17.0173 33.392 16.859 33.4041 16.7184 33.4268ZM28.7184 33.4268C28.2456 33.5033 27.8494 33.8212 27.6242 34.3048L27.511 34.5479L27.5105 37.1193C27.51 40.0483 27.5 39.9636 27.8982 40.3993C28.2139 40.7447 28.5205 40.8782 28.9981 40.8782C29.4757 40.8782 29.7822 40.7447 30.0979 40.3993C30.4961 39.9636 30.4861 40.0483 30.4856 37.1193L30.4851 34.5479L30.3719 34.3048C30.2284 33.9966 30.0104 33.7477 29.7506 33.5954C29.5709 33.4901 29.4618 33.4588 29.0701 33.3999C29.0173 33.392 28.859 33.4041 28.7184 33.4268Z" fill="#052E46"/>
   </svg>
   