<svg width="320.000000" height="702.000000" viewBox="0 0 320 702" fill="none" xmlns="http://www.w3.org/2000/svg" xmlns:xlink="http://www.w3.org/1999/xlink">
	<desc>
			Created with Pixso.
	</desc>
	<defs/>
	<mask id="mask284_5400" mask-type="alpha" maskUnits="userSpaceOnUse" x="0.000000" y="0.000000" width="320.000000" height="702.000000">
		<rect id="Rectangle 22" x="320.000000" width="702.000000" height="320.000000" transform="rotate(90 320.000000 0.000000)" fill="#D9D9D9" fill-opacity="1.000000"/>
	</mask>
	<g mask="url(#mask284_5400)">
		<path id="Oval-Copy" d="M375.13 171.74C546.54 137.51 639.48 187.31 655.44 277.81C671.4 368.3 606.23 507.62 462.52 532.96C318.82 558.3 142.42 503.32 126.47 412.82C110.51 322.32 203.72 205.97 375.13 171.74ZM569.82 187C523.39 167.61 458.14 165.11 377.04 181.31C297.63 197.16 231.64 231.85 187.59 277.92C147.11 320.24 128.64 368.93 136.07 411.13C142.93 449.99 185 484.98 249.75 507.1C314 529.06 392.38 535.42 460.83 523.35C525.07 512.03 576.86 476.19 610.69 424.48C640.78 378.49 653.6 323.56 645.84 279.5C638.28 236.64 612.57 204.85 569.82 187Z" fill="#E2DED7" fill-opacity="1.000000" fill-rule="evenodd"/>
		<path id="Oval-Copy-2" d="M365.05 34.99C436.85 20.65 497.24 26.53 548.97 34.99C689.7 58 760.55 146.25 778.73 249.39C780.73 260.72 783.26 271.91 785.89 283.02L786.82 286.93L787.75 290.85L788.68 294.75L789.62 298.65C801.2 347.4 810.82 395.23 781.7 447.85C738.39 526.14 617.69 604.29 499.57 625.12C493.72 626.15 487.86 627.19 482 628.25L465.35 631.23L459.96 632.2L454.57 633.16L449.19 634.11C368.41 648.36 288.71 659.85 219.89 642.02C112.23 614.13 29.68 516.81 15.64 437.21C0.25 349.93 53.01 268.31 144.33 176.19L151.11 169.35C151.68 168.78 152.25 168.21 152.82 167.63L156.24 164.19C209.53 110.69 270.35 53.9 365.05 34.99ZM464.33 35.04C431.81 34.26 399.71 36.84 366.74 43.43C325.66 51.63 289.12 67.47 254.29 90.79C240.94 99.73 228.35 109.31 215.24 120.46L213.6 121.86C212.78 122.56 211.96 123.28 211.13 123.99L209.47 125.44C208.64 126.16 207.81 126.9 206.98 127.64L205.3 129.13C205.02 129.38 204.74 129.63 204.46 129.88L202.77 131.39L201.07 132.93L199.36 134.49C199.08 134.75 198.79 135.01 198.5 135.27L196.78 136.86L195.05 138.47C193.3 140.08 191.55 141.73 189.77 143.41L187.98 145.11L186.18 146.83C185.87 147.11 185.57 147.4 185.27 147.69L183.45 149.44L181.61 151.22L179.76 153.02L177.89 154.84L176 156.69L174.09 158.56C173.77 158.88 173.45 159.19 173.13 159.51L171.2 161.42L166.55 166.05L161 171.61L150.44 182.25C101.91 231.21 68.49 273.05 47.58 312.54C24.93 355.31 17.02 395.46 24.12 435.72C30.85 473.93 54.32 516.65 88.9 553.08C125.85 592.01 172.46 620.84 222.05 633.69C256.25 642.55 295.03 644.47 341.39 640.64C342.05 640.58 342.71 640.53 343.37 640.47L345.35 640.3L347.34 640.12L349.35 639.93C349.68 639.9 350.02 639.87 350.35 639.84L352.37 639.64C352.71 639.6 353.05 639.57 353.39 639.54L355.43 639.33L357.47 639.11C357.82 639.08 358.16 639.04 358.5 639L360.57 638.78L362.64 638.55C362.99 638.51 363.34 638.47 363.69 638.43L365.79 638.19L367.9 637.94L370.02 637.68C370.38 637.64 370.73 637.59 371.09 637.55L373.24 637.28L375.4 637.01L377.58 636.73L379.77 636.44L381.98 636.14L384.2 635.84L386.44 635.53L388.71 635.21L390.98 634.88L393.28 634.55L395.59 634.21L397.92 633.87L400.28 633.51L402.65 633.15L405.04 632.78L410.59 631.91L414.86 631.23L418.6 630.62L421.84 630.09L426.82 629.25L432.05 628.36L438.25 627.29L444.28 626.24L450.1 625.21L458.93 623.64L489.12 618.23L496.16 616.98L498.08 616.64C612.02 596.55 731.52 520.78 774.17 443.69C787.58 419.45 793.01 395.3 792.25 368.51C791.94 357.29 790.56 345.59 788.13 332.38L787.96 331.47C787.84 330.78 787.71 330.09 787.58 329.42L787.21 327.5L786.97 326.29L786.58 324.36L786.08 321.94L785.73 320.28L785.18 317.71L784.64 315.32L783.77 311.45L783.04 308.3L782.05 304.08L780.05 295.64L778.44 288.93L777.2 283.67L776.08 278.89L775.08 274.53L774.42 271.58L773.95 269.47L773.58 267.77L773.02 265.14L772.68 263.54L772.17 261.04L771.8 259.19L771.33 256.74L771.1 255.52L770.97 254.82C770.73 253.52 770.49 252.22 770.26 250.88C761.09 198.91 738.69 153.43 703.7 118.2C665.66 79.91 613.4 54.24 547.58 43.48L544.97 43.06C544.11 42.92 543.25 42.78 542.39 42.65L539.82 42.25C526.63 40.2 514.24 38.58 502.19 37.4L499.87 37.17C487.87 36.04 476.18 35.33 464.33 35.04Z" fill="#E2DED7" fill-opacity="1.000000" fill-rule="evenodd"/>
		<path id="Oval-Copy-3" d="M370.86 61.05C606.75 13.95 715.75 126.84 754.16 248.09C771.91 304.13 786.66 376.47 749.29 440.71C705.98 515.18 594.84 580.49 488.68 599.21C479.38 600.85 469.95 602.67 460.43 604.56L456.35 605.37L452.25 606.19L437.85 609.08L433.73 609.9L429.59 610.72L425.46 611.53C377.85 620.85 329.59 628.56 286.64 621.39C163.48 600.82 69.08 519.82 54.5 437.09C41.66 364.29 91.92 268.1 165.91 188.09C218.49 131.23 272.87 80.62 370.86 61.05ZM631.49 99.77C566.96 60.46 480.97 49.01 372.77 70.62C328.02 79.55 290.77 95.41 256.87 118.64C237.52 131.89 220.09 146.68 200.25 166.4L198.54 168.1C197.11 169.53 195.67 170.98 194.22 172.46L192.46 174.25C192.17 174.55 191.88 174.85 191.58 175.15L189.81 176.98L188.02 178.84C187.42 179.46 186.82 180.09 186.21 180.72L184.39 182.63C184.08 182.96 183.78 183.28 183.47 183.6L181.62 185.56L179.75 187.54L177.87 189.55C177.55 189.89 177.23 190.23 176.92 190.57L175 192.63C174.36 193.32 173.71 194.01 173.07 194.71C95.67 278.41 52.63 370.31 64.1 435.4C70.89 473.86 96.48 512.87 136 544.98C177.03 578.31 230.33 602.09 288.25 611.77C306.64 614.84 327.03 615.21 350.28 613.21L351.57 613.1L352.85 612.98L354.14 612.86L355.44 612.74L356.73 612.61L358.03 612.47L360 612.26L361.32 612.12L362.64 611.96L363.97 611.81L365.3 611.65L366.65 611.49L368 611.32L370.03 611.05L372.09 610.78L374.17 610.5L375.57 610.3L376.98 610.1L378.39 609.89L379.82 609.68L381.98 609.36L384.16 609.02L385.63 608.79L387.86 608.43L390.12 608.07L392.41 607.69L394.72 607.29L397.07 606.89L399.45 606.47L402.68 605.9L405.97 605.31L409.33 604.69L411.03 604.37L413.62 603.88L417.86 603.07L423.34 602.01L429.82 600.74L459.7 594.76L466.93 593.34L472.02 592.36L475.27 591.74L478.67 591.11L480.74 590.73L483.83 590.17L485.92 589.8C486.27 589.73 486.63 589.67 486.98 589.61C592.39 571.02 699.84 506.33 740.86 435.8C757.21 407.7 763.94 376.42 762.65 341.69C762 324.25 759.42 306.55 755.01 287.58L754.58 285.74L754.13 283.89C753.53 281.42 752.91 278.93 752.25 276.41L751.74 274.52C751.24 272.63 750.71 270.72 750.18 268.79L749.63 266.86C749.53 266.54 749.44 266.21 749.35 265.89L748.79 263.95C748.69 263.62 748.6 263.29 748.5 262.97L747.92 261.01L747.33 259.04L746.73 257.05C746.63 256.72 746.53 256.39 746.43 256.06L745.81 254.06C745.5 253.05 745.18 252.05 744.86 251.04C724.29 186.1 686.29 133.16 631.49 99.77Z" fill="#E2DED7" fill-opacity="1.000000" fill-rule="evenodd"/>
		<path id="Oval-Copy-4" d="M392.98 102.37C485.33 83.93 549.65 101.21 600.32 123.89C665.1 152.89 704.21 197.47 715.2 259.82C724.25 311.12 714.27 395.13 680.44 449.42C646.6 503.7 568.96 543.91 475.22 560.44C375.02 578.11 265.85 578.24 190.71 538.71C133.54 508.64 101.18 460.44 92.71 412.43C80.51 343.24 113.25 279.01 202.24 209.25L205.48 206.71L208.73 204.15L218.53 196.42L221.83 193.83C222.38 193.39 222.93 192.96 223.48 192.53L226.8 189.93C273.87 153.11 325.51 115.85 392.98 102.37ZM510.9 107.37C475.37 102.29 437.23 103.49 394.89 111.94C364.15 118.08 335.25 129.59 305.97 146.5L304.58 147.31L303.19 148.12L301.82 148.93L300.44 149.75C299.98 150.03 299.52 150.3 299.07 150.58L297.69 151.41L296.32 152.24L294.96 153.09C294.73 153.23 294.5 153.37 294.27 153.51L292.91 154.36L291.54 155.22L290.17 156.09L288.8 156.97C288.57 157.11 288.34 157.26 288.12 157.41L286.75 158.3L285.37 159.19L283.99 160.1L282.6 161.02L281.22 161.94C280.99 162.1 280.76 162.25 280.52 162.41L279.13 163.35L277.73 164.3L276.32 165.27L274.9 166.25L273.48 167.23L272.05 168.24L270.6 169.25C270.36 169.42 270.12 169.59 269.88 169.76L268.43 170.8L266.96 171.84L265.48 172.91L263.99 173.98L262.49 175.08L260.98 176.18L259.45 177.31L257.91 178.44L256.35 179.6C256.09 179.79 255.83 179.99 255.57 180.18L253.98 181.37L252.39 182.56L249.96 184.39L248.32 185.64L245.83 187.54L244.14 188.83L241.58 190.8L239.84 192.14L237.19 194.19L234.5 196.29L232.68 197.72L219.5 208.08L208.26 216.93C123.06 283.72 90.66 344.62 102.32 410.74C110.81 458.93 143.72 502.98 195.25 530.08C261.61 564.99 362.01 570.5 473.53 550.83C566.61 534.42 640.63 494.84 672.16 444.26C687.43 419.75 698.5 387.24 704.27 351.93C709.6 319.33 710 286.48 705.6 261.51C695.34 203.31 659.17 160.92 596.33 132.79C567.85 120.04 540.64 111.61 510.9 107.37Z" fill="#E2DED7" fill-opacity="1.000000" fill-rule="evenodd"/>
		<path id="Oval-Copy-5" d="M406.39 134.43C502.62 115.22 562.45 135.45 606.21 161.49C649.46 187.23 687.59 214.29 696.44 264.51C714.25 365.54 631.04 525.17 470.61 553.46C390.1 567.65 305.7 556.29 234.06 531.64C162.95 507.18 114.34 461.08 105.46 410.76C97.26 364.2 111.87 308.88 157.39 260.21C210.64 203.27 303.22 155.03 406.39 134.43ZM524.23 140.59C490.45 134.43 452.35 135.2 408.3 144C308.75 163.87 217.23 210.5 164.52 266.87C123.53 310.7 106.84 362.35 115.07 409.06C123.28 455.61 169.43 499.09 237.23 522.42C312.86 548.44 394.84 556.91 468.92 543.85C541.09 531.12 601.61 489.84 642.34 430.73C678.93 377.62 695.43 314.97 686.84 266.2C683.03 244.65 673.27 226.87 657.28 210.67L656.48 209.86C655.53 208.92 654.58 207.99 653.6 207.07L652.76 206.28C652.06 205.62 651.34 204.96 650.62 204.31L649.75 203.53L648.86 202.75C648.27 202.23 647.67 201.71 647.06 201.19L646.14 200.42C645.53 199.9 644.9 199.38 644.27 198.87L643.32 198.09C643.16 197.96 643 197.83 642.84 197.7L641.86 196.93C641.54 196.67 641.21 196.41 640.88 196.15L639.88 195.38L638.87 194.6L637.84 193.82C637.67 193.69 637.49 193.56 637.32 193.43L636.27 192.65L635.21 191.87L634.13 191.09C633.58 190.69 633.03 190.3 632.48 189.9L631.36 189.11L630.23 188.31L629.07 187.52C628.88 187.38 628.68 187.25 628.49 187.11L627.31 186.31L626.12 185.5L624.9 184.69L623.67 183.87L622.42 183.04L621.15 182.21L619.86 181.38L618.55 180.54L617.23 179.69L615.88 178.84L614.51 177.98L613.12 177.11L611.71 176.23L610.28 175.35L608.82 174.46L607.35 173.56L605.09 172.19L603.56 171.27L601.22 169.87C577.02 155.47 552.43 145.72 524.23 140.59Z" fill="#E2DED7" fill-opacity="1.000000" fill-rule="evenodd"/>
		<path id="Oval-Copy-6" d="M87.37 292.72C154.3 195.17 321.23 84.72 410.78 74.51C473.23 67.39 568.48 76.95 631.23 110.02C699.84 146.18 720.33 201.9 726.54 237.12C726.72 238.15 726.9 239.17 727.09 240.2L727.47 242.27C727.53 242.61 727.6 242.96 727.66 243.31L728.05 245.39L728.45 247.48L728.86 249.59L729.68 253.84L731.37 262.46L732 265.74L732.42 267.93L733.05 271.24C733.12 271.61 733.18 271.98 733.25 272.35L733.66 274.57C733.8 275.31 733.93 276.05 734.07 276.8L734.47 279.04C738.49 301.84 741.44 325.89 739.05 350.12C727.31 468.74 642.93 554.03 481.57 582.48L476.34 583.41L472.71 584.04L468.99 584.68L465.16 585.34C406.42 595.34 314.23 608.06 235.64 586.81C157.61 565.71 93.03 505.68 87.37 473.6C86.48 468.54 84.13 462.02 81.2 454.28L78.64 447.55C65.02 411.57 45.17 354.23 87.37 292.72ZM411.75 83.06C370.1 87.81 307.99 116.05 245.38 158.01C181.79 200.64 125.82 251.9 94.47 297.59C85.59 310.53 79.33 323.66 75.44 337.01C70.06 355.47 69.21 374.12 72.12 393.51C72.95 399.03 74.02 404.39 75.38 409.86L75.71 411.17C76.66 414.9 77.75 418.7 78.99 422.63L79.43 424.03L79.89 425.43C79.96 425.67 80.04 425.91 80.12 426.14L80.59 427.57L81.08 429.01L81.58 430.47C81.66 430.72 81.75 430.96 81.83 431.21L82.35 432.69C82.44 432.94 82.53 433.19 82.62 433.44L83.16 434.95C83.25 435.21 83.34 435.46 83.43 435.72L83.99 437.26C84.08 437.51 84.18 437.77 84.28 438.03L84.85 439.6L90.08 453.45L91.18 456.41L91.57 457.47L92.07 458.88L92.5 460.11L92.77 460.91L93.04 461.69L93.41 462.83L93.65 463.56L93.87 464.28L94.09 464.98L94.29 465.66C94.32 465.78 94.36 465.89 94.39 466L94.58 466.67L94.76 467.32L94.93 467.95L95.08 468.58L95.24 469.19L95.38 469.79L95.51 470.38C95.63 470.97 95.75 471.54 95.85 472.11C98.26 485.79 114.9 507.38 139.8 527.64C167.86 550.49 202.64 568.97 237.89 578.5C276.03 588.82 319.99 591.67 369.15 588.57C388.88 587.33 408.97 585.16 430.12 582.15L432.87 581.75C433.33 581.69 433.78 581.62 434.23 581.56L436.93 581.16L438.98 580.85L440.27 580.66L442.57 580.31L445.73 579.82L448.41 579.39L452.78 578.68L457.3 577.94L460.22 577.45L465.09 576.62L471.6 575.5L477.93 574.39L480.07 574.01C633.29 546.99 718.78 467.56 730.48 349.28C731.36 340.36 731.52 331.1 731.02 321.32L730.93 319.79L730.84 318.24L730.78 317.21L730.71 316.19L730.63 315.18L730.55 314.16L730.48 313.15L730.35 311.64L730.26 310.63L730.11 309.12L730.02 308.11L729.91 307.09L729.8 306.07L729.69 305.05L729.57 304.02L729.38 302.46L729.25 301.42L729.11 300.36L728.97 299.29L728.83 298.22L728.6 296.58L728.44 295.47L728.27 294.35L728.01 292.65L727.74 290.9L727.45 289.12L727.25 287.91L727.05 286.68L726.73 284.79L726.39 282.86L726.05 280.88L725.69 278.84L725.17 276.03L724.77 273.85L724.2 270.85L723.76 268.51L723.3 266.11L722.82 263.63L720.24 250.37L719.33 245.6L718.7 242.17L718.27 239.75L718.06 238.62C714.42 217.95 707.1 197.61 695.01 178.53C679.61 154.21 657.41 133.55 627.22 117.64C598.51 102.51 560.96 91.61 519.68 85.71C481.99 80.33 443.18 79.48 411.75 83.06Z" fill="#E2DED7" fill-opacity="1.000000" fill-rule="evenodd"/>
	</g>
</svg>
