<svg width="612.000000" height="444.000000" viewBox="0 0 612 444" fill="none" xmlns="http://www.w3.org/2000/svg" xmlns:xlink="http://www.w3.org/1999/xlink">
	<desc>
			Created with Pixso.
	</desc>
	<defs/>
	<mask id="mask284_5409" mask-type="alpha" maskUnits="userSpaceOnUse" x="0.000000" y="0.000000" width="612.000000" height="444.000000">
		<rect id="Rectangle 23" width="612.000000" height="444.000000" fill="#D9D9D9" fill-opacity="1.000000"/>
	</mask>
	<g mask="url(#mask284_5409)">
		<path id="Oval-Copy" d="M484.68 208.49C697.5 165.99 812.9 227.82 832.71 340.18C852.53 452.54 771.61 625.52 593.19 656.98C414.76 688.44 195.75 620.18 175.94 507.82C156.13 395.45 271.85 250.99 484.68 208.49ZM726.41 227.44C668.76 203.37 587.75 200.26 487.05 220.37C388.46 240.05 306.53 283.13 251.82 340.32C201.57 392.86 178.63 453.32 187.87 505.71C196.37 553.96 248.62 597.4 329 624.87C408.78 652.13 506.09 660.04 591.08 645.05C670.84 630.99 735.15 586.49 777.16 522.29C814.52 465.18 830.43 396.99 820.79 342.28C811.4 289.07 779.48 249.6 726.41 227.44Z" fill="#E2DED7" fill-opacity="1.000000" fill-rule="evenodd"/>
		<path id="Oval-Copy-2" d="M472.17 38.69C561.32 20.89 636.29 28.19 700.52 38.69C875.25 67.26 963.21 176.83 985.79 304.89C988.27 318.96 991.41 332.85 994.67 346.64L995.83 351.51L996.99 356.37L998.15 361.22L999.3 366.06C1013.7 426.59 1025.63 485.96 989.48 551.3C935.7 648.51 785.84 745.54 639.19 771.39C631.92 772.68 624.64 773.98 617.37 775.28L596.7 778.99L590 780.19L583.32 781.39L576.63 782.56C476.34 800.25 377.38 814.51 291.93 792.38C158.26 757.76 55.77 636.92 38.34 538.09C19.23 429.72 84.74 328.38 198.12 214.01L206.53 205.52C207.24 204.81 207.95 204.1 208.66 203.39L212.91 199.11C279.07 132.69 354.59 62.17 472.17 38.69ZM595.43 38.76C555.05 37.79 515.2 40.99 474.26 49.17C423.26 59.35 377.89 79.02 334.65 107.98C318.07 119.07 302.43 130.97 286.16 144.81L284.13 146.55C283.1 147.43 282.09 148.31 281.06 149.2L279 150.99C277.97 151.9 276.94 152.81 275.9 153.72L273.82 155.57C273.47 155.88 273.12 156.19 272.77 156.51L270.68 158.39L268.57 160.3L266.45 162.23C266.09 162.55 265.74 162.88 265.38 163.21L263.24 165.18L261.09 167.17C258.93 169.18 256.74 171.23 254.53 173.32L252.31 175.42L250.08 177.55C249.7 177.91 249.33 178.27 248.95 178.63L246.69 180.8L244.41 183L242.1 185.24L239.78 187.5L237.44 189.8L235.07 192.12C234.68 192.51 234.28 192.9 233.88 193.3L231.48 195.67L225.71 201.41L218.81 208.32L205.71 221.54C145.44 282.32 103.96 334.27 77.99 383.3C49.87 436.4 40.05 486.25 48.87 536.24C57.23 583.68 86.35 636.72 129.3 681.96C175.17 730.28 233.05 766.09 294.61 782.04C337.09 793.04 385.23 795.43 442.79 790.67C443.6 790.6 444.42 790.53 445.24 790.46L447.71 790.24L450.18 790.02L452.67 789.79C453.09 789.75 453.5 789.71 453.92 789.67L456.43 789.42C456.85 789.38 457.27 789.34 457.69 789.3L460.21 789.04L462.76 788.77C463.18 788.73 463.61 788.68 464.03 788.64L466.6 788.36L469.18 788.07C469.61 788.02 470.04 787.97 470.48 787.92L473.08 787.62L475.7 787.31L478.34 786.99C478.78 786.94 479.22 786.89 479.66 786.83L482.33 786.5L485.02 786.16L487.72 785.81L490.44 785.45L493.18 785.08L495.94 784.71L498.73 784.32L501.53 783.93L504.36 783.52L507.21 783.11L510.08 782.69L512.98 782.26L515.9 781.82L518.84 781.37L521.81 780.91L528.7 779.83L534.01 778.98L538.65 778.23L542.67 777.56L548.86 776.53L555.35 775.43L563.04 774.1L570.54 772.78L577.77 771.51L588.72 769.56L626.21 762.84L634.95 761.29L637.33 760.87C778.8 735.93 927.18 641.85 980.13 546.13C996.78 516.04 1003.52 486.06 1002.59 452.79C1002.2 438.86 1000.48 424.34 997.46 407.93L997.25 406.81C997.09 405.94 996.93 405.1 996.77 404.25L996.31 401.87L996.02 400.37L995.54 397.98L994.91 394.97L994.48 392.91L993.79 389.72L993.13 386.75L992.04 381.95L991.14 378.03L989.91 372.79L987.43 362.32L985.44 353.99L983.89 347.45L982.5 341.52L981.26 336.11L980.43 332.45L979.85 329.82L979.39 327.71L978.69 324.45L978.28 322.46L977.64 319.35L977.19 317.06L976.6 314.02L976.31 312.51L976.15 311.63C975.85 310.02 975.56 308.4 975.27 306.75C963.89 242.22 936.07 185.75 892.63 142.01C845.4 94.46 780.52 62.6 698.79 49.24L695.56 48.71C694.48 48.54 693.41 48.37 692.35 48.2L689.16 47.7C672.78 45.16 657.4 43.16 642.44 41.68L639.55 41.4C624.65 39.99 610.14 39.12 595.43 38.76Z" fill="#E2DED7" fill-opacity="1.000000" fill-rule="evenodd"/>
		<path id="Oval-Copy-3" d="M479.39 71.05C772.26 12.57 907.6 152.73 955.28 303.28C977.32 372.86 995.64 462.67 949.24 542.43C895.46 634.89 757.48 715.99 625.66 739.23C614.12 741.27 602.41 743.53 590.6 745.87L585.52 746.88L580.44 747.89L562.57 751.48L557.44 752.5L552.31 753.52L547.17 754.53C488.06 766.1 428.14 775.67 374.82 766.76C221.9 741.23 104.7 640.66 86.58 537.94C70.65 447.55 133.05 328.12 224.91 228.79C290.2 158.19 357.71 95.35 479.39 71.05ZM802.98 119.12C722.86 70.31 616.09 56.11 481.76 82.93C426.19 94.03 379.94 113.71 337.85 142.55C313.83 159 292.18 177.37 267.55 201.85L265.43 203.96C263.66 205.73 261.87 207.54 260.06 209.38L257.89 211.6C257.52 211.97 257.16 212.35 256.79 212.72L254.59 214.99L252.37 217.3C251.62 218.07 250.87 218.85 250.12 219.64L247.86 222.01C247.48 222.41 247.1 222.81 246.72 223.21L244.43 225.64L242.1 228.1L239.77 230.6C239.37 231.02 238.98 231.44 238.59 231.86L236.21 234.42C235.41 235.27 234.61 236.14 233.8 237.01C137.7 340.93 84.26 455.03 98.51 535.84C106.93 583.59 138.71 632.03 187.78 671.9C238.73 713.28 304.9 742.81 376.82 754.82C399.64 758.63 424.96 759.09 453.84 756.61L455.43 756.47L457.02 756.33L458.62 756.18L460.23 756.02L461.84 755.86L463.46 755.69L465.9 755.43L467.53 755.25L469.18 755.07L470.82 754.87L472.48 754.67L474.15 754.47L475.83 754.26L478.36 753.93L480.91 753.6L483.5 753.24L485.23 753L486.98 752.75L488.73 752.49L490.5 752.23L493.19 751.83L495.9 751.41L497.73 751.12L500.49 750.68L503.3 750.22L506.14 749.75L509.01 749.27L511.93 748.77L514.88 748.25L518.89 747.54L522.98 746.8L527.14 746.03L529.26 745.64L532.47 745.03L537.73 744.03L544.54 742.71L552.58 741.12L589.68 733.71L598.66 731.94L604.98 730.72L609.02 729.96L613.24 729.17L615.8 728.7L619.65 728L622.24 727.54C622.68 727.46 623.12 727.39 623.56 727.31C754.43 704.23 887.84 623.91 938.77 536.34C959.07 501.46 967.43 462.61 965.82 419.49C965.02 397.84 961.82 375.86 956.34 352.31L955.8 350.02L955.25 347.73C954.51 344.66 953.73 341.57 952.91 338.45L952.28 336.1C951.66 333.74 951.01 331.37 950.34 328.98L949.66 326.58C949.55 326.18 949.43 325.78 949.32 325.38L948.62 322.97C948.5 322.56 948.38 322.16 948.26 321.75L947.54 319.32L946.81 316.87L946.06 314.41C945.94 314 945.81 313.58 945.68 313.17L944.91 310.69C944.53 309.44 944.14 308.19 943.74 306.94C918.2 226.31 871.02 160.58 802.98 119.12Z" fill="#E2DED7" fill-opacity="1.000000" fill-rule="evenodd"/>
		<path id="Oval-Copy-4" d="M506.85 122.36C621.5 99.46 701.37 120.91 764.27 149.07C844.71 185.08 893.26 240.43 906.91 317.84C918.14 381.54 905.75 485.85 863.74 553.25C821.74 620.64 725.34 670.57 608.95 691.09C484.54 713.03 349 713.2 255.7 664.12C184.71 626.78 144.53 566.93 134.03 507.33C118.88 421.42 159.52 341.67 270.02 255.06L274.04 251.9L278.07 248.72L290.25 239.12L294.34 235.9C295.02 235.37 295.71 234.83 296.39 234.29L300.51 231.07C358.96 185.35 423.07 139.09 506.85 122.36ZM653.25 128.56C609.14 122.26 561.77 123.74 509.22 134.23C471.04 141.86 435.16 156.16 398.81 177.15L397.08 178.15L395.36 179.16L393.65 180.17L391.94 181.18C391.37 181.52 390.8 181.87 390.23 182.21L388.53 183.24L386.83 184.28L385.14 185.32C384.85 185.5 384.57 185.67 384.28 185.85L382.59 186.91L380.89 187.98L379.19 189.05L377.49 190.14C377.21 190.32 376.93 190.5 376.64 190.69L374.94 191.79L373.23 192.9L371.52 194.03L369.8 195.17L368.08 196.32C367.79 196.51 367.5 196.7 367.21 196.9L365.48 198.07L363.74 199.25L361.99 200.45L360.23 201.66L358.47 202.89L356.69 204.13L354.9 205.39C354.6 205.6 354.3 205.82 354 206.03L352.19 207.31L350.37 208.61L348.54 209.93L346.69 211.27L344.82 212.62L342.94 214L341.05 215.39L339.13 216.81L337.2 218.24C336.87 218.48 336.55 218.72 336.23 218.97L334.26 220.43L332.28 221.92L329.27 224.19L327.23 225.74L324.14 228.1L322.04 229.7L318.86 232.15L316.7 233.82L313.42 236.36L310.07 238.97L307.8 240.74L291.45 253.6L277.49 264.59C171.7 347.51 131.48 423.13 145.95 505.23C156.5 565.06 197.36 619.74 261.34 653.4C343.73 696.74 468.39 703.58 606.84 679.16C722.42 658.78 814.32 609.65 853.46 546.84C872.43 516.41 886.17 476.05 893.34 432.2C899.96 391.73 900.45 350.95 894.98 319.95C882.24 247.69 837.34 195.05 759.32 160.13C723.95 144.29 690.17 133.83 653.25 128.56Z" fill="#E2DED7" fill-opacity="1.000000" fill-rule="evenodd"/>
		<path id="Oval-Copy-5" d="M523.49 162.17C642.96 138.31 717.26 163.43 771.58 195.76C825.28 227.72 872.62 261.31 883.62 323.67C905.74 449.11 802.42 647.3 603.23 682.43C503.27 700.05 398.48 685.95 309.53 655.34C221.24 624.97 160.89 567.74 149.87 505.25C139.67 447.44 157.82 378.76 214.34 318.33C280.45 247.64 395.39 187.75 523.49 162.17ZM669.8 169.81C627.87 162.17 580.55 163.12 525.86 174.04C402.27 198.72 288.64 256.61 223.18 326.6C172.3 381.02 151.57 445.15 161.79 503.15C171.98 560.94 229.28 614.93 313.47 643.89C407.37 676.2 509.15 686.72 601.13 670.5C690.74 654.7 765.88 603.44 816.44 530.05C861.87 464.11 882.37 386.32 871.69 325.78C866.97 299.01 854.84 276.94 835 256.82L834 255.82C832.83 254.66 831.64 253.5 830.43 252.35L829.39 251.37C828.52 250.55 827.63 249.74 826.73 248.93L825.64 247.96L824.54 246.99C823.81 246.34 823.06 245.7 822.31 245.06L821.17 244.09C820.41 243.45 819.63 242.81 818.85 242.17L817.66 241.21C817.46 241.05 817.27 240.89 817.07 240.73L815.85 239.76C815.45 239.44 815.04 239.12 814.63 238.8L813.39 237.84L812.14 236.87L810.86 235.91C810.64 235.75 810.43 235.59 810.21 235.42L808.91 234.46L807.59 233.48L806.25 232.51C805.58 232.02 804.89 231.53 804.21 231.04L802.82 230.06L801.41 229.07L799.98 228.08C799.73 227.91 799.5 227.74 799.25 227.58L797.79 226.58L796.3 225.57L794.8 224.56L793.27 223.55L791.72 222.52L790.14 221.49L788.54 220.46L786.92 219.41L785.27 218.36L783.6 217.3L781.9 216.23L780.17 215.15L778.42 214.07L776.64 212.97L774.84 211.86L773 210.75L770.2 209.05L768.3 207.91L765.39 206.17C735.34 188.28 704.82 176.19 669.8 169.81Z" fill="#E2DED7" fill-opacity="1.000000" fill-rule="evenodd"/>
		<path id="Oval-Copy-6" d="M127.4 358.7C210.49 237.58 417.75 100.44 528.94 87.76C606.48 78.92 724.74 90.8 802.65 131.86C887.84 176.75 913.28 245.94 920.99 289.67C921.21 290.93 921.44 292.21 921.67 293.48L922.14 296.05C922.22 296.48 922.3 296.91 922.38 297.34L922.87 299.93L923.36 302.53L923.87 305.14L924.89 310.42L926.98 321.12L927.77 325.19L928.29 327.91L929.07 332.02C929.15 332.48 929.24 332.94 929.32 333.4L929.83 336.16C930 337.08 930.17 338 930.34 338.92L930.83 341.7C935.82 370.02 939.49 399.88 936.52 429.96C921.94 577.24 817.18 683.14 616.83 718.46L610.34 719.61L605.84 720.39L601.21 721.19L596.46 722.01C523.52 734.43 409.06 750.22 311.5 723.83C214.61 697.63 134.42 623.1 127.4 583.28C126.29 576.99 123.37 568.9 119.74 559.28L116.56 550.92C99.64 506.26 75.01 435.06 127.4 358.7ZM530.15 98.38C478.44 104.28 401.32 139.34 323.59 191.44C244.62 244.36 175.13 308.01 136.21 364.74C125.19 380.81 117.42 397.11 112.59 413.69C105.9 436.6 104.85 459.75 108.46 483.83C109.49 490.69 110.82 497.34 112.51 504.13L112.92 505.76C114.1 510.4 115.46 515.1 116.99 519.99L117.54 521.72L118.1 523.47C118.2 523.76 118.3 524.05 118.39 524.35L118.98 526.12L119.59 527.92L120.21 529.73C120.31 530.03 120.42 530.33 120.52 530.64L121.17 532.48C121.28 532.79 121.39 533.1 121.5 533.41L122.17 535.29C122.28 535.6 122.39 535.92 122.51 536.24L123.2 538.15C123.32 538.47 123.44 538.79 123.55 539.11L124.27 541.06L130.76 558.26L132.12 561.93L132.6 563.24L133.23 564.99L133.77 566.53L134.1 567.52L134.43 568.49L134.9 569.9L135.19 570.81L135.47 571.7L135.74 572.57L135.99 573.42C136.03 573.56 136.07 573.7 136.11 573.84L136.35 574.66L136.57 575.47L136.78 576.26L136.98 577.03L137.16 577.8L137.34 578.54L137.5 579.28C137.66 580.01 137.8 580.72 137.92 581.42C140.92 598.41 161.58 625.22 192.49 650.37C227.34 678.73 270.52 701.68 314.28 713.52C361.64 726.33 416.22 729.87 477.26 726.02C501.75 724.48 526.69 721.78 552.95 718.05L556.37 717.56C556.94 717.47 557.5 717.39 558.06 717.31L561.4 716.82L563.96 716.44L565.55 716.2L568.41 715.76L572.33 715.15L575.66 714.62L581.09 713.75L586.7 712.82L590.33 712.21L596.37 711.18L604.45 709.79L612.31 708.41L614.98 707.94C805.21 674.4 911.35 575.77 925.88 428.91C926.98 417.84 927.17 406.34 926.55 394.2L926.44 392.3L926.33 390.37L926.25 389.1L926.16 387.84L926.07 386.57L925.98 385.32L925.87 384.06L925.71 382.18L925.6 380.93L925.43 379.05L925.3 377.8L925.17 376.54L925.03 375.27L924.89 374L924.75 372.72L924.52 370.79L924.35 369.49L924.18 368.18L924.01 366.85L923.83 365.52L923.54 363.49L923.34 362.11L923.14 360.72L922.82 358.6L922.48 356.44L922.12 354.22L921.87 352.72L921.62 351.19L921.23 348.85L920.81 346.45L920.37 343.99L919.93 341.46L919.28 337.97L918.78 335.26L918.09 331.53L917.54 328.64L916.96 325.65L916.37 322.57L913.17 306.11L912.04 300.18L911.25 295.93L910.71 292.93L910.46 291.52C905.94 265.85 896.85 240.61 881.84 216.91C862.72 186.72 835.16 161.07 797.67 141.31C762.02 122.52 715.41 108.99 664.15 101.68C617.35 94.99 569.17 93.93 530.15 98.38Z" fill="#E2DED7" fill-opacity="1.000000" fill-rule="evenodd"/>
	</g>
</svg>
