<svg width="702.000000" height="320.000000" viewBox="0 0 702 320" fill="none" xmlns="http://www.w3.org/2000/svg" xmlns:xlink="http://www.w3.org/1999/xlink">
	<desc>
			Created with Pixso.
	</desc>
	<defs/>
	<mask id="mask284_5391" mask-type="alpha" maskUnits="userSpaceOnUse" x="0.000000" y="0.000000" width="702.000000" height="320.000000">
		<rect id="Rectangle 22" width="702.000000" height="320.000000" fill="#D9D9D9" fill-opacity="1.000000"/>
	</mask>
	<g mask="url(#mask284_5391)">
		<path id="Oval-Copy" d="M171.74 -55.14C137.51 -226.55 187.31 -319.49 277.81 -335.45C368.3 -351.41 507.62 -286.24 532.96 -142.53C558.3 1.17 503.32 177.57 412.82 193.52C322.32 209.48 205.97 116.28 171.74 -55.14ZM187 -249.83C167.61 -203.4 165.11 -138.15 181.31 -57.05C197.16 22.36 231.85 88.35 277.92 132.41C320.24 172.88 368.93 191.36 411.13 183.92C449.99 177.07 484.98 134.99 507.1 70.25C529.06 5.99 535.43 -72.38 523.35 -140.84C512.03 -205.08 476.19 -256.87 424.48 -290.7C378.49 -320.79 323.56 -333.61 279.5 -325.84C236.64 -318.29 204.85 -292.58 187 -249.83Z" fill="#E2DED7" fill-opacity="1.000000" fill-rule="evenodd"/>
		<path id="Oval-Copy-2" d="M34.99 -45.06C20.65 -116.86 26.53 -177.25 34.99 -228.98C58 -369.71 146.25 -440.55 249.39 -458.74C260.72 -460.74 271.91 -463.27 283.01 -465.89L286.93 -466.82L290.85 -467.76L294.75 -468.69L298.65 -469.62C347.4 -481.21 395.23 -490.83 447.85 -461.71C526.14 -418.4 604.29 -297.7 625.11 -179.58C626.15 -173.73 627.19 -167.87 628.25 -162.01L631.23 -145.36L632.2 -139.97L633.16 -134.58L634.11 -129.19C648.35 -48.42 659.84 31.28 642.02 100.1C614.13 207.76 516.81 290.31 437.21 304.35C349.93 319.74 268.31 266.98 176.19 175.66L169.35 168.88C168.78 168.31 168.21 167.75 167.63 167.18L164.19 163.75C110.69 110.46 53.9 49.64 34.99 -45.06ZM35.04 -144.34C34.26 -111.82 36.84 -79.72 43.42 -46.74C51.63 -5.67 67.47 30.87 90.79 65.7C99.73 79.05 109.31 91.64 120.46 104.75L121.86 106.39C122.56 107.21 123.27 108.04 123.99 108.86L125.44 110.52C126.16 111.35 126.89 112.18 127.64 113.02L129.12 114.69C129.37 114.97 129.62 115.25 129.87 115.53L131.39 117.22L132.93 118.92L134.48 120.63C134.75 120.91 135.01 121.2 135.27 121.49L136.86 123.21L138.46 124.95C140.08 126.69 141.73 128.45 143.41 130.23L145.11 132.01L146.82 133.81C147.11 134.12 147.4 134.42 147.69 134.72L149.44 136.54L151.22 138.38L153.02 140.24L154.84 142.11L156.69 143.99L158.56 145.9C158.87 146.22 159.19 146.54 159.51 146.86L161.42 148.79L166.04 153.44L171.61 159L182.25 169.55C231.21 218.09 273.05 251.5 312.54 272.42C355.31 295.06 395.46 302.97 435.72 295.87C473.93 289.14 516.65 265.68 553.08 231.09C592 194.15 620.84 147.53 633.69 97.94C642.55 63.74 644.47 24.96 640.64 -21.4C640.58 -22.06 640.53 -22.71 640.47 -23.37L640.3 -25.36L640.12 -27.35L639.93 -29.36C639.9 -29.69 639.87 -30.03 639.84 -30.36L639.64 -32.38C639.6 -32.72 639.57 -33.06 639.53 -33.4L639.33 -35.43L639.11 -37.48C639.08 -37.82 639.04 -38.17 639 -38.51L638.78 -40.58L638.55 -42.65C638.51 -43 638.47 -43.35 638.43 -43.7L638.18 -45.8L637.94 -47.91L637.68 -50.03C637.64 -50.39 637.59 -50.74 637.55 -51.1L637.28 -53.25L637.01 -55.41L636.73 -57.59L636.44 -59.78L636.14 -61.99L635.84 -64.21L635.53 -66.45L635.21 -68.71L634.88 -70.99L634.55 -73.29L634.21 -75.6L633.86 -77.93L633.51 -80.28L633.15 -82.66L632.78 -85.05L631.91 -90.59L631.23 -94.87L630.62 -98.61L630.09 -101.85L629.25 -106.83L628.36 -112.05L627.29 -118.25L626.23 -124.29L625.21 -130.11L623.64 -138.93L618.23 -169.13L616.98 -176.17L616.64 -178.09C596.55 -292.02 520.78 -411.53 443.68 -454.18C419.45 -467.59 395.3 -473.01 368.51 -472.26C357.29 -471.95 345.59 -470.57 332.37 -468.14L331.47 -467.97C330.78 -467.84 330.09 -467.71 329.41 -467.59L327.5 -467.21L326.29 -466.98L324.36 -466.59L321.93 -466.09L320.28 -465.74L317.71 -465.18L315.32 -464.65L311.45 -463.78L308.3 -463.05L304.08 -462.06L295.64 -460.06L288.93 -458.45L283.67 -457.21L278.89 -456.09L274.53 -455.09L271.58 -454.42L269.47 -453.96L267.76 -453.59L265.14 -453.02L263.54 -452.69L261.03 -452.18L259.19 -451.81L256.74 -451.34L255.52 -451.11L254.82 -450.98C253.52 -450.74 252.21 -450.5 250.88 -450.26C198.91 -441.1 153.43 -418.7 118.2 -383.71C79.91 -345.67 54.24 -293.41 43.48 -227.59L43.06 -224.98C42.92 -224.12 42.78 -223.25 42.64 -222.4L42.25 -219.83C40.2 -206.63 38.58 -194.25 37.39 -182.2L37.17 -179.88C36.03 -167.87 35.33 -156.18 35.04 -144.34Z" fill="#E2DED7" fill-opacity="1.000000" fill-rule="evenodd"/>
		<path id="Oval-Copy-3" d="M61.05 -50.87C13.95 -286.76 126.84 -395.76 248.09 -434.17C304.13 -451.92 376.46 -466.67 440.71 -429.3C515.18 -385.99 580.49 -274.85 599.21 -168.69C600.85 -159.39 602.67 -149.96 604.56 -140.44L605.37 -136.36L606.19 -132.26L609.08 -117.87L609.9 -113.74L610.72 -109.6L611.53 -105.47C620.85 -57.86 628.56 -9.6 621.39 33.34C600.82 156.51 519.82 250.9 437.09 265.49C364.29 278.33 268.1 228.07 188.09 154.08C131.23 101.5 80.62 47.12 61.05 -50.87ZM99.77 -311.5C60.46 -246.97 49.01 -160.98 70.62 -52.78C79.55 -8.03 95.41 29.22 118.64 63.12C131.89 82.47 146.68 99.9 166.39 119.74L168.1 121.45C169.52 122.88 170.98 124.32 172.46 125.77L174.25 127.53C174.55 127.82 174.85 128.11 175.15 128.41L176.98 130.18L178.84 131.97C179.46 132.57 180.09 133.17 180.72 133.78L182.63 135.6C182.96 135.91 183.28 136.21 183.6 136.52L185.55 138.37L187.54 140.24L189.55 142.12C189.89 142.44 190.23 142.75 190.57 143.07L192.62 144.99C193.32 145.63 194.01 146.27 194.71 146.92C278.41 224.32 370.31 267.36 435.39 255.89C473.85 249.1 512.87 223.51 544.98 183.98C578.31 142.96 602.09 89.66 611.77 31.74C614.84 13.35 615.21 -7.04 613.21 -30.3L613.1 -31.58L612.98 -32.86L612.86 -34.15L612.73 -35.45L612.6 -36.74L612.47 -38.05L612.26 -40.01L612.11 -41.33L611.96 -42.65L611.81 -43.98L611.65 -45.32L611.48 -46.66L611.32 -48.01L611.05 -50.05L610.78 -52.11L610.5 -54.18L610.3 -55.58L610.1 -56.99L609.89 -58.4L609.68 -59.83L609.36 -61.99L609.02 -64.17L608.79 -65.65L608.43 -67.87L608.07 -70.13L607.69 -72.42L607.29 -74.74L606.89 -77.08L606.47 -79.46L605.9 -82.69L605.3 -85.98L604.69 -89.34L604.37 -91.04L603.88 -93.63L603.07 -97.87L602.01 -103.35L600.73 -109.83L594.76 -139.71L593.34 -146.94L592.35 -152.03L591.74 -155.28L591.1 -158.68L590.73 -160.75L590.17 -163.84L589.8 -165.93C589.73 -166.28 589.67 -166.64 589.61 -166.99C571.02 -272.4 506.33 -379.85 435.8 -420.87C407.7 -437.22 376.42 -443.95 341.69 -442.66C324.25 -442 306.55 -439.43 287.58 -435.02L285.74 -434.59L283.89 -434.14C281.42 -433.54 278.93 -432.91 276.41 -432.25L274.52 -431.75C272.62 -431.25 270.71 -430.72 268.79 -430.18L266.86 -429.64C266.54 -429.55 266.21 -429.45 265.89 -429.36L263.94 -428.8C263.62 -428.7 263.3 -428.61 262.97 -428.51L261.01 -427.93L259.03 -427.34L257.05 -426.74C256.72 -426.64 256.39 -426.54 256.06 -426.44L254.06 -425.82C253.05 -425.5 252.05 -425.19 251.03 -424.87C186.1 -404.3 133.16 -366.3 99.77 -311.5Z" fill="#E2DED7" fill-opacity="1.000000" fill-rule="evenodd"/>
		<path id="Oval-Copy-4" d="M102.37 -72.99C83.93 -165.34 101.21 -229.66 123.89 -280.32C152.89 -345.11 197.47 -384.21 259.82 -395.21C311.12 -404.25 395.13 -394.27 449.41 -360.44C503.7 -326.61 543.9 -248.97 560.44 -155.23C578.1 -55.03 578.24 54.14 538.71 129.29C508.64 186.46 460.44 218.82 412.43 227.28C343.24 239.48 279.01 206.75 209.25 117.75L206.71 114.51L204.15 111.27L196.42 101.46L193.82 98.16C193.39 97.61 192.96 97.06 192.53 96.51L189.93 93.19C153.1 46.12 115.85 -5.52 102.37 -72.99ZM107.37 -190.91C102.29 -155.38 103.48 -117.23 111.94 -74.9C118.08 -44.15 129.59 -15.26 146.5 14.02L147.31 15.41L148.12 16.8L148.93 18.18L149.75 19.55C150.03 20.01 150.3 20.47 150.58 20.93L151.41 22.3L152.24 23.67L153.09 25.04C153.23 25.26 153.37 25.49 153.51 25.72L154.36 27.09L155.22 28.45L156.09 29.82L156.96 31.19C157.11 31.42 157.26 31.65 157.41 31.88L158.29 33.25L159.19 34.62L160.1 36L161.02 37.39L161.94 38.77C162.1 39 162.25 39.24 162.41 39.47L163.35 40.86L164.3 42.27L165.27 43.67L166.25 45.09L167.23 46.51L168.23 47.95L169.25 49.39C169.42 49.63 169.59 49.87 169.76 50.11L170.8 51.57L171.84 53.03L172.91 54.51L173.98 56L175.07 57.5L176.18 59.02L177.3 60.54L178.44 62.09L179.6 63.64C179.79 63.9 179.99 64.17 180.18 64.43L181.36 66.01L182.56 67.6L184.39 70.03L185.64 71.67L187.54 74.16L188.83 75.85L190.8 78.42L192.14 80.15L194.19 82.8L196.29 85.49L197.71 87.32L208.07 100.49L216.93 111.74C283.71 196.94 344.61 229.34 410.74 217.68C458.93 209.18 502.97 176.27 530.08 124.75C564.99 58.38 570.5 -42.02 550.83 -153.53C534.42 -246.62 494.84 -320.64 444.26 -352.16C419.75 -367.44 387.24 -378.5 351.93 -384.28C319.33 -389.61 286.48 -390.01 261.51 -385.6C203.31 -375.34 160.92 -339.18 132.79 -276.34C120.04 -247.85 111.61 -220.64 107.37 -190.91Z" fill="#E2DED7" fill-opacity="1.000000" fill-rule="evenodd"/>
		<path id="Oval-Copy-5" d="M134.43 -86.39C115.22 -182.62 135.45 -242.46 161.49 -286.21C187.23 -329.47 214.28 -367.59 264.51 -376.45C365.54 -394.26 525.17 -311.05 553.46 -150.62C567.65 -70.11 556.29 14.29 531.64 85.93C507.18 157.04 461.09 205.65 410.76 214.53C364.2 222.74 308.88 208.12 260.21 162.6C203.27 109.35 155.03 16.77 134.43 -86.39ZM140.59 -204.23C134.43 -170.46 135.2 -132.36 144 -88.3C163.87 11.24 210.5 102.76 266.87 155.48C310.69 196.46 362.35 213.16 409.06 204.92C455.61 196.71 499.09 150.57 522.42 82.76C548.44 7.13 556.91 -74.85 543.85 -148.93C531.12 -221.1 489.84 -281.62 430.73 -322.34C377.62 -358.93 314.96 -375.44 266.2 -366.84C244.65 -363.04 226.87 -353.27 210.67 -337.29L209.86 -336.48C208.92 -335.54 207.99 -334.59 207.07 -333.61L206.28 -332.77C205.62 -332.07 204.96 -331.35 204.31 -330.63L203.53 -329.75L202.75 -328.87C202.23 -328.28 201.71 -327.68 201.19 -327.07L200.42 -326.15C199.9 -325.53 199.38 -324.91 198.87 -324.28L198.09 -323.33C197.96 -323.17 197.84 -323.01 197.71 -322.84L196.93 -321.87C196.67 -321.55 196.41 -321.22 196.16 -320.89L195.38 -319.89L194.6 -318.87L193.82 -317.85C193.69 -317.68 193.57 -317.5 193.43 -317.33L192.65 -316.28L191.87 -315.21L191.09 -314.14C190.69 -313.59 190.3 -313.04 189.9 -312.49L189.11 -311.37L188.32 -310.23L187.52 -309.08C187.38 -308.89 187.25 -308.69 187.12 -308.5L186.31 -307.32L185.5 -306.13L184.69 -304.91L183.87 -303.68L183.04 -302.43L182.21 -301.16L181.38 -299.87L180.54 -298.56L179.69 -297.24L178.84 -295.89L177.98 -294.52L177.11 -293.13L176.23 -291.72L175.35 -290.29L174.46 -288.83L173.56 -287.36L172.19 -285.1L171.27 -283.57L169.87 -281.23C155.47 -257.02 145.72 -232.44 140.59 -204.23Z" fill="#E2DED7" fill-opacity="1.000000" fill-rule="evenodd"/>
		<path id="Oval-Copy-6" d="M292.72 232.62C195.17 165.7 84.72 -1.23 74.51 -90.79C67.39 -153.24 76.95 -248.48 110.02 -311.24C146.18 -379.85 201.9 -400.34 237.12 -406.55C238.14 -406.73 239.17 -406.91 240.2 -407.1L242.27 -407.48C242.61 -407.54 242.96 -407.61 243.3 -407.67L245.39 -408.06L247.48 -408.46L249.59 -408.86L253.84 -409.69L262.46 -411.37L265.73 -412.01L267.93 -412.43L271.24 -413.05C271.61 -413.12 271.98 -413.19 272.35 -413.26L274.57 -413.67C275.31 -413.81 276.05 -413.94 276.8 -414.08L279.03 -414.48C301.84 -418.5 325.89 -421.45 350.12 -419.05C468.74 -407.32 554.03 -322.94 582.48 -161.58L583.4 -156.34L584.03 -152.72L584.68 -149L585.34 -145.17C595.34 -86.42 608.06 5.77 586.81 84.35C565.7 162.38 505.68 226.97 473.6 232.62C468.53 233.52 462.02 235.86 454.28 238.79L447.54 241.35C411.57 254.98 354.23 274.82 292.72 232.62ZM83.06 -91.76C87.81 -50.11 116.05 12 158.01 74.61C200.64 138.21 251.89 194.18 297.59 225.53C310.53 234.4 323.66 240.66 337.02 244.55C355.47 249.93 374.11 250.78 393.51 247.87C399.03 247.04 404.39 245.97 409.85 244.61L411.17 244.28C414.9 243.33 418.69 242.24 422.63 241L424.02 240.56L425.43 240.11C425.67 240.03 425.91 239.95 426.14 239.87L427.57 239.4L429.01 238.91L430.47 238.41C430.72 238.33 430.96 238.24 431.21 238.16L432.69 237.64C432.94 237.55 433.19 237.46 433.44 237.37L434.95 236.84C435.21 236.74 435.46 236.65 435.71 236.56L437.25 236C437.51 235.91 437.77 235.81 438.03 235.72L439.6 235.14L453.45 229.92L456.41 228.82L457.47 228.43L458.87 227.93L460.11 227.49L460.91 227.22L461.69 226.96L462.82 226.58L463.56 226.35L464.28 226.12L464.98 225.91L465.66 225.7C465.78 225.67 465.89 225.63 466 225.6L466.66 225.41L467.31 225.23L467.95 225.07L468.57 224.91L469.19 224.76L469.79 224.62L470.38 224.49C470.97 224.36 471.54 224.25 472.1 224.15C485.79 221.73 507.38 205.09 527.64 180.19C550.48 152.13 568.97 117.35 578.5 82.1C588.82 43.96 591.67 0 588.57 -49.16C587.32 -68.89 585.15 -88.98 582.15 -110.13L581.75 -112.88C581.69 -113.33 581.62 -113.79 581.55 -114.24L581.15 -116.93L580.85 -118.99L580.65 -120.27L580.3 -122.58L579.81 -125.73L579.39 -128.42L578.68 -132.79L577.94 -137.3L577.45 -140.23L576.62 -145.1L575.5 -151.6L574.39 -157.93L574.01 -160.08C546.99 -313.3 467.56 -398.79 349.27 -410.49C340.35 -411.37 331.1 -411.53 321.32 -411.03L319.78 -410.94L318.23 -410.85L317.21 -410.78L316.19 -410.71L315.18 -410.64L314.16 -410.56L313.15 -410.48L311.64 -410.35L310.63 -410.26L309.12 -410.12L308.1 -410.02L307.09 -409.92L306.07 -409.81L305.05 -409.69L304.02 -409.57L302.46 -409.39L301.41 -409.26L300.36 -409.12L299.29 -408.98L298.21 -408.83L296.58 -408.6L295.47 -408.44L294.35 -408.28L292.64 -408.02L290.9 -407.75L289.12 -407.46L287.91 -407.26L286.68 -407.06L284.79 -406.74L282.86 -406.4L280.87 -406.05L278.84 -405.69L276.03 -405.18L273.85 -404.77L270.84 -404.21L268.51 -403.77L266.1 -403.31L263.62 -402.83L250.37 -400.25L245.6 -399.34L242.16 -398.71L239.75 -398.27L238.62 -398.07C217.94 -394.43 197.61 -387.11 178.53 -375.02C154.21 -359.62 133.55 -337.42 117.64 -307.22C102.5 -278.51 91.61 -240.97 85.71 -199.68C80.33 -162 79.48 -123.18 83.06 -91.76Z" fill="#E2DED7" fill-opacity="1.000000" fill-rule="evenodd"/>
	</g>
</svg>
