<svg width="120" height="25" viewBox="0 0 120 25" fill="none" xmlns="http://www.w3.org/2000/svg">
<path d="M12 18.4367L18.18 22.1667L16.54 15.1367L22 10.4067L14.81 9.79675L12 3.16675L9.19 9.79675L2 10.4067L7.46 15.1367L5.82 22.1667L12 18.4367Z" fill="#EAB308"/>
<path d="M36 18.4367L42.18 22.1667L40.54 15.1367L46 10.4067L38.81 9.79675L36 3.16675L33.19 9.79675L26 10.4067L31.46 15.1367L29.82 22.1667L36 18.4367Z" fill="#EAB308"/>
<path d="M60 18.4367L66.18 22.1667L64.54 15.1367L70 10.4067L62.81 9.79675L60 3.16675L57.19 9.79675L50 10.4067L55.46 15.1367L53.82 22.1667L60 18.4367Z" fill="#EAB308"/>
<path d="M94 10.4067L86.81 9.78675L84 3.16675L81.19 9.79675L74 10.4067L79.46 15.1367L77.82 22.1667L84 18.4367L90.18 22.1667L88.55 15.1367L94 10.4067ZM84 16.5667V7.26675L85.71 11.3067L90.09 11.6867L86.77 14.5667L87.77 18.8467L84 16.5667Z" fill="#EAB308"/>
<path d="M118 10.4067L110.81 9.78675L108 3.16675L105.19 9.79675L98 10.4067L103.46 15.1367L101.82 22.1667L108 18.4367L114.18 22.1667L112.55 15.1367L118 10.4067ZM108 16.5667L104.24 18.8367L105.24 14.5567L101.92 11.6767L106.3 11.2967L108 7.26675L109.71 11.3067L114.09 11.6867L110.77 14.5667L111.77 18.8467L108 16.5667Z" fill="#EAB308"/>
</svg>
