<svg width="116.000000" height="18.888672" viewBox="0 0 116 18.8887" fill="none"
   xmlns="http://www.w3.org/2000/svg" xmlns:xlink="http://www.w3.org/1999/xlink">
   <defs>
      <clipPath id="clip5_5556">
         <rect id="Stars" rx="0.000000" width="114.999756" height="17.888910"
            transform="translate(0.500000 0.500000)" fill="white" fill-opacity="0" />
      </clipPath>
   </defs>
   <rect id="Stars" rx="0.000000" width="114.999756" height="17.888910"
      transform="translate(0.500000 0.500000)" fill="#FFFFFF" fill-opacity="0" />
   <g clip-path="url(#clip5_5556)">
      <path id="Vector"
         d="M9.07 0.61C9.41 -0.21 10.58 -0.21 10.92 0.61L12.95 5.43C13.1 5.77 13.42 6.01 13.8 6.04L19.07 6.45C19.96 6.52 20.32 7.62 19.64 8.2L15.63 11.59C15.34 11.84 15.22 12.22 15.31 12.58L16.53 17.66C16.74 18.52 15.79 19.2 15.03 18.74L10.52 16.01C10.2 15.82 9.79 15.82 9.47 16.01L4.96 18.74C4.2 19.2 3.25 18.52 3.46 17.66L4.68 12.58C4.77 12.22 4.65 11.84 4.36 11.59L0.35 8.2C-0.33 7.62 0.03 6.52 0.92 6.45L6.19 6.04C6.57 6.01 6.89 5.77 7.04 5.43L9.07 0.61Z"
         fill="#F5BF21" fill-opacity="1.000000" fill-rule="nonzero" />
      <path id="Vector"
         d="M33.07 0.61C33.41 -0.21 34.58 -0.21 34.92 0.61L36.95 5.43C37.1 5.77 37.42 6.01 37.8 6.04L43.07 6.45C43.96 6.52 44.32 7.62 43.64 8.2L39.63 11.59C39.34 11.84 39.22 12.22 39.31 12.58L40.53 17.66C40.74 18.52 39.79 19.2 39.03 18.74L34.52 16.01C34.2 15.82 33.79 15.82 33.47 16.01L28.96 18.74C28.2 19.2 27.25 18.52 27.46 17.66L28.68 12.58C28.77 12.22 28.65 11.84 28.36 11.59L24.35 8.2C23.67 7.62 24.03 6.52 24.92 6.45L30.19 6.04C30.57 6.01 30.89 5.77 31.04 5.43L33.07 0.61Z"
         fill="#F5BF21" fill-opacity="1.000000" fill-rule="nonzero" />
      <path id="Vector"
         d="M57.07 0.61C57.41 -0.21 58.58 -0.21 58.92 0.61L60.95 5.43C61.1 5.77 61.42 6.01 61.8 6.04L67.07 6.45C67.96 6.52 68.32 7.62 67.64 8.2L63.63 11.59C63.34 11.84 63.22 12.22 63.31 12.58L64.53 17.66C64.74 18.52 63.79 19.2 63.03 18.74L58.52 16.01C58.2 15.82 57.79 15.82 57.47 16.01L52.96 18.74C52.2 19.2 51.25 18.52 51.46 17.66L52.68 12.58C52.77 12.22 52.65 11.84 52.36 11.59L48.35 8.2C47.67 7.62 48.03 6.52 48.92 6.45L54.19 6.04C54.57 6.01 54.89 5.77 55.04 5.43L57.07 0.61Z"
         fill="#F5BF21" fill-opacity="1.000000" fill-rule="nonzero" />
      <path id="Vector"
         d="M81.07 0.61C81.41 -0.21 82.58 -0.21 82.92 0.61L84.95 5.43C85.1 5.77 85.42 6.01 85.8 6.04L91.07 6.45C91.96 6.52 92.32 7.62 91.64 8.2L87.63 11.59C87.34 11.84 87.22 12.22 87.31 12.58L88.53 17.66C88.74 18.52 87.79 19.2 87.03 18.74L82.52 16.01C82.2 15.82 81.79 15.82 81.47 16.01L76.96 18.74C76.2 19.2 75.25 18.52 75.46 17.66L76.68 12.58C76.77 12.22 76.65 11.84 76.36 11.59L72.35 8.2C71.67 7.62 72.03 6.52 72.92 6.45L78.19 6.04C78.57 6.01 78.89 5.77 79.04 5.43L81.07 0.61Z"
         fill="#F5BF21" fill-opacity="1.000000" fill-rule="nonzero" />
      <path id="Vector"
         d="M105.07 0.61C105.41 -0.21 106.58 -0.21 106.93 0.61L108.95 5.43C109.1 5.77 109.43 6.01 109.8 6.04L115.07 6.45C115.96 6.52 116.32 7.62 115.64 8.2L111.63 11.59C111.34 11.84 111.22 12.22 111.31 12.58L112.53 17.66C112.74 18.52 111.79 19.2 111.03 18.74L106.52 16.01C106.2 15.82 105.79 15.82 105.47 16.01L100.96 18.74C100.2 19.2 99.25 18.52 99.46 17.66L100.68 12.58C100.77 12.22 100.65 11.84 100.36 11.59L96.35 8.2C95.67 7.62 96.03 6.52 96.92 6.45L102.19 6.04C102.57 6.01 102.89 5.77 103.04 5.43L105.07 0.61Z"
         fill="#F5BF21" fill-opacity="1.000000" fill-rule="nonzero" />
   </g>
</svg>