<svg width="64.000000" height="64.000000" viewBox="0 0 64 64" fill="none"
   xmlns="http://www.w3.org/2000/svg" xmlns:xlink="http://www.w3.org/1999/xlink">
   <defs>
      <clipPath id="clip238_3616">
         <rect id="Vision" rx="0.000000" width="63.000000" height="63.000000"
            transform="translate(0.500000 0.500000)" fill="white" fill-opacity="0" />
      </clipPath>
   </defs>
   <rect id="Vision" rx="0.000000" width="63.000000" height="63.000000"
      transform="translate(0.500000 0.500000)" fill="#FFFFFF" fill-opacity="0" />
   <g clip-path="url(#clip238_3616)">
      <path id="Vector"
         d="M64 32C64 49.65 49.65 64 32 64C14.34 64 0 49.65 0 32C0 14.34 14.34 0 32 0C33.94 0 35.91 0.18 37.81 0.53C39.25 0.8 40.21 2.18 39.94 3.62C39.68 5.06 38.29 6.02 36.85 5.76C35.27 5.46 33.62 5.33 32 5.33C17.3 5.33 5.33 17.3 5.33 32C5.33 46.69 17.3 58.66 32 58.66C46.69 58.66 58.66 46.69 58.66 32C58.66 30.37 58.5 28.74 58.24 27.14C57.97 25.7 58.93 24.31 60.37 24.05C61.83 23.78 63.2 24.74 63.46 26.18C63.81 28.08 64 30.05 64 32ZM34.29 16.16C35.75 16.37 37.09 15.36 37.3 13.89C37.52 12.42 36.5 11.09 35.04 10.88C34.02 10.74 33.01 10.66 32 10.66C20.24 10.66 10.66 20.24 10.66 32C10.66 43.76 20.24 53.33 32 53.33C43.75 53.33 53.33 43.76 53.33 32C53.33 30.98 53.25 29.97 53.12 28.96C52.9 27.49 51.57 26.48 50.1 26.69C48.64 26.9 47.62 28.24 47.83 29.7C47.94 30.45 48 31.22 48 32C48 40.82 40.82 48 32 48C23.17 48 16 40.82 16 32C16 23.17 23.17 16 32 16C32.77 16 33.54 16.05 34.29 16.16ZM28.45 28.02C29.54 27.04 29.65 25.36 28.66 24.26C27.68 23.17 26 23.06 24.9 24.05C22.64 26.08 21.35 28.98 21.35 32C21.35 37.89 26.13 42.66 32.02 42.66C35.06 42.66 37.94 41.36 39.97 39.12C40.96 38.02 40.85 36.34 39.75 35.36C38.66 34.37 36.98 34.48 36 35.57C34.98 36.69 33.54 37.36 32.02 37.36C29.09 37.36 26.69 34.96 26.69 32.02C26.69 30.5 27.33 29.06 28.48 28.05L28.45 28.02ZM32.79 27.43C31.75 28.48 31.75 30.16 32.79 31.2C33.33 31.73 34 31.97 34.69 31.97C35.38 31.97 36.05 31.7 36.58 31.2L49.14 18.64L56.05 18.64C56.77 18.64 57.43 18.34 57.94 17.86L63.27 12.53C64.05 11.76 64.26 10.61 63.86 9.62C63.46 8.64 62.48 7.97 61.41 7.97L56.08 7.97L56.08 2.66C56.08 1.59 55.43 0.61 54.42 0.21C53.41 -0.22 52.29 0.02 51.52 0.8L46.18 6.13C45.68 6.64 45.41 7.3 45.41 8.02L45.41 14.93L32.85 27.49L32.79 27.43Z"
         fill="#D63517" fill-opacity="1.000000" fill-rule="nonzero" />
   </g>
</svg>