<svg width="64.000000" height="64.000000" viewBox="0 0 64 64" fill="none"
   xmlns="http://www.w3.org/2000/svg" xmlns:xlink="http://www.w3.org/1999/xlink">
   <defs>
      <clipPath id="clip238_3621">
         <rect id="Mission" rx="0.000000" width="63.000000" height="63.000000"
            transform="translate(0.500000 0.500000)" fill="white" fill-opacity="0" />
      </clipPath>
   </defs>
   <rect id="Mission" rx="0.000000" width="63.000000" height="63.000000"
      transform="translate(0.500000 0.500000)" fill="#FFFFFF" fill-opacity="0" />
   <g clip-path="url(#clip238_3621)">
      <path id="Vector"
         d="M28.65 35.41L29.13 36.64L21.14 56.97C20.61 58.35 19.02 59.01 17.69 58.48C16.32 57.94 15.64 56.39 16.18 55.02L22.11 39.92C24.39 38.61 26.56 36.65 28.65 35.41ZM63.16 15.8C62.27 14.39 60.81 13.49 59.16 13.34C57.9 13.22 55.96 12.92 55.32 12.7C52.26 11.41 49.16 7.21 45.77 6.1C44.17 5.51 42.25 5.27 40.02 5.34C38.01 5.42 36.2 6.38 35.01 7.86C35.02 7.89 35.03 7.9 35.04 7.93L37.72 14.76L38.98 11.55C39.17 11.04 39.66 10.69 40.22 10.67C41.7 10.61 43 10.76 43.94 11.11C47.03 12.49 50.12 16.69 53.6 17.75C55.02 18.23 57.76 18.56 58.72 18.53L53.32 30.76C52.53 32.66 50.08 31.91 48.69 31.45C46.92 30.79 44.58 28.77 42.73 27.5L46.12 36.13C47.55 36.82 49.04 37.13 50.74 37.31C53.87 37.59 56.9 35.85 58.2 32.91L63.67 20.52C64.25 18.94 64.06 17.22 63.17 15.8L63.16 15.8ZM47.81 55.02C48.35 56.39 47.67 57.94 46.3 58.48C44.97 59.01 43.38 58.35 42.85 56.97L32.28 30.07C30.93 29.87 28.61 29.72 26.98 30.32C25.74 30.77 24.22 31.91 22.74 33.02C19.83 35.3 16.99 37.06 13.25 37.31C10.08 37.62 7.09 35.85 5.79 32.91L0.39 20.68C-0.26 18.94 -0.07 17.22 0.83 15.8C1.72 14.39 3.17 13.49 4.83 13.34C8.45 13.1 9.96 12.39 12.67 9.86C15.96 6.79 19.2 5.03 23.96 5.34C26.71 5.45 29.09 7.17 30.02 9.74L47.81 55.02ZM30.11 24.56L25.03 11.62C24.75 10.78 23.93 10.61 23.17 10.66C19.98 10.58 18.64 11.74 16.15 13.91C13.4 16.81 9.01 18.63 5.32 18.65L10.67 30.76C11.04 31.59 11.88 32.09 12.74 32C15.54 31.8 17.12 30.58 19.54 28.75C21.33 27.42 23.17 26.03 25.15 25.31C26.78 24.72 28.55 24.53 30.11 24.56L30.11 24.56Z"
         fill="#D63517" fill-opacity="1.000000" fill-rule="nonzero" />
   </g>
</svg>