<svg width="32" height="33" viewBox="0 0 32 33" fill="none" xmlns="http://www.w3.org/2000/svg">
   <g clip-path="url(#clip0_238_4376)">
      <path
         d="M10.6667 16.5C15.0787 16.5 18.6667 12.912 18.6667 8.5C18.6667 4.088 15.0787 0.5 10.6667 0.5C6.25467 0.5 2.66667 4.088 2.66667 8.5C2.66667 12.912 6.25467 16.5 10.6667 16.5ZM10.6667 3.16667C13.608 3.16667 16 5.55867 16 8.5C16 11.4413 13.608 13.8333 10.6667 13.8333C7.72533 13.8333 5.33333 11.4413 5.33333 8.5C5.33333 5.55867 7.72533 3.16667 10.6667 3.16667ZM13.3333 20.5C13.3333 21.236 12.736 21.8333 12 21.8333C6.85333 21.8333 2.66667 26.02 2.66667 31.1667C2.66667 31.9027 2.06933 32.5 1.33333 32.5C0.597333 32.5 0 31.9027 0 31.1667C0 24.5507 5.384 19.1667 12 19.1667C12.736 19.1667 13.3333 19.764 13.3333 20.5ZM31.5253 24.1693L28.3707 26.7387L29.676 30.712C29.8547 31.2493 29.6733 31.8413 29.224 32.1867C28.7747 32.532 28.156 32.556 27.6827 32.248L24.0107 29.8573L20.4 32.2733C20.176 32.424 19.9173 32.4987 19.6587 32.4987C19.3773 32.4987 19.096 32.4093 18.8587 32.232C18.4053 31.8933 18.2173 31.304 18.3867 30.764L19.6413 26.7427L16.472 24.164C16.0453 23.8027 15.8893 23.2133 16.0827 22.688C16.276 22.1627 16.7747 21.8147 17.3333 21.8147H21.3347L22.7507 17.8413C22.9453 17.32 23.444 16.9733 24 16.9733C24.556 16.9733 25.056 17.32 25.2493 17.8413L26.6653 21.8147H30.6667C31.2267 21.8147 31.7267 22.1653 31.9187 22.6907C32.1107 23.216 31.9533 23.8067 31.5253 24.168V24.1693Z"
         fill="white" />
   </g>
   <defs>
      <clipPath id="clip0_238_4376">
         <rect width="32" height="32" fill="white" transform="translate(0 0.5)" />
      </clipPath>
   </defs>
</svg>
   