<svg width="32" height="33" viewBox="0 0 32 33" fill="none" xmlns="http://www.w3.org/2000/svg">
   <g clip-path="url(#clip0_238_4381)">
   <path d="M25.3333 3.16667H24V1.83333C24 1.1 23.4 0.5 22.6667 0.5C21.9333 0.5 21.3333 1.1 21.3333 1.83333V3.16667H10.6667V1.83333C10.6667 1.1 10.0667 0.5 9.33333 0.5C8.6 0.5 8 1.1 8 1.83333V3.16667H6.66667C2.98667 3.16667 0 6.15333 0 9.83333V25.8333C0 29.5133 2.98667 32.5 6.66667 32.5H25.3333C29.0133 32.5 32 29.5133 32 25.8333V9.83333C32 6.15333 29.0133 3.16667 25.3333 3.16667ZM14.6667 12.5V16.5H10.6667V12.5H14.6667ZM21.3333 12.5V16.5H17.3333V12.5H21.3333ZM29.3333 12.5V16.5H24V12.5H29.3333ZM8 16.5H2.66667V12.5H8V16.5ZM2.66667 19.1667H8V23.1667H2.66667V19.1667ZM10.6667 19.1667H14.6667V23.1667H10.6667V19.1667ZM14.6667 25.8333V29.8333H10.6667V25.8333H14.6667ZM17.3333 25.8333H21.3333V29.8333H17.3333V25.8333ZM17.3333 23.1667V19.1667H21.3333V23.1667H17.3333ZM24 19.1667H29.3333V23.1667H24V19.1667ZM6.66667 5.83333H25.3333C27.5333 5.83333 29.3333 7.63333 29.3333 9.83333H2.66667C2.66667 7.63333 4.46667 5.83333 6.66667 5.83333ZM2.66667 25.8333H8V29.8333H6.66667C4.46667 29.8333 2.66667 28.0333 2.66667 25.8333ZM25.3333 29.8333H24V25.8333H29.3333C29.3333 28.0333 27.5333 29.8333 25.3333 29.8333Z" fill="white"/>
   </g>
   <defs>
   <clipPath id="clip0_238_4381">
   <rect width="32" height="32" fill="white" transform="translate(0 0.5)"/>
   </clipPath>
   </defs>
   </svg>
   