<svg width="32" height="33" viewBox="0 0 32 33" fill="none" xmlns="http://www.w3.org/2000/svg">
   <g clip-path="url(#clip0_238_4386)">
   <path d="M26.6667 13.8333V23.1667C26.6667 24.6373 25.4707 25.8333 24 25.8333H14.6667C13.196 25.8333 12 24.6373 12 23.1667V12.5C12 11.764 12.596 11.1667 13.3333 11.1667C14.0707 11.1667 14.6667 11.764 14.6667 12.5V23.1667H18.6667V19.1667C18.6667 18.4307 19.2627 17.8333 20 17.8333C20.7373 17.8333 21.3333 18.4307 21.3333 19.1667V23.1667H24V13.8333H18.6667C17.9293 13.8333 17.3333 13.236 17.3333 12.5C17.3333 11.764 17.9293 11.1667 18.6667 11.1667H24C25.4707 11.1667 26.6667 12.3627 26.6667 13.8333ZM32 12.5V25.8333C32 29.5147 29.0147 32.5 25.3333 32.5H4.85733C2.17467 32.5 0 30.3253 0 27.6427V5.16667C0 2.58933 2.08933 0.5 4.66667 0.5H5.33333C7.54267 0.5 9.33333 2.29067 9.33333 4.5V5.83333H25.3333C29.0147 5.83333 32 8.81867 32 12.5ZM2.66667 23.6173C3.28533 23.324 3.96933 23.1667 4.66667 23.1667H5.33333C6.06933 23.1667 6.66667 22.568 6.66667 21.8333V4.5C6.66667 3.76533 6.06933 3.16667 5.33333 3.16667H4.66667C3.564 3.16667 2.66667 4.064 2.66667 5.16667V23.6173ZM29.3333 12.5C29.3333 10.2907 27.5427 8.5 25.3333 8.5H9.33333V21.8333C9.33333 24.0427 7.54267 25.8333 5.33333 25.8333H4.66667C3.56267 25.8333 2.66667 26.7293 2.66667 27.8333C2.66667 28.9373 3.56267 29.8333 4.66667 29.8333H25.3333C27.5427 29.8333 29.3333 28.0427 29.3333 25.8333V12.5Z" fill="white"/>
   </g>
   <defs>
   <clipPath id="clip0_238_4386">
   <rect width="32" height="32" fill="white" transform="translate(0 0.5)"/>
   </clipPath>
   </defs>
   </svg>
   