<svg xmlns="http://www.w3.org/2000/svg" style="display: none;">
   <symbol id="icon-arrow-down" width="11.668" height="5.97763" viewBox="0 0 11.668 5.97763">
      <path
         d="M11.42 0.24C11.34 0.16 11.25 0.1 11.15 0.06C11.05 0.02 10.94 0 10.83 0C10.72 0 10.61 0.02 10.51 0.06C10.41 0.1 10.31 0.16 10.24 0.24L6.42 4.06C6.34 4.14 6.25 4.2 6.15 4.24C6.05 4.28 5.94 4.3 5.83 4.3C5.72 4.3 5.61 4.28 5.51 4.24C5.41 4.2 5.31 4.14 5.24 4.06L1.42 0.24C1.34 0.16 1.25 0.1 1.15 0.06C1.05 0.02 0.94 0 0.83 0C0.72 0 0.61 0.02 0.51 0.06C0.41 0.1 0.31 0.16 0.24 0.24C0.08 0.4 0 0.61 0 0.83C0 1.05 0.08 1.26 0.24 1.42L4.06 5.24C4.53 5.71 5.17 5.97 5.83 5.97C6.49 5.97 7.13 5.71 7.6 5.24L11.42 1.42C11.58 1.26 11.66 1.05 11.66 0.83C11.66 0.61 11.58 0.4 11.42 0.24Z"
         fill="currentColor" fill-opacity="1.000000" fill-rule="nonzero" />
   </symbol>

   <symbol id="icon-mail" width="12" height="12" viewBox="0 0 12 12">
      <path id="Vector"
         d="M11.97 2.77L7.76 6.98C7.29 7.44 6.66 7.71 6 7.71C5.33 7.71 4.7 7.44 4.23 6.98L0.02 2.77C0.01 2.85 0 2.92 0 3L0 9C0 9.66 0.26 10.29 0.73 10.76C1.2 11.23 1.83 11.49 2.5 11.5L9.5 11.5C10.16 11.49 10.79 11.23 11.26 10.76C11.73 10.29 11.99 9.66 12 9L12 3C12 2.92 11.98 2.85 11.97 2.77Z"
      />
      <path id="Vector"
         d="M7.06 6.27L11.62 1.7C11.4 1.33 11.09 1.03 10.72 0.82C10.34 0.61 9.92 0.5 9.5 0.5L2.5 0.5C2.07 0.5 1.65 0.61 1.27 0.82C0.9 1.03 0.59 1.33 0.37 1.7L4.93 6.27C5.22 6.55 5.6 6.71 6 6.71C6.39 6.71 6.77 6.55 7.06 6.27Z"
      />
   </symbol>

   <symbol id="icon-phone" width="12" height="12" viewBox="0 0 12 12">
      <path id="Vector"
         d="M11.5 5.5C11.36 5.5 11.24 5.44 11.14 5.35C11.05 5.25 11 5.13 11 5C10.99 3.93 10.57 2.92 9.82 2.17C9.07 1.42 8.06 1 7 1C6.86 1 6.74 0.94 6.64 0.85C6.55 0.75 6.5 0.63 6.5 0.5C6.5 0.36 6.55 0.24 6.64 0.14C6.74 0.05 6.86 0 7 0C8.32 0 9.59 0.52 10.53 1.46C11.47 2.4 11.99 3.67 12 5C12 5.13 11.94 5.25 11.85 5.35C11.76 5.44 11.63 5.5 11.5 5.5ZM10 5C10 4.2 9.68 3.44 9.12 2.87C8.55 2.31 7.79 2 7 2C6.86 2 6.74 2.05 6.64 2.14C6.55 2.24 6.5 2.36 6.5 2.5C6.5 2.63 6.55 2.75 6.64 2.85C6.74 2.94 6.86 3 7 3C7.53 3 8.03 3.21 8.41 3.58C8.78 3.96 9 4.46 9 5C9 5.13 9.05 5.25 9.14 5.35C9.24 5.44 9.36 5.5 9.5 5.5C9.63 5.5 9.76 5.44 9.85 5.35C9.94 5.25 10 5.13 10 5ZM11.09 11.08L11.54 10.55C11.83 10.26 11.99 9.87 11.99 9.46C11.99 9.05 11.83 8.65 11.54 8.36C11.53 8.35 10.32 7.42 10.32 7.42C10.03 7.15 9.65 7 9.25 7C8.85 7 8.47 7.15 8.18 7.43L7.23 8.23C6.45 7.91 5.75 7.43 5.15 6.84C4.56 6.24 4.08 5.54 3.76 4.76L4.56 3.81C4.84 3.52 4.99 3.14 4.99 2.74C5 2.34 4.84 1.95 4.57 1.67C4.57 1.67 3.64 0.46 3.63 0.45C3.34 0.16 2.95 0 2.55 -0.01C2.14 -0.01 1.75 0.15 1.46 0.43L0.89 0.93C-2.51 4.87 4.81 12.13 8.88 12C9.29 12 9.69 11.92 10.07 11.76C10.45 11.6 10.8 11.37 11.09 11.08Z"
      />
   </symbol>

   <!-- DROPDOWN ICONS -->
   <!-- 1 -->
   <symbol id="icon-dropdown-1" width="24" height="24" viewBox="0 0 24 24">
      <path id="Vector"
         d="M15.51 0.03C15.31 0.1 15.16 0.24 15.06 0.43C15 0.53 15 0.54 15 1.47L14.99 2.4L15.05 2.53C15.13 2.71 15.26 2.84 15.43 2.93C15.87 3.14 16.4 2.85 16.48 2.37C16.49 2.28 16.5 1.89 16.5 1.49C16.5 1.1 16.49 0.71 16.48 0.62C16.42 0.25 16.1 -0.01 15.73 6.1e-5C15.65 0 15.55 0.01 15.51 0.03ZM10.31 2.2C9.82 2.28 9.54 2.84 9.76 3.27C9.81 3.36 10.01 3.57 10.47 4.03C11.2 4.76 11.21 4.76 11.54 4.74C11.74 4.73 11.88 4.67 12.03 4.53C12.17 4.39 12.24 4.23 12.24 4C12.24 3.69 12.22 3.67 11.48 2.93C10.94 2.39 10.81 2.27 10.72 2.24C10.57 2.19 10.44 2.18 10.31 2.2ZM20.9 2.21C20.83 2.22 20.73 2.26 20.65 2.31C20.58 2.35 20.26 2.65 19.94 2.98C19.26 3.67 19.23 3.71 19.25 4.04C19.26 4.26 19.31 4.39 19.46 4.53C19.6 4.68 19.73 4.73 19.95 4.74C20.28 4.76 20.32 4.74 21.04 4.02C21.75 3.31 21.79 3.25 21.79 2.94C21.79 2.72 21.74 2.59 21.58 2.42C21.41 2.24 21.18 2.16 20.9 2.21ZM15.26 3.77C14.66 3.83 13.98 4.06 13.45 4.37C12.67 4.84 12.09 5.47 11.69 6.3C11.38 6.93 11.25 7.53 11.25 8.24C11.25 9.29 11.57 10.22 12.21 11.05C12.49 11.4 13.01 11.87 13.37 12.08L13.47 12.14L13.48 12.9L13.49 13.67L13.55 13.8C13.63 13.96 13.77 14.11 13.93 14.19C14.04 14.24 14.07 14.25 14.52 14.25L14.99 14.26L14.99 15.08C14.99 15.82 15 15.9 15.04 16.01C15.17 16.35 15.51 16.55 15.87 16.49C16.11 16.45 16.33 16.28 16.44 16.05C16.49 15.93 16.49 15.9 16.5 15.09L16.51 14.26L16.97 14.25C17.41 14.25 17.43 14.24 17.56 14.18C17.71 14.11 17.84 13.98 17.92 13.82C17.98 13.72 17.98 13.69 17.99 12.93L18 12.15L18.22 12.01C18.75 11.66 19.12 11.29 19.49 10.74C20.37 9.44 20.49 7.75 19.81 6.32C19.28 5.21 18.32 4.36 17.15 3.97C16.55 3.77 15.88 3.7 15.26 3.77ZM15.29 5.28C14.87 5.34 14.3 5.58 13.93 5.86C13.25 6.37 12.86 7.09 12.76 7.99C12.66 8.81 13.01 9.76 13.63 10.37C13.86 10.6 14.12 10.79 14.46 10.95C14.71 11.08 14.83 11.19 14.92 11.37C14.98 11.48 14.98 11.5 14.99 12.11L14.99 12.74L15.73 12.74L16.47 12.74L16.48 12.13C16.49 11.56 16.5 11.5 16.54 11.4C16.63 11.21 16.75 11.1 17.05 10.94C17.71 10.6 18.11 10.19 18.43 9.56C18.83 8.76 18.84 7.81 18.46 6.99C18.11 6.24 17.43 5.64 16.66 5.4C16.22 5.26 15.71 5.22 15.29 5.28ZM1.93 6.01C0.99 6.16 0.27 6.81 0.04 7.73C0 7.9 0 8.1 0 15C0 21.9 0 22.1 0.04 22.28C0.25 23.11 0.88 23.74 1.71 23.95C1.89 23.99 2.12 24 11.25 24L20.6 24L20.79 23.94C21.62 23.72 22.25 23.07 22.45 22.23C22.49 22.06 22.49 21.75 22.5 17.04C22.51 11.93 22.51 11.83 22.42 11.66C22.35 11.52 22.2 11.38 22.05 11.32C21.91 11.26 21.88 11.25 21.71 11.26C21.48 11.27 21.37 11.32 21.22 11.47C21.16 11.53 21.09 11.62 21.06 11.68L21.01 11.8L21 14.9L20.99 18L19.05 18C17.2 18 17.1 18.01 16.98 18.05C16.56 18.21 16.37 18.71 16.57 19.1C16.64 19.23 16.81 19.38 16.95 19.45L17.07 19.5L19.03 19.51L21 19.52L20.99 20.72L20.98 21.93L20.92 22.06C20.85 22.22 20.65 22.4 20.5 22.46C20.4 22.49 19.92 22.49 15.44 22.49L10.5 22.49L10.5 21.29C10.49 20.09 10.49 20.08 10.43 19.96C10.33 19.73 10.11 19.56 9.87 19.52C9.5 19.46 9.16 19.66 9.03 20C8.99 20.11 8.99 20.2 8.99 21.31L8.99 22.49L7.86 22.49L6.73 22.49L6.72 20.51C6.72 18.52 6.72 18.52 6.67 18.42C6.59 18.29 6.44 18.14 6.3 18.07L6.19 18.02L3.84 18.01L1.5 18L1.5 16.87L1.5 15.75L5.24 15.75L8.99 15.75L8.99 16.58L8.99 17.42L9.06 17.56C9.19 17.83 9.45 18 9.73 18C10.1 18 10.42 17.74 10.48 17.37C10.51 17.17 10.51 15.05 10.47 14.87C10.46 14.79 10.43 14.7 10.41 14.66C10.35 14.53 10.2 14.39 10.06 14.33L9.91 14.26L5.7 14.26L1.5 14.26L1.5 13.13L1.5 12L2.68 12C3.79 12 3.88 12 3.99 11.95C4.33 11.83 4.53 11.48 4.47 11.12C4.43 10.88 4.26 10.66 4.03 10.55C3.91 10.5 3.9 10.5 2.7 10.49L1.49 10.48L1.5 9.26C1.51 8.03 1.51 8.03 1.56 7.92C1.63 7.79 1.78 7.65 1.91 7.58L2.01 7.52L3.7 7.51C4.64 7.5 5.42 7.49 5.46 7.47C5.57 7.43 5.75 7.31 5.82 7.22C6.13 6.83 6 6.28 5.54 6.07L5.4 6L3.69 6C2.75 6 1.96 6.01 1.93 6.01ZM8.1 7.51C7.95 7.54 7.82 7.61 7.7 7.73C7.58 7.86 7.53 7.96 7.5 8.12C7.44 8.48 7.64 8.82 7.98 8.95C8.09 8.99 8.17 9 8.99 9C9.8 9 9.89 8.99 10 8.95C10.34 8.82 10.53 8.48 10.48 8.12C10.44 7.88 10.27 7.66 10.03 7.55C9.91 7.5 9.89 7.5 9.06 7.49C8.59 7.49 8.16 7.5 8.1 7.51ZM21.6 7.51C21.45 7.54 21.26 7.65 21.16 7.78C20.85 8.16 20.98 8.71 21.44 8.93L21.58 9L22.49 9L23.41 9L23.55 8.93C23.82 8.8 24 8.54 24 8.26C24 7.88 23.73 7.57 23.37 7.51C23.18 7.48 21.78 7.48 21.6 7.51ZM1.5 20.7C1.5 21.85 1.5 21.9 1.55 22.03C1.61 22.2 1.79 22.38 1.96 22.44C2.09 22.49 2.13 22.49 3.67 22.49L5.24 22.49L5.24 21.01L5.24 19.52L3.37 19.52L1.5 19.52L1.5 20.7Z"
         fill-rule="evenodd" />
   </symbol>
   <!-- 2 -->
   <symbol id="icon-dropdown-2" width="24" height="24" viewBox="0 0 24 24">
      <path id="Vector"
         d="M9.67 0.05C9.51 0.11 9.32 0.28 9.25 0.44C9.21 0.52 9.2 0.61 9.2 0.74C9.2 1.03 9.25 1.12 9.72 1.59L10.1 1.98L8.05 1.98C6.7 1.98 5.91 1.99 5.75 2.01C4.81 2.11 3.99 2.69 3.57 3.56C3.42 3.86 3.34 4.17 3.3 4.55C3.27 5 3.28 9.86 3.32 9.98C3.39 10.18 3.63 10.41 3.82 10.46C3.99 10.51 4.2 10.49 4.35 10.42C4.52 10.34 4.68 10.18 4.74 10.01C4.79 9.88 4.79 9.85 4.79 7.26C4.79 4.37 4.79 4.45 4.94 4.16C5.11 3.85 5.47 3.58 5.8 3.52C5.88 3.51 6.73 3.5 8.03 3.5L10.13 3.5L9.72 3.91C9.24 4.39 9.2 4.46 9.2 4.74C9.2 5.06 9.36 5.3 9.64 5.43C9.77 5.49 9.81 5.49 9.97 5.48C10.08 5.48 10.2 5.46 10.25 5.43C10.39 5.37 12.54 3.22 12.62 3.07C12.67 2.98 12.68 2.92 12.68 2.74C12.68 2.55 12.67 2.51 12.61 2.4C12.57 2.32 12.24 1.98 11.45 1.19C10.42 0.16 10.34 0.09 10.21 0.04C10.03 -0.02 9.84 -0.02 9.67 0.05ZM16.23 0.02C15.69 0.14 15.26 0.52 15.07 1.03L15 1.2L15 5.1L14.99 8.99L14.55 8.99C14.16 8.99 14.09 9 13.97 9.04C13.53 9.21 13.35 9.8 13.63 10.17C13.73 10.31 13.89 10.42 14.02 10.46C14.1 10.49 15.06 10.49 18.76 10.49L23.41 10.49L23.54 10.43C24.13 10.15 24.14 9.37 23.56 9.06C23.46 9.01 23.42 9 23.03 9L22.6 8.99L22.6 5.12L22.59 1.25L22.53 1.08C22.4 0.68 22.11 0.33 21.75 0.16C21.4 -0.01 21.51 -0.01 18.77 0C17.42 0 16.28 0.01 16.23 0.02ZM16.5 5.25L16.5 8.99L18.8 8.99L21.09 8.99L21.09 8.25L21.09 7.51L19.88 7.5L18.68 7.49L18.54 7.43C18.38 7.35 18.24 7.22 18.16 7.06C18.07 6.88 18.08 6.61 18.17 6.42C18.25 6.25 18.4 6.11 18.58 6.04C18.71 5.99 18.75 5.99 19.9 5.99L21.09 5.99L21.09 5.25L21.09 4.51L19.88 4.5L18.68 4.49L18.54 4.43C18.38 4.35 18.24 4.22 18.16 4.06C18.07 3.88 18.08 3.61 18.17 3.42C18.25 3.25 18.4 3.11 18.58 3.04C18.71 2.99 18.75 2.99 19.9 2.99L21.09 2.99L21.09 2.25L21.09 1.5L18.8 1.5L16.5 1.5L16.5 5.25ZM21.88 13.51C21.72 13.55 21.6 13.62 21.49 13.74C21.38 13.87 21.34 13.95 21.31 14.12C21.29 14.21 21.28 15.08 21.28 16.85C21.28 19.69 21.29 19.54 21.14 19.83C21 20.11 20.62 20.4 20.3 20.46C20.21 20.48 19.49 20.49 17.98 20.49L15.78 20.49L16.17 20.09C16.63 19.62 16.69 19.53 16.68 19.24C16.68 19.02 16.62 18.86 16.47 18.72C16.32 18.57 16.19 18.51 15.97 18.5C15.64 18.48 15.68 18.45 14.43 19.69C13.62 20.5 13.32 20.82 13.27 20.91C13.18 21.08 13.17 21.32 13.24 21.51C13.29 21.65 13.35 21.71 14.39 22.75C15.6 23.97 15.61 23.97 15.9 23.99C16.21 24.01 16.48 23.84 16.62 23.56C16.67 23.45 16.68 23.4 16.68 23.24C16.68 22.95 16.64 22.88 16.17 22.4L15.78 22L18.09 21.99C20.62 21.98 20.5 21.99 20.95 21.84C21.73 21.58 22.41 20.88 22.66 20.08C22.79 19.65 22.79 19.71 22.79 16.79C22.79 14.14 22.79 14.11 22.74 13.97C22.62 13.64 22.24 13.44 21.88 13.51ZM5.99 13.63C5.94 13.65 5.87 13.69 5.82 13.72C5.78 13.75 4.95 14.44 3.99 15.24C3.03 16.05 2.2 16.74 2.15 16.78C2.1 16.82 1.64 17.21 1.12 17.64C0.48 18.18 0.16 18.46 0.11 18.54C-0.13 18.92 0.01 19.42 0.42 19.62C0.54 19.67 0.59 19.68 0.75 19.68C1 19.68 1.08 19.64 1.49 19.3C1.67 19.15 1.82 19.02 1.83 19.02C1.84 19.02 1.84 19.81 1.84 20.77C1.84 22.73 1.84 22.72 2.02 23.08C2.14 23.35 2.46 23.67 2.72 23.81C3.08 24 2.79 23.98 6.15 23.99C9.52 24 9.36 24 9.73 23.82C10.1 23.64 10.44 23.26 10.57 22.86L10.64 22.66L10.65 20.84L10.66 19.02L11 19.3C11.41 19.65 11.48 19.68 11.74 19.68C11.9 19.68 11.96 19.67 12.07 19.62C12.47 19.42 12.61 18.92 12.37 18.54C12.32 18.46 12.03 18.2 11.38 17.65C10.87 17.23 10.39 16.82 10.31 16.76C10.23 16.7 9.39 15.99 8.44 15.19C7.48 14.39 6.65 13.71 6.59 13.68C6.51 13.63 6.45 13.61 6.28 13.61C6.15 13.6 6.05 13.61 5.99 13.63ZM4.8 16.53L3.35 17.74L3.35 20.07C3.35 22.16 3.36 22.41 3.39 22.44C3.42 22.48 3.72 22.48 6.24 22.48C8.94 22.48 9.06 22.48 9.1 22.44C9.13 22.4 9.14 22.2 9.14 20.07L9.14 17.74L7.74 16.58C6.98 15.94 6.33 15.39 6.29 15.37L6.24 15.33L4.8 16.53Z"
         fill-rule="evenodd" />
   </symbol>
   <!-- 3 -->
   <symbol id="icon-dropdown-3" width="24" height="24" viewBox="0 0 24 24">
      <path
         d="M13.02 0.02C11.89 0.22 11.01 0.98 10.65 2.05C10.5 2.49 10.5 2.47 10.5 5.09L10.5 7.47L7.89 7.47C6.2 7.47 5.23 7.48 5.13 7.5C4.87 7.54 4.68 7.69 4.56 7.94C4.51 8.05 4.5 8.1 4.5 8.35C4.5 9.75 5.01 11.2 5.91 12.37C6.12 12.65 6.61 13.16 6.83 13.34L6.97 13.46L3.78 13.47L0.58 13.49L0.45 13.55C0.22 13.66 0.06 13.85 0.02 14.09C0 14.19 -0.01 15.49 0 18.83L0 23.42L0.07 23.56C0.15 23.73 0.31 23.87 0.49 23.94C0.62 23.99 0.62 23.99 11.25 23.99C21.88 23.99 21.88 23.99 22.01 23.94C22.18 23.87 22.34 23.73 22.42 23.56L22.49 23.42L22.49 18.74L22.49 14.06L22.43 13.93C22.35 13.76 22.22 13.63 22.05 13.55L21.92 13.49L18.72 13.47L15.52 13.46L15.67 13.34C15.75 13.28 15.95 13.08 16.11 12.92C17.3 11.68 17.99 10 17.99 8.35C17.99 8.1 17.98 8.05 17.93 7.94C17.82 7.69 17.63 7.54 17.37 7.5C17.27 7.48 16.29 7.47 14.6 7.47L11.99 7.47L12 5.1C12.01 2.91 12.01 2.72 12.05 2.59C12.2 2.07 12.63 1.66 13.13 1.53C13.31 1.49 13.66 1.49 13.86 1.53C14.33 1.65 14.78 2.06 14.92 2.53C14.95 2.62 14.98 2.8 14.99 2.93C15.02 3.24 15.08 3.38 15.25 3.54C15.4 3.67 15.54 3.73 15.75 3.73C15.95 3.73 16.1 3.67 16.25 3.54C16.44 3.36 16.49 3.23 16.49 2.9C16.48 1.8 15.82 0.78 14.81 0.29C14.6 0.19 14.34 0.1 14.1 0.05C13.86 -0.01 13.26 -0.02 13.02 0.02ZM6.07 9.11C6.13 9.52 6.35 10.18 6.58 10.63C6.99 11.42 7.61 12.12 8.37 12.62C8.82 12.93 9.54 13.23 10.09 13.35C10.82 13.51 11.68 13.51 12.41 13.35C12.95 13.23 13.67 12.93 14.13 12.62C15.23 11.89 16.02 10.77 16.33 9.52C16.37 9.36 16.41 9.18 16.42 9.11L16.44 8.99L11.25 8.99L6.06 8.99L6.07 9.11ZM1.5 18.73L1.5 22.47L6 22.47L10.5 22.47L10.5 18.73L10.5 14.99L6 14.99L1.5 14.99L1.5 18.73ZM11.99 18.73L11.99 22.47L16.49 22.47L20.99 22.47L20.99 18.73L20.99 14.99L16.49 14.99L11.99 14.99L11.99 18.73ZM8.11 16.5C7.87 16.54 7.67 16.7 7.56 16.94L7.5 17.06L7.5 18.35C7.5 19.81 7.5 19.77 7.7 19.99C7.86 20.16 8.01 20.23 8.25 20.23C8.55 20.23 8.78 20.08 8.92 19.81L8.98 19.7L8.99 18.39L8.99 17.07L8.94 16.94C8.86 16.79 8.76 16.66 8.62 16.59C8.53 16.53 8.48 16.52 8.28 16.49C8.26 16.48 8.18 16.49 8.11 16.5ZM14.11 16.5C13.87 16.54 13.67 16.7 13.56 16.94L13.5 17.06L13.5 18.35C13.5 19.81 13.5 19.77 13.7 19.99C13.86 20.16 14.01 20.23 14.25 20.23C14.49 20.23 14.64 20.16 14.8 19.99C15 19.77 14.99 19.81 14.99 18.35L14.99 17.06L14.93 16.94C14.86 16.79 14.75 16.66 14.62 16.59C14.53 16.53 14.48 16.52 14.28 16.49C14.26 16.48 14.18 16.49 14.11 16.5Z"
         fill-rule="evenodd" />
   </symbol>
   <!-- 4 -->
   <symbol id="icon-dropdown-4" width="24" height="24" viewBox="0 0 24 24">
      <path id="Vector"
         d="M3.83 0.01C3.63 0.05 3.29 0.17 3.12 0.26C2.53 0.61 2.13 1.17 2.02 1.8C2 1.92 1.85 3.29 1.7 4.85C1.55 6.4 1.41 7.76 1.4 7.86C1.38 7.96 1.37 8.07 1.37 8.1C1.38 8.2 0.75 14.53 0.73 14.63C0.72 14.67 0.71 14.78 0.71 14.86C0.71 14.95 0.54 16.67 0.34 18.69C-0.05 22.7 -0.05 22.75 0.06 23.03C0.13 23.24 0.32 23.5 0.47 23.62C0.65 23.77 0.76 23.83 1.02 23.92C1.21 23.98 1.27 23.99 1.4 23.98C1.7 23.96 1.95 23.79 2.08 23.52C2.15 23.36 2.17 23.15 2.12 22.97C2.08 22.85 2.12 22.53 2.21 22.25C2.42 21.56 2.98 21.01 3.67 20.79C4.25 20.61 4.81 20.65 5.35 20.91C6 21.23 6.45 21.82 6.58 22.51C6.64 22.9 6.68 23.04 6.77 23.2C6.94 23.52 7.25 23.78 7.6 23.91C7.76 23.97 7.81 23.97 8.15 23.97C8.55 23.97 8.66 23.95 8.89 23.84C9.2 23.69 9.47 23.42 9.6 23.13C9.63 23.06 9.69 22.88 9.73 22.73C9.84 22.29 9.96 22.05 10.2 21.75C10.98 20.79 12.42 20.66 13.37 21.47C13.75 21.78 13.99 22.18 14.12 22.7C14.23 23.12 14.33 23.31 14.56 23.54C14.89 23.87 15.2 23.99 15.69 23.99C16.14 23.99 16.47 23.87 16.76 23.61C17.05 23.35 17.19 23.09 17.27 22.61C17.35 22.11 17.54 21.72 17.87 21.38C18.23 21.01 18.62 20.8 19.13 20.71C20.1 20.54 21.07 21.04 21.51 21.92C21.7 22.3 21.81 22.79 21.73 22.93C21.67 23.04 21.66 23.26 21.69 23.41C21.87 24.1 22.76 24.19 23.37 23.57C23.64 23.3 23.78 23 23.81 22.66C23.82 22.53 23.73 21.54 23.46 18.83C23.26 16.81 23.09 15.05 23.08 14.91C23.06 14.78 22.91 13.2 22.73 11.41C22.55 9.62 22.41 8.11 22.41 8.04C22.41 7.98 22.4 7.92 22.39 7.91C22.39 7.9 22.25 6.57 22.09 4.95C21.93 3.34 21.79 1.92 21.77 1.8C21.63 1 21.02 0.33 20.18 0.07L19.97 0L11.96 0C7.32 -0.01 3.9 0 3.83 0.01ZM3.95 1.54C3.8 1.59 3.59 1.81 3.53 1.96C3.5 2.04 3.44 2.59 3.3 3.96C3.2 5 3.12 5.86 3.12 5.86C3.12 5.86 3.27 5.79 3.44 5.7C4.19 5.33 4.81 5.21 5.81 5.25C6.27 5.26 6.57 5.32 7 5.46C7.26 5.55 7.62 5.71 7.85 5.85C7.92 5.9 7.95 5.91 7.95 5.89C7.95 5.87 7.99 4.91 8.03 3.75C8.07 2.6 8.1 1.62 8.1 1.58L8.1 1.5L6.08 1.5C4.29 1.5 4.04 1.51 3.95 1.54ZM9.6 1.8C9.57 2.36 9.46 5.85 9.47 5.86C9.48 5.86 9.62 5.8 9.78 5.71C10.12 5.54 10.56 5.39 10.94 5.31C11.27 5.25 12.13 5.22 12.52 5.27C13.03 5.32 13.52 5.47 14 5.71C14.16 5.8 14.3 5.86 14.31 5.86C14.32 5.85 14.21 2.33 14.18 1.8L14.16 1.5L11.89 1.5L9.62 1.5L9.6 1.8ZM15.68 1.58C15.68 1.62 15.71 2.6 15.75 3.75C15.79 4.91 15.83 5.87 15.83 5.89C15.83 5.91 15.86 5.9 15.93 5.85C16.4 5.57 16.99 5.36 17.55 5.28C17.85 5.24 18.63 5.23 18.93 5.27C19.42 5.33 19.92 5.48 20.38 5.73C20.53 5.8 20.66 5.86 20.66 5.86C20.66 5.86 20.58 5.01 20.48 3.98C20.35 2.69 20.28 2.06 20.25 1.97C20.22 1.88 20.17 1.81 20.08 1.71C19.85 1.48 20 1.5 17.69 1.5L15.68 1.5L15.68 1.58ZM5.05 6.76C4.21 6.86 3.4 7.38 2.96 8.11L2.88 8.24L2.67 10.4C2.56 11.58 2.46 12.58 2.46 12.62L2.46 12.69L2.52 12.64C2.66 12.54 3.13 12.33 3.4 12.23C3.56 12.17 3.82 12.1 3.99 12.06C4.29 12 4.32 12 5.06 12C5.81 12 5.84 12 6.14 12.07C6.67 12.18 7.16 12.37 7.56 12.61C7.65 12.66 7.72 12.7 7.73 12.7C7.73 12.7 7.77 11.62 7.81 10.3L7.89 7.91L7.8 7.79C7.68 7.62 7.37 7.34 7.17 7.2C6.87 7.01 6.53 6.87 6.17 6.79C5.94 6.74 5.31 6.72 5.05 6.76ZM11.55 6.75C10.86 6.81 10.18 7.12 9.71 7.59C9.61 7.69 9.5 7.81 9.46 7.86L9.39 7.95L9.32 10.12C9.28 11.31 9.25 12.37 9.24 12.48L9.24 12.68L9.48 12.55C9.94 12.31 10.42 12.14 10.95 12.05C11.26 11.99 12.17 11.97 12.54 12.01C13.12 12.07 13.67 12.23 14.21 12.5L14.54 12.67L14.54 12.48C14.53 12.37 14.5 11.31 14.46 10.11L14.39 7.92L14.29 7.81C13.86 7.29 13.22 6.92 12.54 6.79C12.33 6.75 11.76 6.73 11.55 6.75ZM17.84 6.76C17.43 6.81 17.02 6.95 16.67 7.17C16.47 7.29 16.11 7.61 15.97 7.79L15.89 7.89L15.97 10.29C16.01 11.61 16.05 12.7 16.05 12.7C16.06 12.7 16.13 12.66 16.23 12.61C16.62 12.37 17.11 12.18 17.64 12.07C17.94 12 17.97 12 18.72 12C19.46 12 19.5 12 19.79 12.06C19.96 12.1 20.22 12.17 20.38 12.23C20.66 12.33 21.12 12.54 21.26 12.64C21.29 12.67 21.33 12.68 21.33 12.68C21.34 12.67 21.24 11.68 21.12 10.46L20.9 8.25L20.82 8.11C20.42 7.45 19.75 6.98 18.97 6.8C18.73 6.75 18.12 6.72 17.84 6.76ZM4.59 13.5C3.69 13.58 2.79 14.13 2.29 14.91C2.22 15.01 2.22 15.02 1.97 17.59C1.83 19.01 1.71 20.18 1.71 20.21C1.71 20.23 1.78 20.19 1.9 20.09C2.44 19.62 3.1 19.32 3.83 19.21C4.08 19.17 4.66 19.17 4.92 19.21C5.56 19.31 6.14 19.56 6.66 19.95C6.87 20.11 7.21 20.46 7.35 20.65L7.45 20.77L7.46 20.67C7.47 20.61 7.51 19.35 7.56 17.85C7.6 16.36 7.65 15.03 7.66 14.9L7.67 14.65L7.42 14.4C6.96 13.94 6.41 13.65 5.78 13.54C5.55 13.5 4.88 13.48 4.59 13.5ZM18.42 13.5C17.92 13.52 17.65 13.59 17.23 13.79C16.88 13.95 16.64 14.12 16.36 14.4L16.11 14.65L16.12 14.92C16.13 15.07 16.18 16.37 16.22 17.82C16.27 19.26 16.31 20.55 16.32 20.67L16.33 20.89L16.51 20.65C16.83 20.22 17.28 19.85 17.77 19.6C18.96 18.99 20.31 19.03 21.47 19.73C21.65 19.83 21.88 20 21.99 20.11L22.07 20.18L22.07 20.11C22.07 20.07 21.95 18.91 21.82 17.53L21.57 15.02L21.5 14.91C21.2 14.45 20.74 14.05 20.23 13.8C19.69 13.54 19.22 13.46 18.42 13.5ZM11.18 13.54C10.72 13.62 10.14 13.86 9.76 14.14C9.65 14.22 9.48 14.37 9.37 14.48C9.21 14.65 9.18 14.68 9.17 14.77C9.16 14.83 9.12 16.1 9.07 17.59C9.02 19.08 8.98 20.43 8.97 20.59L8.96 20.88L9.01 20.82C9.26 20.52 9.64 20.2 9.95 20C10.6 19.58 11.46 19.38 12.24 19.45C12.74 19.49 13.08 19.59 13.52 19.79C13.95 19.99 14.28 20.23 14.62 20.57L14.82 20.78L14.8 20.42C14.8 20.22 14.75 18.86 14.7 17.38L14.61 14.71L14.51 14.58C14.29 14.31 13.81 13.97 13.44 13.8C13.2 13.69 12.84 13.58 12.6 13.53C12.33 13.49 11.46 13.49 11.18 13.54Z"
         fill-rule="evenodd" />
   </symbol>
   <!-- 5 -->
   <symbol id="icon-dropdown-5" width="24" height="24" viewBox="0 0 24 24">
      <path
         d="M11.68 0.02C11.46 0.04 11.11 0.16 10.91 0.28C10.68 0.4 0.25 8.06 0.17 8.15C0.03 8.31 0 8.41 0 8.64C0 8.84 0.01 8.87 0.07 8.99C0.16 9.15 0.35 9.31 0.5 9.35C0.66 9.4 0.89 9.39 1.02 9.33C1.08 9.31 3.49 7.56 6.36 5.45C9.24 3.34 11.64 1.59 11.7 1.57C11.85 1.5 12.13 1.5 12.28 1.57C12.33 1.59 14.74 3.34 17.61 5.45C20.49 7.56 22.89 9.31 22.95 9.33C23.03 9.37 23.11 9.38 23.22 9.38C23.59 9.39 23.78 9.24 23.99 8.79C24.02 8.73 24.02 8.46 23.99 8.47C23.97 8.48 23.96 8.47 23.96 8.45C23.96 8.4 23.88 8.24 23.81 8.15C23.73 8.06 13.29 0.4 13.07 0.28C12.86 0.15 12.52 0.05 12.26 0.02C12.02 -0.01 11.93 -0.01 11.68 0.02ZM18.51 0.42C18.31 0.48 18.11 0.68 18.03 0.88C17.99 0.98 17.98 1.05 17.99 1.18C18.01 1.4 18.08 1.54 18.24 1.69C18.46 1.89 18.43 1.89 19.79 1.89L20.99 1.89L20.99 3.12L21 4.35L21.06 4.46C21.14 4.62 21.34 4.8 21.49 4.85C21.68 4.91 21.92 4.89 22.09 4.8C22.31 4.68 22.43 4.5 22.48 4.24C22.51 4.05 22.51 1.19 22.47 1.01C22.43 0.77 22.29 0.58 22.07 0.47L21.96 0.41L20.27 0.41C19.34 0.4 18.55 0.41 18.51 0.42ZM11.39 7.17C10.61 7.26 9.73 7.59 9.05 8.04C8.01 8.72 7.19 9.88 6.89 11.08C6.77 11.56 6.74 11.78 6.74 12.37C6.74 12.99 6.77 13.23 6.9 13.73C7.16 14.75 7.82 15.77 8.65 16.44C8.9 16.65 9.22 16.86 9.5 17.01L9.73 17.13L9.74 18.23C9.74 19.31 9.74 19.32 9.8 19.44C9.86 19.59 10.01 19.74 10.16 19.82C10.32 19.9 10.66 19.9 10.81 19.82C10.96 19.74 11.11 19.59 11.18 19.44L11.23 19.32L11.23 17.88L11.23 16.44L11.17 16.31C11.06 16.09 10.92 15.97 10.64 15.87C9.47 15.43 8.6 14.43 8.31 13.17C8.24 12.84 8.22 12.14 8.29 11.76C8.35 11.38 8.43 11.13 8.6 10.78C8.76 10.45 8.87 10.29 9.1 10C9.6 9.38 10.41 8.9 11.27 8.71C11.62 8.64 12.57 8.64 12.7 8.72C12.72 8.74 12.52 8.95 12.08 9.37C11.72 9.71 11.33 10.07 11.22 10.17C10.73 10.6 10.47 11.15 10.47 11.79C10.47 12.44 10.75 13.04 11.26 13.45C11.61 13.73 12 13.88 12.46 13.9C12.91 13.93 13.27 13.84 13.65 13.62C13.87 13.5 14.02 13.37 14.26 13.1C14.36 12.98 14.71 12.61 15.04 12.26L15.65 11.63L15.68 11.78C15.7 11.88 15.71 12.1 15.71 12.4C15.72 12.93 15.68 13.19 15.52 13.63C15.34 14.16 15.06 14.61 14.65 15.01C14.26 15.41 13.86 15.66 13.27 15.9C13.04 15.99 12.89 16.12 12.8 16.3L12.74 16.42L12.74 17.87L12.74 19.32L12.8 19.44C12.86 19.59 13.01 19.74 13.16 19.82C13.32 19.9 13.66 19.9 13.81 19.82C13.96 19.74 14.11 19.59 14.18 19.44C14.23 19.32 14.23 19.31 14.24 18.23L14.25 17.13L14.47 17.01C15.19 16.62 15.81 16.07 16.27 15.43C17.39 13.87 17.55 11.76 16.68 10.07C16.54 9.81 16.44 9.69 16.28 9.6C16.16 9.54 16.13 9.53 15.94 9.53C15.76 9.53 15.7 9.54 15.61 9.58C15.47 9.66 14.25 10.89 13.29 11.92C12.89 12.36 12.83 12.4 12.58 12.4C12.13 12.4 11.85 11.97 12.03 11.54C12.05 11.47 12.13 11.38 12.3 11.23C12.57 10.99 13.8 9.81 14.35 9.26C14.81 8.81 14.85 8.74 14.85 8.45C14.86 8.29 14.84 8.24 14.79 8.12C14.68 7.9 14.55 7.81 14.04 7.57C13.63 7.38 13.03 7.22 12.53 7.17C12.27 7.14 11.65 7.14 11.39 7.17ZM0 8.64C0 8.73 0 8.77 0 8.72C0.01 8.67 0.01 8.59 0 8.55C0 8.51 0 8.55 0 8.64ZM3.51 9.42C3.31 9.49 3.11 9.68 3.04 9.87C2.99 10 2.99 10.02 2.99 15.51L3 21.03L3.05 21.19C3.16 21.56 3.24 21.72 3.45 22C3.72 22.38 4.15 22.66 4.65 22.82L4.82 22.87L11.88 22.88C16.79 22.89 18.99 22.88 19.1 22.86C19.94 22.73 20.65 22.1 20.91 21.24L20.98 21.03L20.98 15.48L20.98 9.94L20.92 9.83C20.85 9.69 20.7 9.53 20.57 9.46C20.49 9.42 20.43 9.41 20.24 9.41C20.05 9.41 20 9.42 19.91 9.47C19.68 9.58 19.54 9.77 19.5 10.01C19.48 10.11 19.48 11.78 19.47 15.48L19.47 20.81L19.42 20.93C19.3 21.18 19.11 21.33 18.83 21.38C18.65 21.41 5.33 21.41 5.14 21.38C4.87 21.33 4.67 21.18 4.56 20.93L4.5 20.81L4.5 15.48C4.5 11.78 4.49 10.11 4.47 10.01C4.43 9.77 4.29 9.58 4.07 9.47C3.98 9.42 3.91 9.41 3.77 9.41C3.66 9.4 3.55 9.41 3.51 9.42Z"
         fill-rule="evenodd" />


   </symbol>
   <!-- 6 -->
   <symbol id="icon-dropdown-6" width="24" height="24" viewBox="0 0 24 24">
      <path id="Vector"
         d="M7.45 0.04C7.38 0.07 7.26 0.15 7.15 0.25C4.44 2.77 0.2 6.71 0.16 6.76C0.13 6.79 0.08 6.87 0.05 6.93L0 7.04L0 11.5L0 15.96L0.05 16.07C0.13 16.23 0.26 16.35 0.41 16.42L0.55 16.49L2.27 16.5L3.99 16.5L4 17.49L4 18.48L4.07 18.59C4.16 18.74 4.29 18.87 4.44 18.93C4.55 18.99 4.57 18.99 5.52 18.99L6.49 19L6.49 19.98C6.5 20.95 6.5 20.96 6.56 21.06C6.63 21.22 6.79 21.36 6.93 21.43C7.05 21.48 7.07 21.48 8.02 21.49L8.98 21.5L8.98 22.45L8.98 23.4L9.05 23.55C9.14 23.72 9.26 23.85 9.44 23.93L9.57 23.99L16.48 23.99L23.4 23.99L23.54 23.92C23.72 23.84 23.84 23.71 23.92 23.54L23.98 23.4L23.99 15.24C23.99 10.76 24 8.99 23.99 11.33L23.98 15.58L23.91 15.44C23.83 15.26 23.7 15.13 23.53 15.05L23.4 14.99L22.19 14.99L20.98 14.99L20.98 12.29C20.98 10.41 20.99 9.59 21.01 9.59C21.02 9.59 21.16 9.62 21.32 9.66C21.7 9.76 21.86 9.76 22.06 9.66C22.41 9.49 22.57 9.1 22.43 8.73C22.38 8.59 22.21 8.39 22.08 8.32C22.03 8.3 20.44 7.89 18.55 7.42L15.1 6.56L11.64 3.34C9.19 1.07 8.13 0.1 8.05 0.06C7.89 -0.02 7.63 -0.03 7.45 0.04ZM4.6 4.68L1.5 7.56L1.5 11.28L1.5 14.99L3.22 15L4.94 15L5.05 15.06C5.19 15.13 5.34 15.28 5.41 15.42C5.47 15.53 5.47 15.55 5.47 16.51L5.48 17.48L6.46 17.49L7.44 17.5L7.55 17.56C7.69 17.63 7.84 17.78 7.91 17.91C7.96 18 7.96 18.03 7.97 18.99L7.98 19.98L8.94 19.99L9.91 20L10.04 20.06C10.21 20.14 10.34 20.27 10.42 20.44L10.48 20.57L10.49 21.53L10.5 22.48L16.49 22.48L22.47 22.48L22.47 19.49L22.47 16.5L16.12 16.5C11.92 16.5 9.71 16.49 9.61 16.48C9.23 16.42 8.96 16.09 8.99 15.69C9 15.43 9.16 15.19 9.41 15.06L9.52 15L11.75 15L13.98 14.99L13.97 11.28L13.97 7.56L10.87 4.68C9.16 3.09 7.74 1.79 7.73 1.79C7.71 1.79 6.3 3.09 4.6 4.68ZM0 11.5C0 13.93 0 14.93 0 13.72C0 12.51 0 10.52 0 9.3C0 8.08 0 9.07 0 11.5ZM15.49 11.6L15.49 14.99L17.48 14.99L19.47 14.99L19.47 12.09L19.46 9.2L17.47 8.7L15.49 8.21L15.49 11.6Z"
         fill-rule="evenodd" />
   </symbol>


   <symbol id="icon-insta" width="18" height="18" viewBox="0 0 18 18">
      <path id="Vector"
         d="M13 0L5 0C2.23 0 0 2.23 0 5L0 13C0 15.76 2.23 18 5 18L13 18C15.76 18 18 15.76 18 13L18 5C18 2.23 15.76 0 13 0ZM16.25 13C16.24 14.79 14.79 16.24 13 16.25L5 16.25C3.2 16.24 1.75 14.79 1.75 13L1.75 5C1.75 3.2 3.2 1.75 5 1.75L13 1.75C14.79 1.75 16.24 3.2 16.25 5L16.25 13ZM13.75 5.25C14.3 5.25 14.75 4.8 14.75 4.25C14.75 3.69 14.3 3.25 13.75 3.25C13.19 3.25 12.75 3.69 12.75 4.25C12.75 4.8 13.19 5.25 13.75 5.25ZM9 4.5C6.51 4.5 4.5 6.51 4.5 9C4.5 11.48 6.51 13.5 9 13.5C11.48 13.5 13.5 11.48 13.5 9C13.5 7.8 13.02 6.65 12.18 5.81C11.34 4.97 10.19 4.49 9 4.5ZM6.25 9C6.25 10.51 7.48 11.75 9 11.75C10.51 11.75 11.75 10.51 11.75 9C11.75 7.48 10.51 6.25 9 6.25C7.48 6.25 6.25 7.48 6.25 9Z"
         fill-rule="evenodd" />
   </symbol>

   <symbol id="icon-linkedin" width="18" height="18" viewBox="0 0 18 18">
      <path id="Vector"
         d="M1.5 0C0.67 0 0 0.67 0 1.5L0 16.5C0 17.32 0.67 18 1.5 18L16.5 18C17.32 18 18 17.32 18 16.5L18 1.5C18 0.67 17.32 0 16.5 0L1.5 0ZM5.52 4C5.52 4.95 4.81 5.54 3.96 5.54C3.16 5.53 2.46 4.9 2.46 4C2.47 3.15 3.14 2.47 4 2.49C4.88 2.51 5.52 3.16 5.52 4ZM9.27 6.76L6.75 6.76L6.75 6.76L6.75 15.32L9.42 15.32L9.42 15.12C9.42 14.74 9.42 14.36 9.42 13.98C9.42 12.96 9.41 11.95 9.42 10.93C9.42 10.69 9.43 10.43 9.5 10.2C9.73 9.32 10.52 8.75 11.4 8.89C11.97 8.98 12.34 9.31 12.5 9.84C12.6 10.18 12.64 10.53 12.64 10.88C12.66 11.93 12.65 12.98 12.65 14.02C12.65 14.39 12.65 14.76 12.65 15.13L12.65 15.32L15.32 15.32L15.32 15.11C15.32 14.66 15.32 14.21 15.32 13.75C15.32 12.62 15.32 11.5 15.32 10.37C15.33 9.85 15.27 9.35 15.15 8.86C14.96 8.12 14.57 7.52 13.94 7.08C13.5 6.77 13.01 6.56 12.46 6.54C12.4 6.54 12.34 6.54 12.27 6.53C11.99 6.52 11.71 6.5 11.44 6.56C10.68 6.71 10 7.06 9.5 7.68C9.44 7.75 9.38 7.82 9.29 7.93L9.27 7.95L9.27 6.76ZM2.68 15.32L5.33 15.32L5.33 6.76L2.68 6.76L2.68 15.32Z"
         fill-rule="evenodd" />
   </symbol>


   <symbol id="icon-x" width="18.000000" height="16.000000" viewBox="0 0 18 16">
      <path
         d="M14.17 0L16.93 0L10.9 6.77L18 16L12.44 16L8.09 10.4L3.11 16L0.35 16L6.8 8.75L0 0L5.69 0L9.62 5.11L14.17 0ZM13.2 14.37L14.73 14.37L4.86 1.53L3.22 1.53L13.2 14.37Z"
         fill-rule="nonzero" />
   </symbol>


   <symbol id="icon-arrow-left" height="27.346802" viewBox="0 0 51.9944 27.3468">
      <path id="Vector"
         d="M1.9 18.16L10.28 26.64C10.48 26.84 10.72 27 10.99 27.11C11.25 27.22 11.53 27.28 11.82 27.28C12.11 27.28 12.39 27.22 12.65 27.11C12.92 27 13.16 26.84 13.36 26.64C13.56 26.43 13.72 26.19 13.83 25.93C13.94 25.67 14 25.38 14 25.1C14 24.81 13.94 24.53 13.83 24.26C13.72 24 13.56 23.76 13.36 23.56L5.64 15.8L49.82 15.8C50.4 15.8 50.95 15.57 51.35 15.17C51.76 14.76 51.99 14.21 51.99 13.64C51.99 13.06 51.76 12.51 51.35 12.1C50.95 11.7 50.4 11.47 49.82 11.47L5.51 11.47L13.36 3.63C13.74 3.22 13.96 2.69 13.96 2.13C13.96 1.57 13.74 1.04 13.36 0.64C13.16 0.43 12.92 0.27 12.65 0.16C12.39 0.05 12.11 0 11.82 0C11.53 0 11.25 0.05 10.99 0.16C10.72 0.27 10.48 0.43 10.28 0.64L1.9 8.98C0.68 10.2 0 11.85 0 13.57C0 15.29 0.68 16.95 1.9 18.16Z"
         fill-rule="nonzero" />
   </symbol>
   <symbol id="icon-arrow-right" height="27.346802" viewBox="0 0 51.9944 27.3468">
      <path id="Vector"
         d="M50.09 9.11L41.7 0.64C41.5 0.43 41.26 0.27 41 0.16C40.73 0.05 40.45 0 40.16 0C39.88 0 39.6 0.05 39.33 0.16C39.07 0.27 38.83 0.43 38.63 0.64C38.22 1.04 38 1.59 38 2.16C38 2.74 38.22 3.28 38.63 3.69L46.34 11.47L2.16 11.47C1.59 11.47 1.04 11.7 0.63 12.1C0.22 12.51 0 13.06 0 13.64C0 14.21 0.22 14.76 0.63 15.17C1.04 15.57 1.59 15.8 2.16 15.8L46.47 15.8L38.63 23.62C38.42 23.83 38.26 24.07 38.15 24.33C38.04 24.59 37.99 24.88 37.99 25.16C37.99 25.45 38.04 25.73 38.15 26C38.26 26.26 38.42 26.5 38.63 26.7C38.83 26.9 39.07 27.07 39.33 27.18C39.6 27.29 39.88 27.34 40.16 27.34C40.45 27.34 40.73 27.29 41 27.18C41.26 27.07 41.5 26.9 41.7 26.7L50.09 18.29C51.31 17.08 51.99 15.42 51.99 13.7C51.99 11.98 51.31 10.33 50.09 9.11Z"
         fill-rule="nonzero" />
   </symbol>

   <symbol id="icon-arrow-enter" width="16" height="14" viewBox="0 0 16 14">
      <path id="Vector"
         d="M15.42 7.26L11.81 3.53C11.56 3.26 11.13 3.26 10.87 3.52C10.6 3.77 10.6 4.2 10.86 4.46L14.28 7.99L3.33 7.99C2.23 7.99 1.33 7.09 1.33 5.99L1.33 0.66C1.33 0.29 1.03 0 0.66 0C0.3 0 0 0.29 0 0.66L0 6C0 7.84 1.49 9.33 3.33 9.33L14.28 9.33L10.85 12.86C10.6 13.13 10.6 13.55 10.86 13.8C10.99 13.93 11.16 13.99 11.33 13.99C11.5 13.99 11.68 13.92 11.81 13.79L15.41 10.07C16.19 9.29 16.19 8.02 15.42 7.25L15.42 7.26Z"
         fill-rule="nonzero" />
   </symbol>

   <symbol id="icon-user" width="16" height="16" viewBox="0 0 16 16">
      <path
         d="M5.33 8C7.53 8 9.33 6.2 9.33 4C9.33 1.79 7.53 0 5.33 0C3.12 0 1.33 1.79 1.33 4C1.33 6.2 3.12 8 5.33 8ZM5.33 1.33C6.8 1.33 8 2.52 8 4C8 5.47 6.8 6.66 5.33 6.66C3.86 6.66 2.66 5.47 2.66 4C2.66 2.52 3.86 1.33 5.33 1.33ZM6.66 10C6.66 10.36 6.36 10.66 6 10.66C3.42 10.66 1.33 12.76 1.33 15.33C1.33 15.7 1.03 16 0.66 16C0.29 16 0 15.7 0 15.33C0 12.02 2.69 9.33 6 9.33C6.36 9.33 6.66 9.63 6.66 10ZM15.76 11.83L14.18 13.11L14.83 15.1C14.92 15.37 14.83 15.67 14.61 15.84C14.38 16.01 14.07 16.02 13.83 15.87L12 14.67L10.19 15.88C10.08 15.96 9.95 15.99 9.82 15.99C9.68 15.99 9.54 15.95 9.42 15.86C9.2 15.69 9.1 15.4 9.19 15.13L9.82 13.12L8.23 11.83C8.02 11.65 7.94 11.35 8.04 11.09C8.13 10.83 8.38 10.65 8.66 10.65L10.66 10.65L11.37 8.67C11.47 8.4 11.72 8.23 12 8.23C12.27 8.23 12.52 8.4 12.62 8.67L13.33 10.65L15.33 10.65C15.61 10.65 15.86 10.83 15.96 11.09C16.05 11.35 15.97 11.65 15.76 11.83L15.76 11.83Z"
         fill-rule="nonzero" />
   </symbol>
   <symbol id="icon-project" width="16" height="16" viewBox="0 0 16 16">
      <path
         d="M13.33 6.66L13.33 11.33C13.33 12.06 12.73 12.66 12 12.66L7.33 12.66C6.59 12.66 6 12.06 6 11.33L6 6C6 5.63 6.29 5.33 6.66 5.33C7.03 5.33 7.33 5.63 7.33 6L7.33 11.33L9.33 11.33L9.33 9.33C9.33 8.96 9.63 8.66 10 8.66C10.36 8.66 10.66 8.96 10.66 9.33L10.66 11.33L12 11.33L12 6.66L9.33 6.66C8.96 6.66 8.66 6.36 8.66 6C8.66 5.63 8.96 5.33 9.33 5.33L12 5.33C12.73 5.33 13.33 5.93 13.33 6.66ZM16 6L16 12.66C16 14.5 14.5 16 12.66 16L2.42 16C1.08 16 0 14.91 0 13.57L0 2.33C0 1.04 1.04 0 2.33 0L2.66 0C3.76 0 4.66 0.89 4.66 2L4.66 2.66L12.66 2.66C14.5 2.66 16 4.15 16 6ZM1.33 11.55C1.64 11.41 1.98 11.33 2.33 11.33L2.66 11.33C3.03 11.33 3.33 11.03 3.33 10.66L3.33 2C3.33 1.63 3.03 1.33 2.66 1.33L2.33 1.33C1.78 1.33 1.33 1.78 1.33 2.33L1.33 11.55ZM14.66 6C14.66 4.89 13.76 4 12.66 4L4.66 4L4.66 10.66C4.66 11.77 3.76 12.66 2.66 12.66L2.33 12.66C1.78 12.66 1.33 13.11 1.33 13.66C1.33 14.21 1.78 14.66 2.33 14.66L12.66 14.66C13.76 14.66 14.66 13.77 14.66 12.66L14.66 6Z"
         fill-rule="nonzero" />
   </symbol>


   <symbol id="icon-arrow-right-small" width="4.782227" height="9.334229"
      viewBox="0 0 4.78223 9.33423">
      <path id="Vector"
         d="M4.19 3.25L1.13 0.19C1.01 0.06 0.84 0 0.66 0C0.49 0 0.32 0.06 0.19 0.19C0.13 0.25 0.08 0.32 0.05 0.41C0.01 0.49 0 0.57 0 0.66C0 0.75 0.01 0.84 0.05 0.92C0.08 1 0.13 1.07 0.19 1.14L3.26 4.19C3.32 4.25 3.37 4.32 3.41 4.41C3.44 4.49 3.46 4.57 3.46 4.66C3.46 4.75 3.44 4.84 3.41 4.92C3.37 5 3.32 5.07 3.26 5.14L0.19 8.19C0.07 8.31 0 8.48 0 8.66C0 8.84 0.06 9.01 0.19 9.13C0.31 9.26 0.48 9.33 0.66 9.33C0.84 9.33 1.01 9.26 1.13 9.14L4.19 6.08C4.57 5.7 4.78 5.19 4.78 4.66C4.78 4.13 4.57 3.62 4.19 3.25Z"
         fill-rule="nonzero" />
   </symbol>

   <symbol id="icon-play" width="64" height="64" viewBox="0 0 64 64">
      <rect rx="0.000000" width="63" height="63" transform="translate(0.500000 0.500000)"
         fill="white" fill-opacity="0" />
   </symbol>

   <symbol id="icon-link" width="24" height="25" viewBox="0 0 24 25">
      <path
         d="M4.22172 20.7011C4.68559 21.1656 5.23669 21.5339 5.84334 21.7848C6.44999 22.0357 7.10023 22.1642 7.75672 22.1631C8.41335 22.1642 9.06374 22.0356 9.67054 21.7848C10.2774 21.5339 10.8286 21.1656 11.2927 20.7011L14.1207 17.8721L12.7067 16.4581L9.87872 19.2871C9.31519 19.8481 8.55239 20.163 7.75722 20.163C6.96205 20.163 6.19925 19.8481 5.63572 19.2871C5.07422 18.7238 4.75892 17.9609 4.75892 17.1656C4.75892 16.3702 5.07422 15.6073 5.63572 15.0441L8.46472 12.2161L7.05072 10.8021L4.22172 13.6301C3.28552 14.5685 2.75977 15.84 2.75977 17.1656C2.75977 18.4911 3.28552 19.7626 4.22172 20.7011ZM19.7777 12.2161C20.7134 11.2773 21.2388 10.006 21.2388 8.68056C21.2388 7.35514 20.7134 6.08377 19.7777 5.14506C18.8393 4.20886 17.5678 3.68311 16.2422 3.68311C14.9166 3.68311 13.6452 4.20886 12.7067 5.14506L9.87872 7.97406L11.2927 9.38806L14.1207 6.55906C14.6842 5.99805 15.447 5.68309 16.2422 5.68309C17.0374 5.68309 17.8002 5.99805 18.3637 6.55906C18.9252 7.12233 19.2405 7.88523 19.2405 8.68056C19.2405 9.47589 18.9252 10.2388 18.3637 10.8021L15.5347 13.6301L16.9487 15.0441L19.7777 12.2161Z" />
      <path d="M8.46371 17.8731L7.04871 16.4591L15.5357 7.97314L16.9497 9.38814L8.46371 17.8731Z" />
   </symbol>
</svg>